STARTFONT 2.1
COMMENT
COMMENT Converted from OpenType font "Q:\font stuff\winfont\11S0BLT.TTF" by "otf2bdf 3.0".
COMMENT
FONT -FreeType-11S01 Black Tuesday-Medium-R-Normal--174-1120-112-112-P-726-ISO10646-1
SIZE 112 112 112
FONTBOUNDINGBOX 256 228 -28 -47
STARTPROPERTIES 19
FOUNDRY "FreeType"
FAMILY_NAME "11S01 Black Tuesday"
WEIGHT_NAME "Medium"
SLANT "R"
SETWIDTH_NAME "Normal"
ADD_STYLE_NAME ""
PIXEL_SIZE 132
POINT_SIZE 1120
RESOLUTION_X 112
RESOLUTION_Y 112
SPACING "P"
AVERAGE_WIDTH 726
CHARSET_REGISTRY "ISO10646"
CHARSET_ENCODING "1"
FONT_ASCENT 180
FONT_DESCENT 4
COPYRIGHT "©Graham Meade"
_OTF_FONTFILE "Q:\font stuff\winfont\11S0BLT.TTF"
_OTF_PSNAME "11S01BlackTuesday"
ENDPROPERTIES
CHARS 172
STARTCHAR 0020
ENCODING 32
SWIDTH 482 0
DWIDTH 84 0
BBX 0 0 0 0
BITMAP
ENDCHAR
STARTCHAR 0021
ENCODING 33
SWIDTH 172 0
DWIDTH 30 0
BBX 21 130 3 -1
BITMAP
01FC00
07FF00
0FFF80
1FFFC0
3FFFE0
7FFFF0
7FFFF0
FFFFF8
FFFFF8
FFFFF8
FFFFF8
FFFFF8
FFFFF8
FFFFF8
FFFFF8
FFFFF8
FFFFF8
FFFFF8
FFFFF8
FFFFF8
FFFFF8
FFFFF8
FFFFF8
FFFFF8
FFFFF8
FFFFF8
FFFFF8
FFFFF8
FFFFF8
FFFFF8
FFFFF8
FFFFF8
FFFFF8
FFFFF8
FFFFF8
FFFFF8
FFFFF8
FFFFF8
FFFFF8
FFFFF8
FFFFF8
FFFFF8
FFFFF8
FFFFF8
FFFFF8
FFFFF8
FFFFF8
FFFFF8
FFFFF8
FFFFF8
FFFFF8
FFFFF8
FFFFF8
FFFFF8
FFFFF8
FFFFF8
FFFFF8
FFFFF8
FFFFF8
FFFFF8
FFFFF8
FFFFF8
FFFFF8
FFFFF8
FFFFF8
FFFFF8
FFFFF8
FFFFF8
FFFFF8
FFFFF8
FFFFF8
FFFFF8
FFFFF8
FFFFF8
FFFFF8
FFFFF8
FFFFF8
FFFFF8
FFFFF8
FFFFF8
FFFFF8
FFFFF8
FFFFF8
FFFFF8
FFFFF8
FFFFF8
FFFFF8
FFFFF8
FFFFF8
FFFFF8
FFFFF8
FFFFF8
7FFFF0
7FFFF0
3FFFE0
1FFFC0
0FFF80
07FF00
00F800
000000
000000
000000
000000
000000
000000
000000
000000
000000
000000
01FC00
07FF00
0FFF80
1FFFC0
3FFFE0
7FFFF0
7FFFF0
FFFFF8
FFFFF8
FFFFF8
FFFFF8
FFFFF8
FFFFF8
FFFFF8
7FFFF0
7FFFF0
3FFFE0
1FFFC0
0FFF80
07FF00
01FC00
ENDCHAR
STARTCHAR 0022
ENCODING 34
SWIDTH 350 0
DWIDTH 61 0
BBX 52 36 3 93
BITMAP
01FC000003F800
07FF00000FFE00
0FFF80001FFF00
1FFFC0003FFF80
3FFFE0007FFFC0
7FFFF000FFFFE0
7FFFF000FFFFE0
FFFFF801FFFFF0
FFFFF801FFFFF0
FFFFF801FFFFF0
FFFFF801FFFFF0
FFFFF801FFFFF0
FFFFF801FFFFF0
FFFFF801FFFFF0
FFFFF801FFFFF0
FFFFF801FFFFF0
FFFFF801FFFFF0
FFFFF801FFFFF0
FFFFF801FFFFF0
FFFFF801FFFFF0
FFFFF801FFFFF0
FFFFF801FFFFF0
FFFFF801FFFFF0
FFFFF801FFFFF0
FFFFF801FFFFF0
FFFFF801FFFFF0
FFFFF801FFFFF0
FFFFF801FFFFF0
FFFFF801FFFFF0
7FFFF000FFFFE0
7FFFF000FFFFE0
3FFFE0007FFFC0
3FFFE0007FFF80
0FFFC0001FFF00
07FF00000FFE00
01FC000003F800
ENDCHAR
STARTCHAR 0023
ENCODING 35
SWIDTH 562 0
DWIDTH 98 0
BBX 89 89 3 21
BITMAP
000001FC0000001FC0000000
000007FF0000007FF0000000
00000FFF800000FFF8000000
00001FFFC00001FFFC000000
00003FFFE00003FFFE000000
00007FFFF00007FFFF000000
00007FFFF00007FFFF000000
0000FFFFF8000FFFFF800000
0000FFFFF8000FFFFF800000
0000FFFFF8000FFFFF800000
0000FFFFF8000FFFFF800000
0000FFFFF8000FFFFF800000
0000FFFFF8000FFFFF800000
0000FFFFF8000FFFFF800000
0000FFFFF8000FFFFF800000
0000FFFFF8000FFFFF800000
01FFFFFFFFFFFFFFFFFF8000
07FFFFFFFFFFFFFFFFFFF000
0FFFFFFFFFFFFFFFFFFFF800
1FFFFFFFFFFFFFFFFFFFFC00
3FFFFFFFFFFFFFFFFFFFFE00
7FFFFFFFFFFFFFFFFFFFFE00
7FFFFFFFFFFFFFFFFFFFFF00
FFFFFFFFFFFFFFFFFFFFFF00
FFFFFFFFFFFFFFFFFFFFFF80
FFFFFFFFFFFFFFFFFFFFFF80
FFFFFFFFFFFFFFFFFFFFFF80
FFFFFFFFFFFFFFFFFFFFFF80
FFFFFFFFFFFFFFFFFFFFFF80
FFFFFFFFFFFFFFFFFFFFFF00
7FFFFFFFFFFFFFFFFFFFFF00
7FFFFFFFFFFFFFFFFFFFFF00
3FFFFFFFFFFFFFFFFFFFFE00
1FFFFFFFFFFFFFFFFFFFFC00
0FFFFFFFFFFFFFFFFFFFF800
07FFFFFFFFFFFFFFFFFFF000
01FFFFFFFFFFFFFFFFFFC000
0000FFFFF8000FFFFF800000
0000FFFFF8000FFFFF800000
0000FFFFF8000FFFFF800000
0000FFFFF8000FFFFF800000
0000FFFFF8000FFFFF800000
0000FFFFF8000FFFFF800000
0000FFFFF8000FFFFF800000
0000FFFFF8000FFFFF800000
0000FFFFF8000FFFFF800000
0000FFFFF8000FFFFF800000
0000FFFFF8000FFFFF800000
0000FFFFF8000FFFFF800000
0000FFFFF8000FFFFF800000
0000FFFFF8000FFFFF800000
0000FFFFF8000FFFFF800000
01FFFFFFFFFFFFFFFFFF8000
07FFFFFFFFFFFFFFFFFFF000
0FFFFFFFFFFFFFFFFFFFF800
1FFFFFFFFFFFFFFFFFFFFC00
3FFFFFFFFFFFFFFFFFFFFE00
7FFFFFFFFFFFFFFFFFFFFE00
7FFFFFFFFFFFFFFFFFFFFF00
FFFFFFFFFFFFFFFFFFFFFF00
FFFFFFFFFFFFFFFFFFFFFF80
FFFFFFFFFFFFFFFFFFFFFF80
FFFFFFFFFFFFFFFFFFFFFF80
FFFFFFFFFFFFFFFFFFFFFF80
FFFFFFFFFFFFFFFFFFFFFF80
FFFFFFFFFFFFFFFFFFFFFF00
7FFFFFFFFFFFFFFFFFFFFF00
7FFFFFFFFFFFFFFFFFFFFF00
3FFFFFFFFFFFFFFFFFFFFE00
1FFFFFFFFFFFFFFFFFFFFC00
0FFFFFFFFFFFFFFFFFFFF800
07FFFFFFFFFFFFFFFFFFF000
01FFFFFFFFFFFFFFFFFFC000
0000FFFFF8000FFFFF800000
0000FFFFF8000FFFFF800000
0000FFFFF8000FFFFF800000
0000FFFFF8000FFFFF800000
0000FFFFF8000FFFFF800000
0000FFFFF8000FFFFF800000
0000FFFFF8000FFFFF800000
0000FFFFF8000FFFFF800000
0000FFFFF8000FFFFF800000
00007FFFF00007FFFF000000
00007FFFF00007FFFF000000
00003FFFE00003FFFE000000
00001FFFC00001FFFC000000
00000FFF800000FFF8000000
000007FF0000007FF0000000
000001FC0000001FC0000000
ENDCHAR
STARTCHAR 0024
ENCODING 36
SWIDTH 499 0
DWIDTH 87 0
BBX 78 136 3 -1
BITMAP
000000000FE000000000
000000003FF800000000
000000007FFC00000000
00000000FFFE00000000
00000001FFFF00000000
00000003FFFF80000000
00000003FFFF80000000
00000003FFFFC0000000
00000007FFFFC0000000
00000007FFFFC0000000
00000007FFFFC0000000
000001FFFFFFFFFFFE00
00000FFFFFFFFFFFFF80
00007FFFFFFFFFFFFFC0
0001FFFFFFFFFFFFFFE0
0003FFFFFFFFFFFFFFF0
000FFFFFFFFFFFFFFFF8
001FFFFFFFFFFFFFFFF8
003FFFFFFFFFFFFFFFFC
007FFFFFFFFFFFFFFFFC
00FFFFFFFFFFFFFFFFFC
01FFFFFFFFFFFFFFFFFC
03FFFFFFFFFFFFFFFFFC
03FFFFFFFFFFFFFFFFFC
07FFFFFFFFFFFFFFFFFC
0FFFFFFFFFFFFFFFFFF8
0FFFFFFFFFFFFFFFFFF8
1FFFFFFFFFFFFFFFFFF0
1FFFFFFFFFFFFFFFFFE0
3FFFFFFFFFFFFFFFFFC0
3FFFFFFFFFFFFFFFFF80
3FFFFFFFFFFFFFFFFE00
7FFFFFE7FFFFC0000000
7FFFFF87FFFFC0000000
7FFFFF07FFFFC0000000
7FFFFE07FFFFC0000000
FFFFFC07FFFFC0000000
FFFFFC07FFFFC0000000
FFFFF807FFFFC0000000
FFFFF807FFFFC0000000
FFFFF807FFFFC0000000
FFFFF807FFFFC0000000
FFFFF807FFFFC0000000
FFFFF807FFFFC0000000
FFFFF807FFFFC0000000
FFFFF807FFFFC0000000
FFFFF807FFFFC0000000
FFFFF807FFFFC0000000
FFFFF807FFFFC0000000
FFFFF807FFFFC0000000
FFFFF807FFFFC0000000
FFFFFC07FFFFC0000000
FFFFFC07FFFFC0000000
7FFFFE07FFFFC0000000
7FFFFE07FFFFC0000000
7FFFFF07FFFFC0000000
7FFFFFC7FFFFC0000000
3FFFFFFFFFFFC0000000
3FFFFFFFFFFFE0000000
3FFFFFFFFFFFFF000000
1FFFFFFFFFFFFFE00000
1FFFFFFFFFFFFFF80000
0FFFFFFFFFFFFFFE0000
0FFFFFFFFFFFFFFF0000
07FFFFFFFFFFFFFFC000
03FFFFFFFFFFFFFFE000
03FFFFFFFFFFFFFFF000
01FFFFFFFFFFFFFFF800
00FFFFFFFFFFFFFFFC00
007FFFFFFFFFFFFFFE00
003FFFFFFFFFFFFFFF00
001FFFFFFFFFFFFFFF00
000FFFFFFFFFFFFFFF80
0003FFFFFFFFFFFFFFC0
0001FFFFFFFFFFFFFFC0
00007FFFFFFFFFFFFFE0
00001FFFFFFFFFFFFFE0
000003FFFFFFFFFFFFF0
0000000FFFFFFFFFFFF0
00000007FFFFDFFFFFF0
00000007FFFFC7FFFFF8
00000007FFFFC3FFFFF8
00000007FFFFC1FFFFF8
00000007FFFFC0FFFFF8
00000007FFFFC0FFFFFC
00000007FFFFC07FFFFC
00000007FFFFC07FFFFC
00000007FFFFC07FFFFC
00000007FFFFC07FFFFC
00000007FFFFC07FFFFC
00000007FFFFC07FFFFC
00000007FFFFC07FFFFC
00000007FFFFC07FFFFC
00000007FFFFC07FFFFC
00000007FFFFC07FFFFC
00000007FFFFC07FFFFC
00000007FFFFC07FFFFC
00000007FFFFC07FFFFC
00000007FFFFC0FFFFFC
00000007FFFFC0FFFFFC
00000007FFFFC1FFFFFC
00000007FFFFC3FFFFF8
00000007FFFFC7FFFFF8
00000007FFFFCFFFFFF8
00000007FFFFFFFFFFF8
01FFFFFFFFFFFFFFFFF0
07FFFFFFFFFFFFFFFFF0
1FFFFFFFFFFFFFFFFFE0
3FFFFFFFFFFFFFFFFFE0
3FFFFFFFFFFFFFFFFFC0
7FFFFFFFFFFFFFFFFFC0
7FFFFFFFFFFFFFFFFF80
FFFFFFFFFFFFFFFFFF80
FFFFFFFFFFFFFFFFFF00
FFFFFFFFFFFFFFFFFE00
FFFFFFFFFFFFFFFFFC00
FFFFFFFFFFFFFFFFF800
FFFFFFFFFFFFFFFFF000
FFFFFFFFFFFFFFFFE000
7FFFFFFFFFFFFFFFC000
7FFFFFFFFFFFFFFF8000
3FFFFFFFFFFFFFFE0000
1FFFFFFFFFFFFFFC0000
0FFFFFFFFFFFFFF00000
07FFFFFFFFFFFF800000
003FFFFFFFFFF8000000
00000007FFFFC0000000
00000007FFFFC0000000
00000007FFFFC0000000
00000003FFFF80000000
00000003FFFF80000000
00000001FFFF00000000
00000000FFFF00000000
000000007FFE00000000
000000003FF800000000
000000000FE000000000
ENDCHAR
STARTCHAR 0025
ENCODING 37
SWIDTH 895 0
DWIDTH 156 0
BBX 147 130 3 -1
BITMAP
000FFFFFFFFFFFFC0000000003F00000000000
007FFFFFFFFFFFFF800000001FFC0000000000
01FFFFFFFFFFFFFFE00000003FFF0000000000
03FFFFFFFFFFFFFFF80000007FFF8000000000
07FFFFFFFFFFFFFFFC000000FFFFC000000000
0FFFFFFFFFFFFFFFFE000001FFFFC000000000
1FFFFFFFFFFFFFFFFF000001FFFFE000000000
3FFFFFFFFFFFFFFFFF800003FFFFE000000000
3FFFFFFFFFFFFFFFFF800003FFFFF000000000
7FFFFFFFFFFFFFFFFFC00007FFFFF000000000
7FFFFFFFFFFFFFFFFFE00007FFFFF000000000
FFFFFFFFFFFFFFFFFFE0000FFFFFF000000000
FFFFFFFFFFFFFFFFFFF0001FFFFFE000000000
FFFFFFFFFFFFFFFFFFF0001FFFFFE000000000
FFFFFFFFFFFFFFFFFFF0003FFFFFE000000000
FFFFFFFFFFFFFFFFFFF8003FFFFFC000000000
FFFFFFFFFFFFFFFFFFF8007FFFFFC000000000
FFFFFFFFFFFFFFFFFFF8007FFFFF8000000000
FFFFFFFFFFFFFFFFFFFC00FFFFFF0000000000
FFFFFFFFFFFFFFFFFFFC01FFFFFF0000000000
FFFFFFFFFFFFFFFFFFFC01FFFFFE0000000000
FFFFF80007FFFFC01FFC03FFFFFE0000000000
FFFFF80007FFFFC003FC03FFFFFC0000000000
FFFFF80007FFFFC000FC07FFFFFC0000000000
FFFFF80007FFFFC0007C07FFFFF80000000000
FFFFF80007FFFFC0003C0FFFFFF00000000000
FFFFF80007FFFFC0001C1FFFFFF00000000000
FFFFF80007FFFFC0000C1FFFFFE00000000000
FFFFF80007FFFFC0000E3FFFFFE00000000000
FFFFF80007FFFFC000063FFFFFC00000000000
FFFFF80007FFFFC000067FFFFFC00000000000
FFFFF80007FFFFC000027FFFFF800000000000
FFFFF80007FFFFC00002FFFFFF000000000000
FFFFF80007FFFFC00003FFFFFF000000000000
FFFFF80007FFFFC00003FFFFFE000000000000
FFFFF80007FFFFC00003FFFFFE000000000000
FFFFF80007FFFFC00003FFFFFC000000000000
FFFFF80007FFFFC00007FFFFFC000000000000
FFFFF80007FFFFC00007FFFFF8000000000000
FFFFF80007FFFFC0000FFFFFF0000000000000
FFFFF80007FFFFC0001FFFFFF0000000000000
FFFFF80007FFFFC0001FFFFFE0000000000000
FFFFF80007FFFFC0003FFFFFE0000000000000
FFFFF80007FFFFC0003FFFFFC0000000000000
FFFFF80007FFFFC0007FFFFF80000000000000
FFFFF80007FFFFC0007FFFFF80000000000000
FFFFFFFFFFFFFFC000FFFFFF00000000000000
FFFFFFFFFFFFFFC001FFFFFF00000000000000
FFFFFFFFFFFFFFC001FFFFFE00000000000000
FFFFFFFFFFFFFFC003FFFFFE00000000000000
FFFFFFFFFFFFFFC003FFFFFC00000000000000
FFFFFFFFFFFFFFC007FFFFF800000000000000
FFFFFFFFFFFFFFC007FFFFF800000000000000
FFFFFFFFFFFFFFC00FFFFFF000000000000000
FFFFFFFFFFFFFFC01FFFFFF000000000000000
FFFFFFFFFFFFFFC01FFFFFE000000000000000
7FFFFFFFFFFFFF803FFFFFE000000000000000
7FFFFFFFFFFFFF803FFFFFC000000000000000
3FFFFFFFFFFFFF007FFFFF8000000000000000
3FFFFFFFFFFFFF007FFFFF8000000000000000
1FFFFFFFFFFFFE00FFFFFF0000000000000000
0FFFFFFFFFFFFC01FFFFFF0000000000000000
07FFFFFFFFFFF801FFFFFE0007FFFFFFFE0000
03FFFFFFFFFFF003FFFFFE003FFFFFFFFFC000
01FFFFFFFFFFE003FFFFFC00FFFFFFFFFFF000
007FFFFFFFFF8007FFFFF801FFFFFFFFFFF800
000FFFFFFFFC0007FFFFF803FFFFFFFFFFFC00
000000000000000FFFFFF007FFFFFFFFFFFE00
000000000000001FFFFFF00FFFFFFFFFFFFF00
000000000000001FFFFFE00FFFFFFFFFFFFF80
000000000000003FFFFFE01FFFFFFFFFFFFF80
000000000000003FFFFFC01FFFFFFFFFFFFFC0
000000000000007FFFFF803FFFFFFFFFFFFFC0
000000000000007FFFFF803FFFFFFFFFFFFFC0
00000000000000FFFFFF003FFFFFFFFFFFFFE0
00000000000001FFFFFF007FFFFFFFFFFFFFE0
00000000000001FFFFFE007FFFFFFFFFFFFFE0
00000000000003FFFFFE007FFFFFFFFFFFFFE0
00000000000003FFFFFC007FFFFFFFFFFFFFE0
00000000000007FFFFF8007FFFFFFFFFFFFFE0
00000000000007FFFFF8007FFFFFFFFFFFFFE0
0000000000000FFFFFF0007FFFFFFFFFFFFFE0
0000000000001FFFFFF0007FFFFFFFFFFFFFE0
0000000000001FFFFFE0007FFFFC0003FFFFE0
0000000000003FFFFFE0007FFFFC0003FFFFE0
0000000000003FFFFFC0007FFFFC0003FFFFE0
0000000000007FFFFF80007FFFFC0003FFFFE0
0000000000007FFFFF80007FFFFC0003FFFFE0
000000000000FFFFFF00007FFFFC0003FFFFE0
000000000001FFFFFF00007FFFFC0003FFFFE0
000000000001FFFFFE00007FFFFC0003FFFFE0
000000000003FFFFFE00007FFFFC0003FFFFE0
000000000003FFFFFC00007FFFFC0003FFFFE0
000000000007FFFFF800007FFFFC0003FFFFE0
000000000007FFFFF800007FFFFC0003FFFFE0
00000000000FFFFFF800007FFFFC0003FFFFE0
00000000000FFFFFF800007FFFFC0003FFFFE0
00000000001FFFFFE800007FFFFC0003FFFFE0
00000000003FFFFFE800007FFFFC0003FFFFE0
00000000003FFFFFCC00007FFFFC0003FFFFE0
00000000007FFFFF8C00007FFFFC0003FFFFE0
00000000007FFFFF8E00007FFFFC0003FFFFE0
0000000000FFFFFF0E00007FFFFC0003FFFFE0
0000000000FFFFFF0F00007FFFFC0003FFFFE0
0000000001FFFFFE0F80007FFFFC0003FFFFE0
0000000003FFFFFE0FC0007FFFFC0003FFFFE0
0000000003FFFFFC0FE0007FFFFC0003FFFFE0
0000000007FFFFF80FF8007FFFFC0003FFFFE0
0000000007FFFFF80FFF007FFFFC0003FFFFE0
000000000FFFFFF00FFFFFFFFFFFFFFFFFFFE0
000000000FFFFFF007FFFFFFFFFFFFFFFFFFE0
000000001FFFFFE007FFFFFFFFFFFFFFFFFFE0
000000003FFFFFE007FFFFFFFFFFFFFFFFFFE0
000000003FFFFFC007FFFFFFFFFFFFFFFFFFE0
000000007FFFFF8003FFFFFFFFFFFFFFFFFFE0
000000007FFFFF8003FFFFFFFFFFFFFFFFFFE0
00000000FFFFFF0003FFFFFFFFFFFFFFFFFFE0
00000000FFFFFF0001FFFFFFFFFFFFFFFFFFE0
00000000FFFFFE0001FFFFFFFFFFFFFFFFFFC0
00000000FFFFFE0000FFFFFFFFFFFFFFFFFFC0
00000000FFFFFC00007FFFFFFFFFFFFFFFFFC0
00000000FFFFF800007FFFFFFFFFFFFFFFFF80
00000000FFFFF800003FFFFFFFFFFFFFFFFF80
000000007FFFF000001FFFFFFFFFFFFFFFFF00
000000007FFFF000000FFFFFFFFFFFFFFFFE00
000000003FFFE0000007FFFFFFFFFFFFFFFC00
000000003FFFC0000003FFFFFFFFFFFFFFF800
000000001FFF80000000FFFFFFFFFFFFFFF000
0000000007FF000000003FFFFFFFFFFFFFC000
0000000001FC0000000007FFFFFFFFFFFE0000
ENDCHAR
STARTCHAR 0026
ENCODING 38
SWIDTH 528 0
DWIDTH 92 0
BBX 84 146 3 -16
BITMAP
00000001FFFFF800000000
0000003FFFFFFF80000000
000000FFFFFFFFE0000000
000003FFFFFFFFF8000000
00000FFFFFFFFFFE000000
00003FFFFFFFFFFF800000
00007FFFFFFFFFFFC00000
0000FFFFFFFFFFFFE00000
0001FFFFFFFFFFFFF00000
0003FFFFFFFFFFFFF80000
0007FFFFFFFFFFFFFC0000
000FFFFFFFFFFFFFFE0000
001FFFFFFFFFFFFFFF0000
003FFFFFFFFFFFFFFF8000
003FFFFFFFFFFFFFFF8000
007FFFFFFFFFFFFFFFC000
00FFFFFFFFFFFFFFFFE000
00FFFFFFFFFFFFFFFFE000
00FFFFFFFFFFFFFFFFF000
01FFFFFFFFFFFFFFFFF000
01FFFFFFFFFFFFFFFFF000
03FFFFFF80003FFFFFF800
03FFFFFE00000FFFFFF800
03FFFFFC000007FFFFF800
03FFFFF8000003FFFFF800
07FFFFF0000001FFFFFC00
07FFFFE0000000FFFFFC00
07FFFFE0000000FFFFFC00
07FFFFC00000007FFFFC00
07FFFFC00000007FFFFC00
07FFFFC00000007FFFFC00
07FFFFC00000007FFFFC00
07FFFFC00000007FFFFC00
07FFFFC00000007FFFFC00
07FFFFC00000007FFFFC00
07FFFFC00000007FFFFC00
07FFFFC00000007FFFFC00
07FFFFC00000007FFFFC00
07FFFFC00000007FFFFC00
07FFFFC00000007FFFFC00
07FFFFC00000007FFFFC00
07FFFFC00000007FFFFC00
07FFFFC00000007FFFFC00
07FFFFC00000007FFFFC00
07FFFFC00000007FFFFC00
07FFFFE0000000FFFFFC00
07FFFFE0000000FFFFFC00
03FFFFF0000001FFFFFC00
03FFFFF0000003FFFFF800
03FFFFF8000007FFFFF800
03FFFFFE00000FFFFFF800
01FFFFFF80003FFFFFF800
01FFFFFFFFFFFFFFFFF000
01FFFFFFFFFFFFFFFFF000
00FFFFFFFFFFFFFFFFE000
00FFFFFFFFFFFFFFFFE000
007FFFFFFFFFFFFFFFC000
003FFFFFFFFFFFFFFFC000
003FFFFFFFFFFFFFFF8000
001FFFFFFFFFFFFFFF8000
003FFFFFFFFFFFFFFF0000
007FFFFFFFFFFFFFFE0000
00FFFFFFFFFFFFFFFC0000
01FFFFFFFFFFFFFFF80000
03FFFFFFFFFFFFFFF00000
07FFFFFFFFFFFFFFE00000
07FFFFFFFFFFFFFFC00000
0FFFFFFFFFFFFFFF800000
0FFFFFFFFFFFFFFE000000
1FFFFFFFFFFFFFFC000000
1FFFFFFFFFFFFFF0000000
3FFFFFFFFFFFFF80000000
3FFFFFFFFFFFF800000000
7FFFFFF000000000000000
7FFFFFC000000000000000
7FFFFF8000000000000000
7FFFFF0000000000000000
FFFFFE0000000000000000
FFFFFC0000000000000000
FFFFFC0000000000000000
FFFFF80000000000000000
FFFFF80000000000000000
FFFFF80000000000000000
FFFFF8000000000003F800
FFFFF800000000000FFE00
FFFFF800000000001FFF00
FFFFF800000000003FFF80
FFFFF800000000007FFFC0
FFFFF80000000000FFFFE0
FFFFF80000000000FFFFE0
FFFFF80000000001FFFFF0
FFFFF80000000001FFFFF0
FFFFF80000000001FFFFF0
FFFFF80000000001FFFFF0
FFFFF80000000001FFFFF0
FFFFF80000000001FFFFF0
FFFFF80000000001FFFFF0
FFFFF80000000001FFFFF0
FFFFF80000000001FFFFF0
FFFFF80000000001FFFFF0
FFFFF80000000001FFFFF0
FFFFF80000000001FFFFF0
FFFFFC0000000003FFFFF0
FFFFFC0000000003FFFFF0
FFFFFE0000000007FFFFF0
7FFFFE000000000FFFFFF0
7FFFFF800000001FFFFFF0
7FFFFFC00000003FFFFFF0
7FFFFFF0000000FFFFFFF0
3FFFFFFFFFFFFFFFFFFFF0
3FFFFFFFFFFFFFFFFFFFF0
1FFFFFFFFFFFFFFFFFFFF0
1FFFFFFFFFFFFFFFFFFFF0
1FFFFFFFFFFFFFFFFFFFF0
0FFFFFFFFFFFFFFFFFFFF0
07FFFFFFFFFFFFFFFFFFF0
07FFFFFFFFFFFFFFFFFFF0
03FFFFFFFFFFFFFFFFFFF0
01FFFFFFFFFFFFFFFFFFF0
00FFFFFFFFFFFFFFFFFFF0
007FFFFFFFFFFFFFFFFFF0
003FFFFFFFFFFFFFFFFFF0
001FFFFFFFFFFFFFFFFFF0
000FFFFFFFFFFFFFFFFFF0
0007FFFFFFFFFFFFFFFFF0
0001FFFFFFFFFFFFFFFFF0
00007FFFFFFFFFFFFFFFF0
00001FFFFFFFFFFFFFFFF0
000007FFFFFFFFFDFFFFF0
0000003FFFFFFFC1FFFFF0
0000000000000001FFFFF0
0000000000000001FFFFF0
0000000000000001FFFFF0
0000000000000001FFFFF0
0000000000000001FFFFF0
0000000000000001FFFFF0
0000000000000001FFFFF0
0000000000000001FFFFF0
0000000000000001FFFFF0
0000000000000000FFFFE0
0000000000000000FFFFE0
00000000000000007FFFC0
00000000000000003FFF80
00000000000000001FFF00
00000000000000000FFE00
000000000000000003F800
ENDCHAR
STARTCHAR 0027
ENCODING 39
SWIDTH 172 0
DWIDTH 30 0
BBX 21 36 3 93
BITMAP
01FC00
07FF00
0FFF80
1FFFC0
3FFFE0
7FFFF0
7FFFF0
FFFFF8
FFFFF8
FFFFF8
FFFFF8
FFFFF8
FFFFF8
FFFFF8
FFFFF8
FFFFF8
FFFFF8
FFFFF8
FFFFF8
FFFFF8
FFFFF8
FFFFF8
FFFFF8
FFFFF8
FFFFF8
FFFFF8
FFFFF8
FFFFF8
FFFFF8
7FFFF0
7FFFF0
3FFFE0
3FFFE0
0FFFC0
07FF00
01FC00
ENDCHAR
STARTCHAR 0028
ENCODING 40
SWIDTH 286 0
DWIDTH 50 0
BBX 41 167 3 -16
BITMAP
0000007F8000
000007FFF000
00003FFFF800
0000FFFFFC00
0001FFFFFE00
0007FFFFFF00
000FFFFFFF00
001FFFFFFF00
003FFFFFFF80
007FFFFFFF80
00FFFFFFFF80
01FFFFFFFF80
03FFFFFFFF00
07FFFFFFFF00
07FFFFFFFF00
0FFFFFFFFE00
0FFFFFFFFE00
1FFFFFFFFC00
1FFFFFFFF800
3FFFFFFFE000
3FFFFFFE0000
7FFFFFE00000
7FFFFF800000
7FFFFF000000
7FFFFE000000
FFFFFE000000
FFFFFC000000
FFFFFC000000
FFFFF8000000
FFFFF8000000
FFFFF8000000
FFFFF8000000
FFFFF8000000
FFFFF8000000
FFFFF8000000
FFFFF8000000
FFFFF8000000
FFFFF8000000
FFFFF8000000
FFFFF8000000
FFFFF8000000
FFFFF8000000
FFFFF8000000
FFFFF8000000
FFFFF8000000
FFFFF8000000
FFFFF8000000
FFFFF8000000
FFFFF8000000
FFFFF8000000
FFFFF8000000
FFFFF8000000
FFFFF8000000
FFFFF8000000
FFFFF8000000
FFFFF8000000
FFFFF8000000
FFFFF8000000
FFFFF8000000
FFFFF8000000
FFFFF8000000
FFFFF8000000
FFFFF8000000
FFFFF8000000
FFFFF8000000
FFFFF8000000
FFFFF8000000
FFFFF8000000
FFFFF8000000
FFFFF8000000
FFFFF8000000
FFFFF8000000
FFFFF8000000
FFFFF8000000
FFFFF8000000
FFFFF8000000
FFFFF8000000
FFFFF8000000
FFFFF8000000
FFFFF8000000
FFFFF8000000
FFFFF8000000
FFFFF8000000
FFFFF8000000
FFFFF8000000
FFFFF8000000
FFFFF8000000
FFFFF8000000
FFFFF8000000
FFFFF8000000
FFFFF8000000
FFFFF8000000
FFFFF8000000
FFFFF8000000
FFFFF8000000
FFFFF8000000
FFFFF8000000
FFFFF8000000
FFFFF8000000
FFFFF8000000
FFFFF8000000
FFFFF8000000
FFFFF8000000
FFFFF8000000
FFFFF8000000
FFFFF8000000
FFFFF8000000
FFFFF8000000
FFFFF8000000
FFFFF8000000
FFFFF8000000
FFFFF8000000
FFFFF8000000
FFFFF8000000
FFFFF8000000
FFFFF8000000
FFFFF8000000
FFFFF8000000
FFFFF8000000
FFFFF8000000
FFFFF8000000
FFFFF8000000
FFFFF8000000
FFFFF8000000
FFFFF8000000
FFFFF8000000
FFFFF8000000
FFFFF8000000
FFFFF8000000
FFFFF8000000
FFFFF8000000
FFFFF8000000
FFFFF8000000
FFFFF8000000
FFFFF8000000
FFFFF8000000
FFFFF8000000
FFFFF8000000
FFFFF8000000
FFFFFC000000
FFFFFC000000
7FFFFE000000
7FFFFE000000
7FFFFF000000
7FFFFFC00000
3FFFFFF00000
3FFFFFFF0000
3FFFFFFFE000
1FFFFFFFF800
1FFFFFFFFC00
0FFFFFFFFE00
0FFFFFFFFE00
07FFFFFFFF00
03FFFFFFFF00
03FFFFFFFF80
01FFFFFFFF80
00FFFFFFFF80
007FFFFFFF80
003FFFFFFF80
001FFFFFFF00
000FFFFFFF00
0007FFFFFF00
0001FFFFFE00
0000FFFFFC00
00003FFFF800
000007FFF000
0000007FC000
ENDCHAR
STARTCHAR 0029
ENCODING 41
SWIDTH 286 0
DWIDTH 50 0
BBX 41 167 3 -16
BITMAP
01FF00000000
07FFF0000000
0FFFFE000000
1FFFFF800000
3FFFFFC00000
7FFFFFF00000
7FFFFFF80000
FFFFFFFC0000
FFFFFFFE0000
FFFFFFFF0000
FFFFFFFF8000
FFFFFFFFC000
FFFFFFFFE000
FFFFFFFFF000
7FFFFFFFF000
7FFFFFFFF800
3FFFFFFFF800
1FFFFFFFFC00
0FFFFFFFFC00
03FFFFFFFE00
007FFFFFFE00
0003FFFFFF00
0000FFFFFF00
00007FFFFF00
00003FFFFF00
00003FFFFF80
00001FFFFF80
00001FFFFF80
00000FFFFF80
00000FFFFF80
00000FFFFF80
00000FFFFF80
00000FFFFF80
00000FFFFF80
00000FFFFF80
00000FFFFF80
00000FFFFF80
00000FFFFF80
00000FFFFF80
00000FFFFF80
00000FFFFF80
00000FFFFF80
00000FFFFF80
00000FFFFF80
00000FFFFF80
00000FFFFF80
00000FFFFF80
00000FFFFF80
00000FFFFF80
00000FFFFF80
00000FFFFF80
00000FFFFF80
00000FFFFF80
00000FFFFF80
00000FFFFF80
00000FFFFF80
00000FFFFF80
00000FFFFF80
00000FFFFF80
00000FFFFF80
00000FFFFF80
00000FFFFF80
00000FFFFF80
00000FFFFF80
00000FFFFF80
00000FFFFF80
00000FFFFF80
00000FFFFF80
00000FFFFF80
00000FFFFF80
00000FFFFF80
00000FFFFF80
00000FFFFF80
00000FFFFF80
00000FFFFF80
00000FFFFF80
00000FFFFF80
00000FFFFF80
00000FFFFF80
00000FFFFF80
00000FFFFF80
00000FFFFF80
00000FFFFF80
00000FFFFF80
00000FFFFF80
00000FFFFF80
00000FFFFF80
00000FFFFF80
00000FFFFF80
00000FFFFF80
00000FFFFF80
00000FFFFF80
00000FFFFF80
00000FFFFF80
00000FFFFF80
00000FFFFF80
00000FFFFF80
00000FFFFF80
00000FFFFF80
00000FFFFF80
00000FFFFF80
00000FFFFF80
00000FFFFF80
00000FFFFF80
00000FFFFF80
00000FFFFF80
00000FFFFF80
00000FFFFF80
00000FFFFF80
00000FFFFF80
00000FFFFF80
00000FFFFF80
00000FFFFF80
00000FFFFF80
00000FFFFF80
00000FFFFF80
00000FFFFF80
00000FFFFF80
00000FFFFF80
00000FFFFF80
00000FFFFF80
00000FFFFF80
00000FFFFF80
00000FFFFF80
00000FFFFF80
00000FFFFF80
00000FFFFF80
00000FFFFF80
00000FFFFF80
00000FFFFF80
00000FFFFF80
00000FFFFF80
00000FFFFF80
00000FFFFF80
00000FFFFF80
00000FFFFF80
00000FFFFF80
00000FFFFF80
00000FFFFF80
00001FFFFF80
00001FFFFF80
00003FFFFF00
00007FFFFF00
00007FFFFF00
0001FFFFFF00
0007FFFFFE00
00FFFFFFFE00
07FFFFFFFE00
0FFFFFFFFC00
1FFFFFFFFC00
3FFFFFFFF800
7FFFFFFFF800
7FFFFFFFF000
FFFFFFFFE000
FFFFFFFFE000
FFFFFFFFC000
FFFFFFFF8000
FFFFFFFF0000
FFFFFFFE0000
FFFFFFFC0000
7FFFFFF80000
7FFFFFF00000
3FFFFFC00000
3FFFFF800000
1FFFFE000000
07FFF0000000
01FF00000000
ENDCHAR
STARTCHAR 002A
ENCODING 42
SWIDTH 413 0
DWIDTH 72 0
BBX 63 61 3 69
BITMAP
0000000200000000
0000000200000000
0000000700000000
0000000780000000
0000000780000000
0000000FC0000000
0000000FC0000000
0000001FE0000000
0000001FE0000000
0000003FF0000000
0000003FF0000000
0000003FF8000000
0000007FFC000000
0000007FFC000000
000000FFFE000000
000000FFFE000000
000001FFFF000000
000001FFFF000000
000003FFFF800000
000003FFFFF00000
00000FFFFFFFFC00
0001FFFFFFFFFFFE
003FFFFFFFFFFFFC
07FFFFFFFFFFFFFC
FFFFFFFFFFFFFFF8
7FFFFFFFFFFFFFF0
3FFFFFFFFFFFFFE0
0FFFFFFFFFFFFFC0
07FFFFFFFFFFFF80
03FFFFFFFFFFFF00
01FFFFFFFFFFFE00
00FFFFFFFFFFFC00
007FFFFFFFFFF800
003FFFFFFFFFF000
001FFFFFFFFFE000
000FFFFFFFFFC000
0003FFFFFFFF8000
0001FFFFFFFF0000
0000FFFFFFFF8000
0000FFFFFFFF8000
0000FFFFFFFF8000
0000FFFFFFFF8000
0000FFFFFFFF8000
0000FFFFFFFFC000
0000FFFFFFFFC000
0000FFFFFFFFC000
0000FFFFFFFFC000
0001FFFFFFFFC000
0001FFFFFFFFE000
0001FFFFFFFFE000
0001FFFF1FFFE000
0001FFFC07FFE000
0001FFF001FFF000
0001FFE0007FF000
0001FF80001FF000
0003FE000003F000
0003F8000000F000
0003F00000003800
0003C00000000800
0003000000000000
0002000000000000
ENDCHAR
STARTCHAR 002B
ENCODING 43
SWIDTH 591 0
DWIDTH 103 0
BBX 94 94 3 21
BITMAP
00000000000FE00000000000
00000000003FF80000000000
00000000007FFC0000000000
0000000000FFFE0000000000
0000000001FFFF0000000000
0000000003FFFF8000000000
0000000003FFFF8000000000
0000000007FFFFC000000000
0000000007FFFFC000000000
0000000007FFFFC000000000
0000000007FFFFC000000000
0000000007FFFFC000000000
0000000007FFFFC000000000
0000000007FFFFC000000000
0000000007FFFFC000000000
0000000007FFFFC000000000
0000000007FFFFC000000000
0000000007FFFFC000000000
0000000007FFFFC000000000
0000000007FFFFC000000000
0000000007FFFFC000000000
0000000007FFFFC000000000
0000000007FFFFC000000000
0000000007FFFFC000000000
0000000007FFFFC000000000
0000000007FFFFC000000000
0000000007FFFFC000000000
0000000007FFFFC000000000
0000000007FFFFC000000000
0000000007FFFFC000000000
0000000007FFFFC000000000
0000000007FFFFC000000000
0000000007FFFFC000000000
0000000007FFFFC000000000
0000000007FFFFC000000000
0000000007FFFFC000000000
0000000007FFFFC000000000
01FFFFFFFFFFFFFFFFFFFE00
07FFFFFFFFFFFFFFFFFFFF80
0FFFFFFFFFFFFFFFFFFFFFC0
1FFFFFFFFFFFFFFFFFFFFFE0
3FFFFFFFFFFFFFFFFFFFFFF0
7FFFFFFFFFFFFFFFFFFFFFF8
7FFFFFFFFFFFFFFFFFFFFFF8
FFFFFFFFFFFFFFFFFFFFFFFC
FFFFFFFFFFFFFFFFFFFFFFFC
FFFFFFFFFFFFFFFFFFFFFFFC
FFFFFFFFFFFFFFFFFFFFFFFC
FFFFFFFFFFFFFFFFFFFFFFFC
FFFFFFFFFFFFFFFFFFFFFFFC
FFFFFFFFFFFFFFFFFFFFFFFC
7FFFFFFFFFFFFFFFFFFFFFF8
7FFFFFFFFFFFFFFFFFFFFFF8
3FFFFFFFFFFFFFFFFFFFFFF0
1FFFFFFFFFFFFFFFFFFFFFE0
0FFFFFFFFFFFFFFFFFFFFFC0
07FFFFFFFFFFFFFFFFFFFF80
01FFFFFFFFFFFFFFFFFFFE00
0000000007FFFFC000000000
0000000007FFFFC000000000
0000000007FFFFC000000000
0000000007FFFFC000000000
0000000007FFFFC000000000
0000000007FFFFC000000000
0000000007FFFFC000000000
0000000007FFFFC000000000
0000000007FFFFC000000000
0000000007FFFFC000000000
0000000007FFFFC000000000
0000000007FFFFC000000000
0000000007FFFFC000000000
0000000007FFFFC000000000
0000000007FFFFC000000000
0000000007FFFFC000000000
0000000007FFFFC000000000
0000000007FFFFC000000000
0000000007FFFFC000000000
0000000007FFFFC000000000
0000000007FFFFC000000000
0000000007FFFFC000000000
0000000007FFFFC000000000
0000000007FFFFC000000000
0000000007FFFFC000000000
0000000007FFFFC000000000
0000000007FFFFC000000000
0000000007FFFFC000000000
0000000007FFFFC000000000
0000000003FFFF8000000000
0000000003FFFF8000000000
0000000001FFFF0000000000
0000000001FFFF0000000000
00000000007FFE0000000000
00000000003FF80000000000
00000000000FE00000000000
ENDCHAR
STARTCHAR 002C
ENCODING 44
SWIDTH 200 0
DWIDTH 35 0
BBX 33 47 -5 -27
BITMAP
00001FC000
00007FF000
0000FFF800
0001FFFC00
0003FFFE00
0007FFFF00
0007FFFF00
000FFFFF80
000FFFFF80
000FFFFF80
000FFFFF80
000FFFFF80
000FFFFF80
000FFFFF80
000FFFFF80
000FFFFF80
000FFFFF80
000FFFFF80
000FFFFF80
000FFFFF80
000FFFFF80
000FFFFF80
000FFFFF80
000FFFFF80
000FFFFF80
000FFFFF80
000FFFFF80
000FFFFF80
000FFFFF80
000FFFFF80
000FFFFF80
000FFFFF00
000FFFFF00
000FFFFF00
000FFFFE00
001FFFFC00
001FFFFC00
001FFFF800
003FFFF000
003FFFE000
007FFFC000
00FFFF8000
01FFFE0000
03FFF80000
07FFE00000
1FFF800000
FFF8000000
ENDCHAR
STARTCHAR 002D
ENCODING 45
SWIDTH 499 0
DWIDTH 87 0
BBX 78 21 3 57
BITMAP
01FFFFFFFFFFFFFFFE00
07FFFFFFFFFFFFFFFF80
0FFFFFFFFFFFFFFFFFE0
1FFFFFFFFFFFFFFFFFF0
3FFFFFFFFFFFFFFFFFF0
7FFFFFFFFFFFFFFFFFF8
7FFFFFFFFFFFFFFFFFFC
FFFFFFFFFFFFFFFFFFFC
FFFFFFFFFFFFFFFFFFFC
FFFFFFFFFFFFFFFFFFFC
FFFFFFFFFFFFFFFFFFFC
FFFFFFFFFFFFFFFFFFFC
FFFFFFFFFFFFFFFFFFFC
FFFFFFFFFFFFFFFFFFFC
7FFFFFFFFFFFFFFFFFFC
7FFFFFFFFFFFFFFFFFF8
3FFFFFFFFFFFFFFFFFF0
1FFFFFFFFFFFFFFFFFF0
0FFFFFFFFFFFFFFFFFE0
07FFFFFFFFFFFFFFFF80
01FFFFFFFFFFFFFFFE00
ENDCHAR
STARTCHAR 002E
ENCODING 46
SWIDTH 172 0
DWIDTH 30 0
BBX 21 21 3 -1
BITMAP
01FC00
07FF00
0FFF80
1FFFC0
3FFFE0
7FFFF0
7FFFF0
FFFFF8
FFFFF8
FFFFF8
FFFFF8
FFFFF8
FFFFF8
FFFFF8
7FFFF0
7FFFF0
3FFFE0
1FFFC0
0FFF80
07FF00
01FC00
ENDCHAR
STARTCHAR 002F
ENCODING 47
SWIDTH 533 0
DWIDTH 93 0
BBX 84 130 3 -1
BITMAP
000000000000000003F800
00000000000000000FFE00
00000000000000003FFF00
00000000000000007FFF80
0000000000000000FFFFC0
0000000000000000FFFFE0
0000000000000001FFFFE0
0000000000000001FFFFE0
0000000000000003FFFFF0
0000000000000007FFFFF0
0000000000000007FFFFF0
000000000000000FFFFFF0
000000000000000FFFFFF0
000000000000001FFFFFE0
000000000000001FFFFFE0
000000000000003FFFFFC0
000000000000007FFFFFC0
000000000000007FFFFF80
00000000000000FFFFFF00
00000000000000FFFFFF00
00000000000001FFFFFE00
00000000000001FFFFFE00
00000000000003FFFFFC00
00000000000007FFFFFC00
00000000000007FFFFF800
0000000000000FFFFFF000
0000000000000FFFFFF000
0000000000001FFFFFE000
0000000000001FFFFFE000
0000000000003FFFFFC000
0000000000007FFFFFC000
0000000000007FFFFF8000
000000000000FFFFFF0000
000000000000FFFFFF0000
000000000001FFFFFE0000
000000000001FFFFFE0000
000000000003FFFFFC0000
000000000007FFFFFC0000
000000000007FFFFF80000
00000000000FFFFFF00000
00000000000FFFFFF00000
00000000001FFFFFE00000
00000000001FFFFFE00000
00000000003FFFFFC00000
00000000007FFFFFC00000
00000000007FFFFF800000
0000000000FFFFFF000000
0000000000FFFFFF000000
0000000001FFFFFE000000
0000000001FFFFFE000000
0000000003FFFFFC000000
0000000007FFFFFC000000
0000000007FFFFF8000000
000000000FFFFFF0000000
000000000FFFFFF0000000
000000001FFFFFE0000000
000000001FFFFFE0000000
000000003FFFFFC0000000
000000007FFFFFC0000000
000000007FFFFF80000000
00000000FFFFFF00000000
00000000FFFFFF00000000
00000001FFFFFE00000000
00000001FFFFFE00000000
00000003FFFFFC00000000
00000007FFFFFC00000000
00000007FFFFF800000000
0000000FFFFFF000000000
0000000FFFFFF000000000
0000001FFFFFE000000000
0000001FFFFFE000000000
0000003FFFFFC000000000
0000007FFFFFC000000000
0000007FFFFF8000000000
000000FFFFFF0000000000
000000FFFFFF0000000000
000001FFFFFE0000000000
000001FFFFFE0000000000
000003FFFFFC0000000000
000007FFFFFC0000000000
000007FFFFF80000000000
00000FFFFFF00000000000
00000FFFFFF00000000000
00001FFFFFE00000000000
00001FFFFFE00000000000
00003FFFFFC00000000000
00007FFFFFC00000000000
00007FFFFF800000000000
0000FFFFFF000000000000
0000FFFFFF000000000000
0001FFFFFE000000000000
0001FFFFFE000000000000
0003FFFFFC000000000000
0007FFFFFC000000000000
0007FFFFF8000000000000
000FFFFFF0000000000000
000FFFFFF0000000000000
001FFFFFE0000000000000
001FFFFFE0000000000000
003FFFFFC0000000000000
007FFFFFC0000000000000
007FFFFF80000000000000
00FFFFFF00000000000000
00FFFFFF00000000000000
01FFFFFE00000000000000
01FFFFFE00000000000000
03FFFFFC00000000000000
07FFFFFC00000000000000
07FFFFF800000000000000
0FFFFFF000000000000000
0FFFFFF000000000000000
1FFFFFE000000000000000
1FFFFFE000000000000000
3FFFFFC000000000000000
7FFFFFC000000000000000
7FFFFF8000000000000000
FFFFFF0000000000000000
FFFFFF0000000000000000
FFFFFE0000000000000000
FFFFFE0000000000000000
FFFFFC0000000000000000
FFFFFC0000000000000000
FFFFF80000000000000000
7FFFF00000000000000000
7FFFF00000000000000000
3FFFE00000000000000000
1FFFC00000000000000000
0FFF800000000000000000
07FF000000000000000000
01FC000000000000000000
ENDCHAR
STARTCHAR 0030
ENCODING 48
SWIDTH 528 0
DWIDTH 92 0
BBX 84 131 3 -1
BITMAP
0000003FFFFFFFC0000000
000007FFFFFFFFFC000000
00001FFFFFFFFFFF800000
00007FFFFFFFFFFFE00000
0001FFFFFFFFFFFFF80000
0007FFFFFFFFFFFFFC0000
000FFFFFFFFFFFFFFF0000
001FFFFFFFFFFFFFFF8000
003FFFFFFFFFFFFFFFC000
007FFFFFFFFFFFFFFFE000
00FFFFFFFFFFFFFFFFF000
01FFFFFFFFFFFFFFFFF800
03FFFFFFFFFFFFFFFFFC00
07FFFFFFFFFFFFFFFFFE00
07FFFFFFFFFFFFFFFFFE00
0FFFFFFFFFFFFFFFFFFF00
0FFFFFFFFFFFFFFFFFFF00
1FFFFFFFFFFFFFFFFFFF80
1FFFFFFFFFFFFFFFFFFF80
3FFFFFFFFFFFFFFFFFFFC0
3FFFFFFFFFFFFFFFFFFFC0
7FFFFFF0000000FFFFFFC0
7FFFFFC00000003FFFFFE0
7FFFFF800000001FFFFFE0
7FFFFF000000000FFFFFE0
FFFFFE0000000007FFFFE0
FFFFFC0000000003FFFFF0
FFFFFC0000000003FFFFF0
FFFFF80000000001FFFFF0
FFFFF80000000001FFFFF0
FFFFF80000000001FFFFF0
FFFFF80000000001FFFFF0
FFFFF80000000001FFFFF0
FFFFF80000000001FFFFF0
FFFFF80000000001FFFFF0
FFFFF80000000001FFFFF0
FFFFF80000000001FFFFF0
FFFFF80000000001FFFFF0
FFFFF80000000001FFFFF0
FFFFF80000000001FFFFF0
FFFFF80000000001FFFFF0
FFFFF80000000001FFFFF0
FFFFF80000000001FFFFF0
FFFFF80000000001FFFFF0
FFFFF80000000001FFFFF0
FFFFF80000000001FFFFF0
FFFFF80000000001FFFFF0
FFFFF80000000001FFFFF0
FFFFF80000000001FFFFF0
FFFFF80000000001FFFFF0
FFFFF80000000001FFFFF0
FFFFF80000000001FFFFF0
FFFFF80000000001FFFFF0
FFFFF80000000001FFFFF0
FFFFF80000000001FFFFF0
FFFFF80000000001FFFFF0
FFFFF80000000001FFFFF0
FFFFF80000000001FFFFF0
FFFFF80000000001FFFFF0
FFFFF80000000001FFFFF0
FFFFF80000000001FFFFF0
FFFFF80000000001FFFFF0
FFFFF80000000001FFFFF0
FFFFF80000000001FFFFF0
FFFFF80000000001FFFFF0
FFFFF80000000001FFFFF0
FFFFF80000000001FFFFF0
FFFFF80000000001FFFFF0
FFFFF80000000001FFFFF0
FFFFF80000000001FFFFF0
FFFFF80000000001FFFFF0
FFFFF80000000001FFFFF0
FFFFF80000000001FFFFF0
FFFFF80000000001FFFFF0
FFFFF80000000001FFFFF0
FFFFF80000000001FFFFF0
FFFFF80000000001FFFFF0
FFFFF80000000001FFFFF0
FFFFF80000000001FFFFF0
FFFFF80000000001FFFFF0
FFFFF80000000001FFFFF0
FFFFF80000000001FFFFF0
FFFFF80000000001FFFFF0
FFFFF80000000001FFFFF0
FFFFF80000000001FFFFF0
FFFFF80000000001FFFFF0
FFFFF80000000001FFFFF0
FFFFF80000000001FFFFF0
FFFFF80000000001FFFFF0
FFFFF80000000001FFFFF0
FFFFF80000000001FFFFF0
FFFFF80000000001FFFFF0
FFFFF80000000001FFFFF0
FFFFF80000000001FFFFF0
FFFFF80000000001FFFFF0
FFFFF80000000001FFFFF0
FFFFF80000000001FFFFF0
FFFFF80000000001FFFFF0
FFFFF80000000001FFFFF0
FFFFF80000000001FFFFF0
FFFFF80000000001FFFFF0
FFFFF80000000001FFFFF0
FFFFF80000000001FFFFF0
FFFFFC0000000003FFFFF0
FFFFFC0000000003FFFFF0
FFFFFE0000000007FFFFF0
7FFFFF000000000FFFFFE0
7FFFFF800000001FFFFFE0
7FFFFFC00000003FFFFFE0
7FFFFFF0000000FFFFFFE0
3FFFFFFFFFFFFFFFFFFFC0
3FFFFFFFFFFFFFFFFFFFC0
1FFFFFFFFFFFFFFFFFFFC0
1FFFFFFFFFFFFFFFFFFF80
0FFFFFFFFFFFFFFFFFFF80
0FFFFFFFFFFFFFFFFFFF00
07FFFFFFFFFFFFFFFFFF00
07FFFFFFFFFFFFFFFFFE00
03FFFFFFFFFFFFFFFFFC00
01FFFFFFFFFFFFFFFFFC00
00FFFFFFFFFFFFFFFFF800
007FFFFFFFFFFFFFFFF000
003FFFFFFFFFFFFFFFE000
001FFFFFFFFFFFFFFF8000
000FFFFFFFFFFFFFFF0000
0007FFFFFFFFFFFFFE0000
0001FFFFFFFFFFFFF80000
00007FFFFFFFFFFFE00000
00001FFFFFFFFFFF000000
000007FFFFFFFFF8000000
0000003FFFFFFF00000000
ENDCHAR
STARTCHAR 0031
ENCODING 49
SWIDTH 344 0
DWIDTH 60 0
BBX 52 132 3 -2
BITMAP
000003F8000000
00000FFE000000
00001FFF000000
00003FFF800000
00007FFFC00000
0000FFFFE00000
0000FFFFE00000
0001FFFFF00000
0001FFFFF00000
0001FFFFF00000
0001FFFFF00000
0001FFFFF00000
0001FFFFF00000
0001FFFFF00000
0001FFFFF00000
0001FFFFF00000
0001FFFFF00000
0001FFFFF00000
0001FFFFF00000
0001FFFFF00000
0001FFFFF00000
0001FFFFF00000
0001FFFFF00000
0001FFFFF00000
0001FFFFF00000
0001FFFFF00000
0001FFFFF00000
0001FFFFF00000
0001FFFFF00000
0001FFFFF00000
0001FFFFF00000
0001FFFFF00000
0001FFFFF00000
0001FFFFF00000
0001FFFFF00000
0001FFFFF00000
0001FFFFF00000
0001FFFFF00000
0001FFFFF00000
0001FFFFF00000
0001FFFFF00000
0001FFFFF00000
0001FFFFF00000
0001FFFFF00000
0001FFFFF00000
0001FFFFF00000
0001FFFFF00000
0001FFFFF00000
0001FFFFF00000
0001FFFFF00000
0001FFFFF00000
0001FFFFF00000
0001FFFFF00000
0001FFFFF00000
0001FFFFF00000
0001FFFFF00000
0001FFFFF00000
0001FFFFF00000
0001FFFFF00000
0001FFFFF00000
0001FFFFF00000
0001FFFFF00000
0001FFFFF00000
0001FFFFF00000
0001FFFFF00000
0001FFFFF00000
0001FFFFF00000
0001FFFFF00000
0001FFFFF00000
0001FFFFF00000
0001FFFFF00000
0001FFFFF00000
0001FFFFF00000
0001FFFFF00000
0001FFFFF00000
0001FFFFF00000
0001FFFFF00000
0001FFFFF00000
0001FFFFF00000
0001FFFFF00000
0001FFFFF00000
0001FFFFF00000
0001FFFFF00000
0001FFFFF00000
0001FFFFF00000
0001FFFFF00000
0001FFFFF00000
0001FFFFF00000
0001FFFFF00000
0001FFFFF00000
0001FFFFF00000
0001FFFFF00000
0001FFFFF00000
0001FFFFF00000
0001FFFFF00000
0001FFFFF00000
0001FFFFF00000
0001FFFFF00000
0001FFFFF00000
0001FFFFF00000
0001FFFFF00000
0001FFFFF00000
0001FFFFF00000
0001FFFFF00000
0001FFFFF00000
0001FFFFF00000
0001FFFFF00000
0001FFFFF00000
0001FFFFF00000
0001FFFFF00000
0001FFFFF00000
01FFFFFFFFF800
07FFFFFFFFFE00
0FFFFFFFFFFF00
1FFFFFFFFFFF80
3FFFFFFFFFFFC0
7FFFFFFFFFFFE0
7FFFFFFFFFFFE0
FFFFFFFFFFFFF0
FFFFFFFFFFFFF0
FFFFFFFFFFFFF0
FFFFFFFFFFFFF0
FFFFFFFFFFFFF0
FFFFFFFFFFFFF0
FFFFFFFFFFFFF0
7FFFFFFFFFFFE0
7FFFFFFFFFFFE0
3FFFFFFFFFFFC0
1FFFFFFFFFFF80
0FFFFFFFFFFF00
07FFFFFFFFFE00
01FFFFFFFFF800
ENDCHAR
STARTCHAR 0032
ENCODING 50
SWIDTH 499 0
DWIDTH 87 0
BBX 78 131 3 -1
BITMAP
01FFFFFFFFFFF8000000
07FFFFFFFFFFFF800000
0FFFFFFFFFFFFFE00000
1FFFFFFFFFFFFFF80000
3FFFFFFFFFFFFFFE0000
7FFFFFFFFFFFFFFF8000
7FFFFFFFFFFFFFFFC000
FFFFFFFFFFFFFFFFE000
FFFFFFFFFFFFFFFFF000
FFFFFFFFFFFFFFFFF800
FFFFFFFFFFFFFFFFFC00
FFFFFFFFFFFFFFFFFE00
FFFFFFFFFFFFFFFFFF00
FFFFFFFFFFFFFFFFFF00
7FFFFFFFFFFFFFFFFF80
7FFFFFFFFFFFFFFFFFC0
3FFFFFFFFFFFFFFFFFC0
1FFFFFFFFFFFFFFFFFE0
0FFFFFFFFFFFFFFFFFE0
07FFFFFFFFFFFFFFFFF0
01FFFFFFFFFFFFFFFFF0
0000000000003FFFFFF0
0000000000000FFFFFF8
00000000000007FFFFF8
00000000000003FFFFF8
00000000000001FFFFF8
00000000000000FFFFFC
00000000000000FFFFFC
000000000000007FFFFC
000000000000007FFFFC
000000000000007FFFFC
000000000000007FFFFC
000000000000007FFFFC
000000000000007FFFFC
000000000000007FFFFC
000000000000007FFFFC
000000000000007FFFFC
000000000000007FFFFC
000000000000007FFFFC
000000000000007FFFFC
000000000000007FFFFC
000000000000007FFFFC
000000000000007FFFFC
000000000000007FFFFC
000000000000007FFFFC
000000000000007FFFFC
00000000000000FFFFFC
00000000000000FFFFFC
00000000000001FFFFF8
00000000000003FFFFF8
00000000000007FFFFF8
0000000000000FFFFFF8
0000000000003FFFFFF8
0000007FFFFFFFFFFFF0
000007FFFFFFFFFFFFF0
00001FFFFFFFFFFFFFE0
0000FFFFFFFFFFFFFFE0
0001FFFFFFFFFFFFFFC0
0007FFFFFFFFFFFFFFC0
000FFFFFFFFFFFFFFF80
001FFFFFFFFFFFFFFF80
003FFFFFFFFFFFFFFF00
007FFFFFFFFFFFFFFE00
00FFFFFFFFFFFFFFFC00
01FFFFFFFFFFFFFFF800
03FFFFFFFFFFFFFFF000
07FFFFFFFFFFFFFFE000
07FFFFFFFFFFFFFFC000
0FFFFFFFFFFFFFFF8000
1FFFFFFFFFFFFFFE0000
1FFFFFFFFFFFFFFC0000
3FFFFFFFFFFFFFF00000
3FFFFFFFFFFFFF800000
3FFFFFFFFFFFF8000000
7FFFFFF0000000000000
7FFFFFC0000000000000
7FFFFF80000000000000
7FFFFF00000000000000
FFFFFE00000000000000
FFFFFC00000000000000
FFFFFC00000000000000
FFFFF800000000000000
FFFFF800000000000000
FFFFF800000000000000
FFFFF800000000000000
FFFFF800000000000000
FFFFF800000000000000
FFFFF800000000000000
FFFFF800000000000000
FFFFF800000000000000
FFFFF800000000000000
FFFFF800000000000000
FFFFF800000000000000
FFFFF800000000000000
FFFFF800000000000000
FFFFF800000000000000
FFFFF800000000000000
FFFFF800000000000000
FFFFF800000000000000
FFFFF800000000000000
FFFFF800000000000000
FFFFF800000000000000
FFFFF800000000000000
FFFFF800000000000000
FFFFF800000000000000
FFFFF800000000000000
FFFFF800000000000000
FFFFF800000000000000
FFFFF800000000000000
FFFFF800000000000000
FFFFFFFFFFFFFFFFFE00
FFFFFFFFFFFFFFFFFF80
FFFFFFFFFFFFFFFFFFC0
FFFFFFFFFFFFFFFFFFE0
FFFFFFFFFFFFFFFFFFF0
FFFFFFFFFFFFFFFFFFF8
FFFFFFFFFFFFFFFFFFF8
FFFFFFFFFFFFFFFFFFFC
FFFFFFFFFFFFFFFFFFFC
FFFFFFFFFFFFFFFFFFFC
FFFFFFFFFFFFFFFFFFFC
FFFFFFFFFFFFFFFFFFFC
FFFFFFFFFFFFFFFFFFFC
FFFFFFFFFFFFFFFFFFFC
7FFFFFFFFFFFFFFFFFF8
7FFFFFFFFFFFFFFFFFF8
3FFFFFFFFFFFFFFFFFF0
1FFFFFFFFFFFFFFFFFE0
0FFFFFFFFFFFFFFFFFC0
07FFFFFFFFFFFFFFFF80
01FFFFFFFFFFFFFFFE00
ENDCHAR
STARTCHAR 0033
ENCODING 51
SWIDTH 499 0
DWIDTH 87 0
BBX 78 131 3 -1
BITMAP
01FFFFFFFFFFF8000000
07FFFFFFFFFFFFC00000
0FFFFFFFFFFFFFF80000
1FFFFFFFFFFFFFFE0000
3FFFFFFFFFFFFFFF0000
7FFFFFFFFFFFFFFFC000
7FFFFFFFFFFFFFFFE000
FFFFFFFFFFFFFFFFF000
FFFFFFFFFFFFFFFFF800
FFFFFFFFFFFFFFFFFC00
FFFFFFFFFFFFFFFFFE00
FFFFFFFFFFFFFFFFFF00
FFFFFFFFFFFFFFFFFF00
FFFFFFFFFFFFFFFFFF80
7FFFFFFFFFFFFFFFFFC0
7FFFFFFFFFFFFFFFFFC0
3FFFFFFFFFFFFFFFFFE0
1FFFFFFFFFFFFFFFFFE0
0FFFFFFFFFFFFFFFFFF0
07FFFFFFFFFFFFFFFFF0
01FFFFFFFFFFFFFFFFF0
0000000000003FFFFFF8
0000000000000FFFFFF8
00000000000007FFFFF8
00000000000003FFFFF8
00000000000001FFFFF8
00000000000000FFFFFC
00000000000000FFFFFC
000000000000007FFFFC
000000000000007FFFFC
000000000000007FFFFC
000000000000007FFFFC
000000000000007FFFFC
000000000000007FFFFC
000000000000007FFFFC
000000000000007FFFFC
000000000000007FFFFC
000000000000007FFFFC
000000000000007FFFFC
000000000000007FFFFC
000000000000007FFFFC
000000000000007FFFFC
000000000000007FFFFC
000000000000007FFFFC
000000000000007FFFFC
000000000000007FFFFC
00000000000000FFFFFC
00000000000000FFFFFC
00000000000001FFFFF8
00000000000003FFFFF8
00000000000007FFFFF8
0000000000000FFFFFF8
0000000000003FFFFFF0
0000000FFFFFFFFFFFF0
0000003FFFFFFFFFFFF0
0000007FFFFFFFFFFFE0
000000FFFFFFFFFFFFE0
000001FFFFFFFFFFFFC0
000003FFFFFFFFFFFF80
000003FFFFFFFFFFFF80
000007FFFFFFFFFFFF00
000007FFFFFFFFFFFE00
000007FFFFFFFFFFFC00
000007FFFFFFFFFFFC00
000007FFFFFFFFFFFE00
000007FFFFFFFFFFFF00
000007FFFFFFFFFFFF80
000003FFFFFFFFFFFF80
000003FFFFFFFFFFFFC0
000001FFFFFFFFFFFFE0
000000FFFFFFFFFFFFE0
0000007FFFFFFFFFFFE0
0000003FFFFFFFFFFFF0
0000000FFFFFFFFFFFF0
0000000000003FFFFFF8
0000000000000FFFFFF8
00000000000007FFFFF8
00000000000003FFFFF8
00000000000001FFFFFC
00000000000000FFFFFC
00000000000000FFFFFC
000000000000007FFFFC
000000000000007FFFFC
000000000000007FFFFC
000000000000007FFFFC
000000000000007FFFFC
000000000000007FFFFC
000000000000007FFFFC
000000000000007FFFFC
000000000000007FFFFC
000000000000007FFFFC
000000000000007FFFFC
000000000000007FFFFC
000000000000007FFFFC
000000000000007FFFFC
000000000000007FFFFC
000000000000007FFFFC
000000000000007FFFFC
000000000000007FFFFC
000000000000007FFFFC
000000000000007FFFFC
000000000000007FFFFC
000000000000007FFFFC
00000000000000FFFFFC
00000000000000FFFFFC
00000000000001FFFFFC
00000000000003FFFFF8
00000000000007FFFFF8
0000000000000FFFFFF8
0000000000003FFFFFF8
01FFFFFFFFFFFFFFFFF0
07FFFFFFFFFFFFFFFFF0
0FFFFFFFFFFFFFFFFFE0
1FFFFFFFFFFFFFFFFFE0
3FFFFFFFFFFFFFFFFFE0
7FFFFFFFFFFFFFFFFFC0
7FFFFFFFFFFFFFFFFF80
FFFFFFFFFFFFFFFFFF80
FFFFFFFFFFFFFFFFFF00
FFFFFFFFFFFFFFFFFE00
FFFFFFFFFFFFFFFFFC00
FFFFFFFFFFFFFFFFF800
FFFFFFFFFFFFFFFFF000
FFFFFFFFFFFFFFFFE000
7FFFFFFFFFFFFFFFC000
7FFFFFFFFFFFFFFF8000
3FFFFFFFFFFFFFFE0000
1FFFFFFFFFFFFFFC0000
0FFFFFFFFFFFFFE00000
07FFFFFFFFFFFF800000
01FFFFFFFFFFF8000000
ENDCHAR
STARTCHAR 0034
ENCODING 52
SWIDTH 528 0
DWIDTH 92 0
BBX 84 131 3 -1
BITMAP
000000000000000003F800
00000000000000001FFE00
00000000000000003FFF00
00000000000000007FFF80
0000000000000000FFFFC0
0000000000000000FFFFE0
0000000000000001FFFFE0
0000000000000003FFFFF0
0000000000000007FFFFF0
000000000000000FFFFFF0
000000000000000FFFFFF0
000000000000001FFFFFF0
000000000000003FFFFFF0
000000000000007FFFFFF0
00000000000000FFFFFFF0
00000000000000FFFFFFF0
00000000000001FFFFFFF0
00000000000003FFFFFFF0
00000000000007FFFFFFF0
00000000000007FFFFFFF0
0000000000000FFFFFFFF0
0000000000001FFFFFFFF0
0000000000003FFFFFFFF0
0000000000007FFFFFFFF0
0000000000007FFFFFFFF0
000000000000FFFFFFFFF0
000000000001FFFFFFFFF0
000000000003FFFFFFFFF0
000000000007FFFFFFFFF0
000000000007FFFFFFFFF0
00000000000FFFFFFFFFF0
00000000001FFFFFFFFFF0
00000000003FFFFFFFFFF0
00000000003FFFFFFFFFF0
00000000007FFFFFFFFFF0
0000000000FFFFFFFFFFF0
0000000001FFFFFFFFFFF0
0000000003FFFFFFFFFFF0
0000000003FFFFFFFFFFF0
0000000007FFFFFFFFFFF0
000000000FFFFFFFFFFFF0
000000001FFFFFFDFFFFF0
000000003FFFFFF9FFFFF0
000000003FFFFFF1FFFFF0
000000007FFFFFF1FFFFF0
00000000FFFFFFE1FFFFF0
00000001FFFFFFC1FFFFF0
00000003FFFFFF81FFFFF0
00000003FFFFFF01FFFFF0
00000007FFFFFF01FFFFF0
0000000FFFFFFE01FFFFF0
0000001FFFFFFC01FFFFF0
0000001FFFFFF801FFFFF0
0000003FFFFFF001FFFFF0
0000007FFFFFF001FFFFF0
000000FFFFFFE001FFFFF0
000001FFFFFFC001FFFFF0
000001FFFFFF8001FFFFF0
000003FFFFFF0001FFFFF0
000007FFFFFF0001FFFFF0
00000FFFFFFE0001FFFFF0
00001FFFFFFC0001FFFFF0
00001FFFFFF80001FFFFF0
00003FFFFFF00001FFFFF0
00007FFFFFF00001FFFFF0
0000FFFFFFE00001FFFFF0
0000FFFFFFC00001FFFFF0
0001FFFFFF800001FFFFF0
0003FFFFFF800001FFFFF0
0007FFFFFF000001FFFFF0
000FFFFFFE000001FFFFF0
000FFFFFFC000001FFFFF0
001FFFFFF8000001FFFFF0
003FFFFFF8000001FFFFF0
007FFFFFF0000001FFFFF0
00FFFFFFE0000001FFFFF0
00FFFFFFC0000001FFFFF0
01FFFFFF80000001FFFFF0
03FFFFFF80000001FFFFF0
07FFFFFFFFFFFFFFFFFFF0
0FFFFFFFFFFFFFFFFFFFF0
0FFFFFFFFFFFFFFFFFFFF0
1FFFFFFFFFFFFFFFFFFFF0
3FFFFFFFFFFFFFFFFFFFF0
7FFFFFFFFFFFFFFFFFFFF0
7FFFFFFFFFFFFFFFFFFFF0
FFFFFFFFFFFFFFFFFFFFF0
FFFFFFFFFFFFFFFFFFFFF0
FFFFFFFFFFFFFFFFFFFFF0
FFFFFFFFFFFFFFFFFFFFF0
FFFFFFFFFFFFFFFFFFFFF0
FFFFFFFFFFFFFFFFFFFFF0
FFFFFFFFFFFFFFFFFFFFF0
7FFFFFFFFFFFFFFFFFFFF0
7FFFFFFFFFFFFFFFFFFFF0
3FFFFFFFFFFFFFFFFFFFF0
3FFFFFFFFFFFFFFFFFFFF0
1FFFFFFFFFFFFFFFFFFFF0
07FFFFFFFFFFFFFFFFFFF0
01FFFFFFFFFFFFFFFFFFF0
0000000000000001FFFFF0
0000000000000001FFFFF0
0000000000000001FFFFF0
0000000000000001FFFFF0
0000000000000001FFFFF0
0000000000000001FFFFF0
0000000000000001FFFFF0
0000000000000001FFFFF0
0000000000000001FFFFF0
0000000000000001FFFFF0
0000000000000001FFFFF0
0000000000000001FFFFF0
0000000000000001FFFFF0
0000000000000001FFFFF0
0000000000000001FFFFF0
0000000000000001FFFFF0
0000000000000001FFFFF0
0000000000000001FFFFF0
0000000000000001FFFFF0
0000000000000001FFFFF0
0000000000000001FFFFF0
0000000000000001FFFFF0
0000000000000001FFFFF0
0000000000000001FFFFF0
0000000000000000FFFFE0
0000000000000000FFFFE0
00000000000000007FFFC0
00000000000000007FFFC0
00000000000000003FFF80
00000000000000000FFE00
000000000000000003F800
ENDCHAR
STARTCHAR 0035
ENCODING 53
SWIDTH 499 0
DWIDTH 87 0
BBX 79 130 3 -1
BITMAP
01FFFFFFFFFFFFFFFF00
07FFFFFFFFFFFFFFFFC0
0FFFFFFFFFFFFFFFFFE0
1FFFFFFFFFFFFFFFFFF0
3FFFFFFFFFFFFFFFFFF8
7FFFFFFFFFFFFFFFFFFC
7FFFFFFFFFFFFFFFFFFC
FFFFFFFFFFFFFFFFFFFE
FFFFFFFFFFFFFFFFFFFE
FFFFFFFFFFFFFFFFFFFE
FFFFFFFFFFFFFFFFFFFE
FFFFFFFFFFFFFFFFFFFE
FFFFFFFFFFFFFFFFFFFE
FFFFFFFFFFFFFFFFFFFE
FFFFFFFFFFFFFFFFFFFC
FFFFFFFFFFFFFFFFFFFC
FFFFFFFFFFFFFFFFFFF8
FFFFFFFFFFFFFFFFFFF0
FFFFFFFFFFFFFFFFFFE0
FFFFFFFFFFFFFFFFFFC0
FFFFFFFFFFFFFFFFFF00
FFFFF800000000000000
FFFFF800000000000000
FFFFF800000000000000
FFFFF800000000000000
FFFFF800000000000000
FFFFF800000000000000
FFFFF800000000000000
FFFFF800000000000000
FFFFF800000000000000
FFFFF800000000000000
FFFFF800000000000000
FFFFF800000000000000
FFFFF800000000000000
FFFFF800000000000000
FFFFF800000000000000
FFFFF800000000000000
FFFFF800000000000000
FFFFF800000000000000
FFFFF800000000000000
FFFFF800000000000000
FFFFF800000000000000
FFFFF800000000000000
FFFFF800000000000000
FFFFF800000000000000
FFFFF800000000000000
FFFFF800000000000000
FFFFF800000000000000
FFFFF800000000000000
FFFFF800000000000000
FFFFF800000000000000
FFFFF800000000000000
FFFFFFFFFFFFF8000000
FFFFFFFFFFFFFF800000
FFFFFFFFFFFFFFF00000
FFFFFFFFFFFFFFFC0000
FFFFFFFFFFFFFFFF0000
FFFFFFFFFFFFFFFF8000
FFFFFFFFFFFFFFFFE000
FFFFFFFFFFFFFFFFF000
FFFFFFFFFFFFFFFFF800
FFFFFFFFFFFFFFFFFC00
FFFFFFFFFFFFFFFFFE00
FFFFFFFFFFFFFFFFFF00
FFFFFFFFFFFFFFFFFF80
FFFFFFFFFFFFFFFFFFC0
7FFFFFFFFFFFFFFFFFC0
7FFFFFFFFFFFFFFFFFE0
3FFFFFFFFFFFFFFFFFE0
1FFFFFFFFFFFFFFFFFF0
0FFFFFFFFFFFFFFFFFF0
07FFFFFFFFFFFFFFFFF8
01FFFFFFFFFFFFFFFFF8
0000000000001FFFFFFC
00000000000007FFFFFC
00000000000003FFFFFC
00000000000001FFFFFC
00000000000000FFFFFE
000000000000007FFFFE
000000000000007FFFFE
000000000000003FFFFE
000000000000003FFFFE
000000000000003FFFFE
000000000000003FFFFE
000000000000003FFFFE
000000000000003FFFFE
000000000000003FFFFE
000000000000003FFFFE
000000000000003FFFFE
000000000000003FFFFE
000000000000003FFFFE
000000000000003FFFFE
000000000000003FFFFE
000000000000003FFFFE
000000000000003FFFFE
000000000000003FFFFE
000000000000003FFFFE
000000000000003FFFFE
000000000000003FFFFE
000000000000003FFFFE
000000000000003FFFFE
000000000000003FFFFE
000000000000007FFFFE
000000000000007FFFFE
00000000000000FFFFFE
00000000000001FFFFFC
00000000000003FFFFFC
00000000000007FFFFFC
0000000000001FFFFFFC
01FFFFFFFFFFFFFFFFF8
07FFFFFFFFFFFFFFFFF8
0FFFFFFFFFFFFFFFFFF0
1FFFFFFFFFFFFFFFFFF0
3FFFFFFFFFFFFFFFFFF0
7FFFFFFFFFFFFFFFFFE0
7FFFFFFFFFFFFFFFFFC0
FFFFFFFFFFFFFFFFFFC0
FFFFFFFFFFFFFFFFFF80
FFFFFFFFFFFFFFFFFF00
FFFFFFFFFFFFFFFFFE00
FFFFFFFFFFFFFFFFFC00
FFFFFFFFFFFFFFFFF800
FFFFFFFFFFFFFFFFF000
7FFFFFFFFFFFFFFFE000
7FFFFFFFFFFFFFFFC000
3FFFFFFFFFFFFFFF0000
1FFFFFFFFFFFFFFC0000
0FFFFFFFFFFFFFF00000
07FFFFFFFFFFFFC00000
01FFFFFFFFFFF8000000
ENDCHAR
STARTCHAR 0036
ENCODING 54
SWIDTH 499 0
DWIDTH 87 0
BBX 78 131 3 -1
BITMAP
0000007FFFFFFFFFFE00
000007FFFFFFFFFFFF80
00001FFFFFFFFFFFFFC0
00007FFFFFFFFFFFFFE0
0001FFFFFFFFFFFFFFF0
0007FFFFFFFFFFFFFFF8
000FFFFFFFFFFFFFFFF8
001FFFFFFFFFFFFFFFFC
003FFFFFFFFFFFFFFFFC
007FFFFFFFFFFFFFFFFC
00FFFFFFFFFFFFFFFFFC
01FFFFFFFFFFFFFFFFFC
03FFFFFFFFFFFFFFFFFC
07FFFFFFFFFFFFFFFFFC
07FFFFFFFFFFFFFFFFF8
0FFFFFFFFFFFFFFFFFF8
0FFFFFFFFFFFFFFFFFF0
1FFFFFFFFFFFFFFFFFE0
1FFFFFFFFFFFFFFFFFC0
3FFFFFFFFFFFFFFFFF80
3FFFFFFFFFFFFFFFFE00
7FFFFFF0000000000000
7FFFFFC0000000000000
7FFFFF80000000000000
7FFFFF00000000000000
FFFFFE00000000000000
FFFFFC00000000000000
FFFFFC00000000000000
FFFFF800000000000000
FFFFF800000000000000
FFFFF800000000000000
FFFFF800000000000000
FFFFF800000000000000
FFFFF800000000000000
FFFFF800000000000000
FFFFF800000000000000
FFFFF800000000000000
FFFFF800000000000000
FFFFF800000000000000
FFFFF800000000000000
FFFFF800000000000000
FFFFF800000000000000
FFFFF800000000000000
FFFFF800000000000000
FFFFF800000000000000
FFFFF800000000000000
FFFFFC00000000000000
FFFFFC00000000000000
FFFFFE00000000000000
FFFFFF00000000000000
FFFFFF80000000000000
FFFFFFC0000000000000
FFFFFFF0000000000000
FFFFFFFFFFFFF8000000
FFFFFFFFFFFFFF800000
FFFFFFFFFFFFFFE00000
FFFFFFFFFFFFFFFC0000
FFFFFFFFFFFFFFFE0000
FFFFFFFFFFFFFFFF8000
FFFFFFFFFFFFFFFFC000
FFFFFFFFFFFFFFFFE000
FFFFFFFFFFFFFFFFF000
FFFFFFFFFFFFFFFFF800
FFFFFFFFFFFFFFFFFC00
FFFFFFFFFFFFFFFFFE00
FFFFFFFFFFFFFFFFFF00
FFFFFFFFFFFFFFFFFF80
FFFFFFFFFFFFFFFFFF80
FFFFFFFFFFFFFFFFFFC0
FFFFFFFFFFFFFFFFFFC0
FFFFFFFFFFFFFFFFFFE0
FFFFFFFFFFFFFFFFFFE0
FFFFF9FFFFFFFFFFFFF0
FFFFF83FFFFFFFFFFFF0
FFFFF80000003FFFFFF8
FFFFF80000000FFFFFF8
FFFFF800000007FFFFF8
FFFFF800000003FFFFF8
FFFFF800000001FFFFFC
FFFFF800000000FFFFFC
FFFFF800000000FFFFFC
FFFFF8000000007FFFFC
FFFFF8000000007FFFFC
FFFFF8000000007FFFFC
FFFFF8000000007FFFFC
FFFFF8000000007FFFFC
FFFFF8000000007FFFFC
FFFFF8000000007FFFFC
FFFFF8000000007FFFFC
FFFFF8000000007FFFFC
FFFFF8000000007FFFFC
FFFFF8000000007FFFFC
FFFFF8000000007FFFFC
FFFFF8000000007FFFFC
FFFFF8000000007FFFFC
FFFFF8000000007FFFFC
FFFFF8000000007FFFFC
FFFFF8000000007FFFFC
FFFFF8000000007FFFFC
FFFFF8000000007FFFFC
FFFFF8000000007FFFFC
FFFFF8000000007FFFFC
FFFFF8000000007FFFFC
FFFFFC00000000FFFFFC
FFFFFC00000000FFFFFC
7FFFFE00000001FFFFFC
7FFFFF00000001FFFFF8
7FFFFF80000003FFFFF8
7FFFFFC000000FFFFFF8
7FFFFFF000003FFFFFF8
3FFFFFFFFFFFFFFFFFF0
3FFFFFFFFFFFFFFFFFF0
1FFFFFFFFFFFFFFFFFF0
1FFFFFFFFFFFFFFFFFE0
1FFFFFFFFFFFFFFFFFE0
0FFFFFFFFFFFFFFFFFC0
0FFFFFFFFFFFFFFFFF80
07FFFFFFFFFFFFFFFF80
07FFFFFFFFFFFFFFFF00
03FFFFFFFFFFFFFFFE00
01FFFFFFFFFFFFFFFC00
00FFFFFFFFFFFFFFF800
00FFFFFFFFFFFFFFF000
007FFFFFFFFFFFFFE000
003FFFFFFFFFFFFFC000
000FFFFFFFFFFFFF8000
0007FFFFFFFFFFFE0000
0003FFFFFFFFFFFC0000
0000FFFFFFFFFFF00000
00001FFFFFFFFF800000
000001FFFFFFF8000000
ENDCHAR
STARTCHAR 0037
ENCODING 55
SWIDTH 528 0
DWIDTH 92 0
BBX 83 131 3 -1
BITMAP
01FFFFFFFFFFFFFFFFF000
07FFFFFFFFFFFFFFFFFC00
0FFFFFFFFFFFFFFFFFFF00
1FFFFFFFFFFFFFFFFFFF80
3FFFFFFFFFFFFFFFFFFFC0
7FFFFFFFFFFFFFFFFFFFC0
7FFFFFFFFFFFFFFFFFFFE0
FFFFFFFFFFFFFFFFFFFFE0
FFFFFFFFFFFFFFFFFFFFE0
FFFFFFFFFFFFFFFFFFFFE0
FFFFFFFFFFFFFFFFFFFFE0
FFFFFFFFFFFFFFFFFFFFE0
FFFFFFFFFFFFFFFFFFFFE0
FFFFFFFFFFFFFFFFFFFFE0
7FFFFFFFFFFFFFFFFFFFE0
7FFFFFFFFFFFFFFFFFFFC0
3FFFFFFFFFFFFFFFFFFFC0
1FFFFFFFFFFFFFFFFFFF80
0FFFFFFFFFFFFFFFFFFF80
07FFFFFFFFFFFFFFFFFF80
01FFFFFFFFFFFFFFFFFF00
000000000000007FFFFF00
000000000000007FFFFE00
00000000000000FFFFFE00
00000000000000FFFFFE00
00000000000001FFFFFC00
00000000000001FFFFFC00
00000000000001FFFFF800
00000000000003FFFFF800
00000000000003FFFFF000
00000000000007FFFFF000
00000000000007FFFFF000
0000000000000FFFFFE000
0000000000000FFFFFE000
0000000000000FFFFFC000
0000000000001FFFFFC000
0000000000001FFFFFC000
0000000000003FFFFF8000
0000000000003FFFFF8000
0000000000003FFFFF0000
0000000000007FFFFF0000
0000000000007FFFFE0000
000000000000FFFFFE0000
000000000000FFFFFE0000
000000000001FFFFFC0000
000000000001FFFFFC0000
000000000001FFFFF80000
000000000003FFFFF80000
000000000003FFFFF80000
000000000007FFFFF00000
000000000007FFFFF00000
000000000007FFFFE00000
00000000000FFFFFE00000
00000000000FFFFFC00000
00000000001FFFFFC00000
00000000001FFFFFC00000
00000000003FFFFF800000
00000000003FFFFF800000
00000000003FFFFF000000
00000000007FFFFF000000
00000000007FFFFF000000
0000000000FFFFFE000000
0000000000FFFFFE000000
0000000000FFFFFC000000
0000000001FFFFFC000000
0000000001FFFFF8000000
0000000003FFFFF8000000
0000000003FFFFF8000000
0000000007FFFFF0000000
0000000007FFFFF0000000
0000000007FFFFE0000000
000000000FFFFFE0000000
000000000FFFFFE0000000
000000001FFFFFC0000000
000000001FFFFFC0000000
000000001FFFFF80000000
000000003FFFFF80000000
000000003FFFFF00000000
000000007FFFFF00000000
000000007FFFFF00000000
00000000FFFFFE00000000
00000000FFFFFE00000000
00000000FFFFFC00000000
00000001FFFFFC00000000
00000001FFFFFC00000000
00000003FFFFF800000000
00000003FFFFF800000000
00000007FFFFF000000000
00000007FFFFF000000000
00000007FFFFE000000000
0000000FFFFFE000000000
0000000FFFFFE000000000
0000001FFFFFC000000000
0000001FFFFFC000000000
0000001FFFFF8000000000
0000003FFFFF8000000000
0000003FFFFF8000000000
0000007FFFFF0000000000
0000007FFFFF0000000000
000000FFFFFE0000000000
000000FFFFFE0000000000
000000FFFFFC0000000000
000001FFFFFC0000000000
000001FFFFFC0000000000
000003FFFFF80000000000
000003FFFFF80000000000
000003FFFFF00000000000
000007FFFFF00000000000
000007FFFFF00000000000
00000FFFFFE00000000000
00000FFFFFE00000000000
00001FFFFFC00000000000
00001FFFFFC00000000000
00001FFFFF800000000000
00003FFFFF800000000000
00003FFFFF800000000000
00007FFFFF000000000000
00007FFFFF000000000000
00007FFFFE000000000000
00007FFFFE000000000000
0000FFFFFE000000000000
00007FFFFC000000000000
00007FFFFC000000000000
00007FFFF8000000000000
00007FFFF8000000000000
00003FFFF0000000000000
00003FFFF0000000000000
00001FFFE0000000000000
00000FFFC0000000000000
000003FF80000000000000
000000FE00000000000000
ENDCHAR
STARTCHAR 0038
ENCODING 56
SWIDTH 528 0
DWIDTH 92 0
BBX 84 131 3 -1
BITMAP
0000003FFFFFFFE0000000
000007FFFFFFFFFE000000
00001FFFFFFFFFFF800000
00007FFFFFFFFFFFE00000
0001FFFFFFFFFFFFF80000
0007FFFFFFFFFFFFFE0000
000FFFFFFFFFFFFFFF0000
001FFFFFFFFFFFFFFF8000
003FFFFFFFFFFFFFFFC000
007FFFFFFFFFFFFFFFE000
00FFFFFFFFFFFFFFFFF000
01FFFFFFFFFFFFFFFFF000
03FFFFFFFFFFFFFFFFF800
07FFFFFFFFFFFFFFFFFC00
07FFFFFFFFFFFFFFFFFC00
0FFFFFFFFFFFFFFFFFFE00
0FFFFFFFFFFFFFFFFFFF00
1FFFFFFFFFFFFFFFFFFF00
1FFFFFFFFFFFFFFFFFFF00
3FFFFFFFFFFFFFFFFFFF80
3FFFFFFFFFFFFFFFFFFF80
7FFFFFF0000000FFFFFFC0
7FFFFFC00000003FFFFFC0
7FFFFF800000001FFFFFC0
7FFFFF000000000FFFFFE0
FFFFFE0000000007FFFFE0
FFFFFC0000000003FFFFE0
FFFFFC0000000003FFFFE0
FFFFF80000000001FFFFE0
FFFFF80000000001FFFFF0
FFFFF80000000001FFFFF0
FFFFF80000000001FFFFF0
FFFFF80000000001FFFFF0
FFFFF80000000001FFFFF0
FFFFF80000000001FFFFF0
FFFFF80000000001FFFFF0
FFFFF80000000001FFFFF0
FFFFF80000000001FFFFF0
FFFFF80000000001FFFFF0
FFFFF80000000001FFFFF0
FFFFF80000000001FFFFF0
FFFFF80000000001FFFFF0
FFFFF80000000001FFFFF0
FFFFF80000000001FFFFF0
FFFFF80000000001FFFFF0
FFFFF80000000001FFFFF0
FFFFFC0000000003FFFFF0
FFFFFC0000000003FFFFF0
7FFFFE0000000007FFFFE0
7FFFFF000000000FFFFFE0
7FFFFF800000001FFFFFE0
7FFFFFC00000003FFFFFC0
3FFFFFF0000000FFFFFFC0
3FFFFFFFFFFFFFFFFFFFC0
3FFFFFFFFFFFFFFFFFFF80
1FFFFFFFFFFFFFFFFFFF80
1FFFFFFFFFFFFFFFFFFF00
0FFFFFFFFFFFFFFFFFFF00
07FFFFFFFFFFFFFFFFFE00
07FFFFFFFFFFFFFFFFFC00
03FFFFFFFFFFFFFFFFFC00
01FFFFFFFFFFFFFFFFF800
00FFFFFFFFFFFFFFFFF000
01FFFFFFFFFFFFFFFFF000
01FFFFFFFFFFFFFFFFF800
03FFFFFFFFFFFFFFFFFC00
07FFFFFFFFFFFFFFFFFC00
07FFFFFFFFFFFFFFFFFE00
0FFFFFFFFFFFFFFFFFFF00
1FFFFFFFFFFFFFFFFFFF00
1FFFFFFFFFFFFFFFFFFF80
3FFFFFFFFFFFFFFFFFFF80
3FFFFFFFFFFFFFFFFFFFC0
3FFFFFFFFFFFFFFFFFFFC0
7FFFFFF0000000FFFFFFC0
7FFFFFC00000003FFFFFE0
7FFFFF800000001FFFFFE0
7FFFFF000000000FFFFFE0
FFFFFE0000000007FFFFF0
FFFFFC0000000003FFFFF0
FFFFFC0000000003FFFFF0
FFFFF80000000001FFFFF0
FFFFF80000000001FFFFF0
FFFFF80000000001FFFFF0
FFFFF80000000001FFFFF0
FFFFF80000000001FFFFF0
FFFFF80000000001FFFFF0
FFFFF80000000001FFFFF0
FFFFF80000000001FFFFF0
FFFFF80000000001FFFFF0
FFFFF80000000001FFFFF0
FFFFF80000000001FFFFF0
FFFFF80000000001FFFFF0
FFFFF80000000001FFFFF0
FFFFF80000000001FFFFF0
FFFFF80000000001FFFFF0
FFFFF80000000001FFFFF0
FFFFF80000000001FFFFF0
FFFFF80000000001FFFFF0
FFFFF80000000001FFFFF0
FFFFF80000000001FFFFF0
FFFFF80000000001FFFFF0
FFFFF80000000001FFFFF0
7FFFFC0000000003FFFFF0
7FFFFC0000000003FFFFF0
7FFFFE0000000007FFFFF0
7FFFFF0000000007FFFFE0
3FFFFF800000001FFFFFE0
3FFFFFC00000003FFFFFE0
3FFFFFF0000000FFFFFFE0
1FFFFFFFFFFFFFFFFFFFC0
1FFFFFFFFFFFFFFFFFFFC0
1FFFFFFFFFFFFFFFFFFF80
0FFFFFFFFFFFFFFFFFFF80
0FFFFFFFFFFFFFFFFFFF00
07FFFFFFFFFFFFFFFFFF00
07FFFFFFFFFFFFFFFFFE00
03FFFFFFFFFFFFFFFFFE00
01FFFFFFFFFFFFFFFFFC00
01FFFFFFFFFFFFFFFFF800
00FFFFFFFFFFFFFFFFF000
007FFFFFFFFFFFFFFFE000
003FFFFFFFFFFFFFFFC000
001FFFFFFFFFFFFFFF8000
000FFFFFFFFFFFFFFF0000
0007FFFFFFFFFFFFFE0000
0001FFFFFFFFFFFFF80000
0000FFFFFFFFFFFFE00000
00003FFFFFFFFFFF800000
000007FFFFFFFFFE000000
0000007FFFFFFFC0000000
ENDCHAR
STARTCHAR 0039
ENCODING 57
SWIDTH 499 0
DWIDTH 87 0
BBX 78 131 3 -1
BITMAP
0000003FFFFFFC000000
000007FFFFFFFFE00000
00001FFFFFFFFFF80000
00007FFFFFFFFFFE0000
0001FFFFFFFFFFFF8000
0007FFFFFFFFFFFFC000
000FFFFFFFFFFFFFE000
001FFFFFFFFFFFFFF000
003FFFFFFFFFFFFFF800
007FFFFFFFFFFFFFFC00
00FFFFFFFFFFFFFFFE00
01FFFFFFFFFFFFFFFF00
03FFFFFFFFFFFFFFFF00
07FFFFFFFFFFFFFFFF80
07FFFFFFFFFFFFFFFF80
0FFFFFFFFFFFFFFFFFC0
0FFFFFFFFFFFFFFFFFC0
1FFFFFFFFFFFFFFFFFE0
1FFFFFFFFFFFFFFFFFE0
3FFFFFFFFFFFFFFFFFE0
3FFFFFFFFFFFFFFFFFF0
3FFFFFF000003FFFFFF0
7FFFFFC000000FFFFFF0
7FFFFF80000007FFFFF8
7FFFFF00000003FFFFF8
7FFFFE00000001FFFFF8
FFFFFC00000000FFFFF8
FFFFFC00000000FFFFF8
FFFFF8000000007FFFFC
FFFFF8000000007FFFFC
FFFFF8000000007FFFFC
FFFFF8000000007FFFFC
FFFFF8000000007FFFFC
FFFFF8000000007FFFFC
FFFFF8000000007FFFFC
FFFFF8000000007FFFFC
FFFFF8000000007FFFFC
FFFFF8000000007FFFFC
FFFFF8000000007FFFFC
FFFFF8000000007FFFFC
FFFFF8000000007FFFFC
FFFFF8000000007FFFFC
FFFFF8000000007FFFFC
FFFFF8000000007FFFFC
FFFFF8000000007FFFFC
FFFFF8000000007FFFFC
FFFFFC000000007FFFFC
FFFFFC000000007FFFFC
7FFFFE000000007FFFFC
7FFFFF000000007FFFFC
7FFFFF800000007FFFFC
7FFFFFC00000007FFFFC
7FFFFFF00000007FFFFC
3FFFFFFFFFFFF87FFFFC
3FFFFFFFFFFFFFFFFFFC
1FFFFFFFFFFFFFFFFFFC
1FFFFFFFFFFFFFFFFFFC
0FFFFFFFFFFFFFFFFFFC
0FFFFFFFFFFFFFFFFFFC
07FFFFFFFFFFFFFFFFFC
07FFFFFFFFFFFFFFFFFC
03FFFFFFFFFFFFFFFFFC
01FFFFFFFFFFFFFFFFFC
00FFFFFFFFFFFFFFFFFC
007FFFFFFFFFFFFFFFFC
003FFFFFFFFFFFFFFFFC
001FFFFFFFFFFFFFFFFC
000FFFFFFFFFFFFFFFFC
0007FFFFFFFFFFFFFFFC
0001FFFFFFFFFFFFFFFC
0000FFFFFFFFFFFFFFFC
00003FFFFFFFFFFFFFFC
000007FFFFFFFFFFFFFC
0000007FFFFFFFFFFFFC
0000000000003FFFFFFC
0000000000000FFFFFFC
00000000000007FFFFFC
00000000000003FFFFFC
00000000000001FFFFFC
00000000000000FFFFFC
00000000000000FFFFFC
000000000000007FFFFC
000000000000007FFFFC
000000000000007FFFFC
000000000000007FFFFC
000000000000007FFFFC
000000000000007FFFFC
000000000000007FFFFC
000000000000007FFFFC
000000000000007FFFFC
000000000000007FFFFC
000000000000007FFFFC
000000000000007FFFFC
000000000000007FFFFC
000000000000007FFFFC
000000000000007FFFFC
000000000000007FFFFC
000000000000007FFFFC
000000000000007FFFFC
000000000000007FFFFC
000000000000007FFFFC
000000000000007FFFFC
000000000000007FFFFC
00000000000000FFFFFC
00000000000000FFFFFC
00000000000001FFFFFC
00000000000003FFFFF8
00000000000007FFFFF8
0000000000000FFFFFF8
0000000000003FFFFFF8
01FFFFFFFFFFFFFFFFF0
07FFFFFFFFFFFFFFFFF0
0FFFFFFFFFFFFFFFFFE0
1FFFFFFFFFFFFFFFFFE0
3FFFFFFFFFFFFFFFFFE0
7FFFFFFFFFFFFFFFFFC0
7FFFFFFFFFFFFFFFFF80
FFFFFFFFFFFFFFFFFF80
FFFFFFFFFFFFFFFFFF00
FFFFFFFFFFFFFFFFFE00
FFFFFFFFFFFFFFFFFC00
FFFFFFFFFFFFFFFFF800
FFFFFFFFFFFFFFFFF000
FFFFFFFFFFFFFFFFE000
7FFFFFFFFFFFFFFFC000
7FFFFFFFFFFFFFFF8000
3FFFFFFFFFFFFFFE0000
1FFFFFFFFFFFFFFC0000
0FFFFFFFFFFFFFE00000
07FFFFFFFFFFFF800000
01FFFFFFFFFFF8000000
ENDCHAR
STARTCHAR 003A
ENCODING 58
SWIDTH 172 0
DWIDTH 30 0
BBX 21 78 3 -1
BITMAP
01FC00
07FF00
0FFF80
1FFFC0
3FFFE0
7FFFF0
7FFFF0
FFFFF8
FFFFF8
FFFFF8
FFFFF8
FFFFF8
FFFFF8
FFFFF8
7FFFF0
7FFFF0
3FFFE0
1FFFC0
0FFF80
07FF00
01FC00
000000
000000
000000
000000
000000
000000
000000
000000
000000
000000
000000
000000
000000
000000
000000
000000
000000
000000
000000
000000
000000
000000
000000
000000
000000
000000
000000
000000
000000
000000
000000
000000
000000
000000
000000
000000
01FC00
07FF00
0FFF80
1FFFC0
3FFFE0
7FFFF0
7FFFF0
FFFFF8
FFFFF8
FFFFF8
FFFFF8
FFFFF8
FFFFF8
FFFFF8
7FFFF0
7FFFF0
3FFFE0
1FFFC0
0FFF80
07FF00
01FC00
ENDCHAR
STARTCHAR 003B
ENCODING 59
SWIDTH 200 0
DWIDTH 35 0
BBX 33 104 -5 -27
BITMAP
00001FC000
00007FF000
0000FFF800
0001FFFC00
0003FFFE00
0007FFFF00
0007FFFF00
000FFFFF80
000FFFFF80
000FFFFF80
000FFFFF80
000FFFFF80
000FFFFF80
000FFFFF80
0007FFFF00
0007FFFF00
0003FFFE00
0001FFFC00
0000FFF800
00007FF000
00001FC000
0000000000
0000000000
0000000000
0000000000
0000000000
0000000000
0000000000
0000000000
0000000000
0000000000
0000000000
0000000000
0000000000
0000000000
0000000000
0000000000
0000000000
0000000000
0000000000
0000000000
0000000000
0000000000
0000000000
0000000000
0000000000
0000000000
0000000000
0000000000
0000000000
0000000000
0000000000
0000000000
0000000000
0000000000
0000000000
0000000000
00000F8000
00007FF000
0000FFF800
0001FFFC00
0003FFFE00
0007FFFF00
0007FFFF00
000FFFFF80
000FFFFF80
000FFFFF80
000FFFFF80
000FFFFF80
000FFFFF80
000FFFFF80
000FFFFF80
000FFFFF80
000FFFFF80
000FFFFF80
000FFFFF80
000FFFFF80
000FFFFF80
000FFFFF80
000FFFFF80
000FFFFF80
000FFFFF80
000FFFFF80
000FFFFF80
000FFFFF80
000FFFFF80
000FFFFF80
000FFFFF80
000FFFFF00
000FFFFF00
000FFFFF00
000FFFFE00
001FFFFE00
001FFFFC00
001FFFF800
003FFFF000
003FFFE000
007FFFC000
00FFFF8000
01FFFE0000
03FFFC0000
07FFE00000
1FFF800000
FFF8000000
ENDCHAR
STARTCHAR 003C
ENCODING 60
SWIDTH 516 0
DWIDTH 90 0
BBX 81 82 3 21
BITMAP
00000000000000001F8000
0000000000000000FFF000
0000000000000003FFF800
000000000000000FFFFC00
000000000000003FFFFE00
00000000000000FFFFFE00
00000000000003FFFFFF00
0000000000000FFFFFFF00
0000000000001FFFFFFF80
0000000000007FFFFFFF80
000000000001FFFFFFFF80
000000000007FFFFFFFF80
00000000001FFFFFFFFF80
00000000007FFFFFFFFF00
0000000001FFFFFFFFFF00
0000000007FFFFFFFFFE00
000000001FFFFFFFFFFE00
000000007FFFFFFFFFFC00
00000001FFFFFFFFFFF800
00000007FFFFFFFFFFE000
0000001FFFFFFFFFFF8000
0000007FFFFFFFFFFE0000
000001FFFFFFFFFFF80000
000007FFFFFFFFFFE00000
00001FFFFFFFFFFF800000
00007FFFFFFFFFFE000000
0001FFFFFFFFFFF8000000
0007FFFFFFFFFFF0000000
001FFFFFFFFFFFC0000000
007FFFFFFFFFFF00000000
01FFFFFFFFFFFC00000000
07FFFFFFFFFFF000000000
0FFFFFFFFFFFC000000000
1FFFFFFFFFFF0000000000
3FFFFFFFFFFC0000000000
7FFFFFFFFFF00000000000
7FFFFFFFFFC00000000000
FFFFFFFFFF000000000000
FFFFFFFFFC000000000000
FFFFFFFFF0000000000000
FFFFFFFFC0000000000000
FFFFFFFFC0000000000000
FFFFFFFFF0000000000000
FFFFFFFFFC000000000000
FFFFFFFFFF000000000000
7FFFFFFFFFC00000000000
7FFFFFFFFFF00000000000
3FFFFFFFFFFC0000000000
3FFFFFFFFFFF0000000000
0FFFFFFFFFFFC000000000
07FFFFFFFFFFF000000000
01FFFFFFFFFFFC00000000
007FFFFFFFFFFF00000000
001FFFFFFFFFFFC0000000
0007FFFFFFFFFFF0000000
0001FFFFFFFFFFF8000000
00007FFFFFFFFFFE000000
00001FFFFFFFFFFF800000
000007FFFFFFFFFFE00000
000001FFFFFFFFFFF80000
0000007FFFFFFFFFFE0000
0000001FFFFFFFFFFF8000
00000007FFFFFFFFFFE000
00000001FFFFFFFFFFF800
000000007FFFFFFFFFFC00
000000001FFFFFFFFFFE00
0000000007FFFFFFFFFE00
0000000001FFFFFFFFFF00
00000000007FFFFFFFFF00
00000000001FFFFFFFFF80
000000000007FFFFFFFF80
000000000001FFFFFFFF80
0000000000007FFFFFFF80
0000000000001FFFFFFF80
00000000000007FFFFFF00
00000000000001FFFFFF00
000000000000007FFFFE00
000000000000001FFFFE00
0000000000000007FFFC00
0000000000000001FFF800
00000000000000007FF000
00000000000000001F8000
ENDCHAR
STARTCHAR 003D
ENCODING 61
SWIDTH 499 0
DWIDTH 87 0
BBX 78 52 3 42
BITMAP
01FFFFFFFFFFFFFFFE00
07FFFFFFFFFFFFFFFF80
0FFFFFFFFFFFFFFFFFE0
1FFFFFFFFFFFFFFFFFF0
3FFFFFFFFFFFFFFFFFF0
7FFFFFFFFFFFFFFFFFF8
7FFFFFFFFFFFFFFFFFFC
FFFFFFFFFFFFFFFFFFFC
FFFFFFFFFFFFFFFFFFFC
FFFFFFFFFFFFFFFFFFFC
FFFFFFFFFFFFFFFFFFFC
FFFFFFFFFFFFFFFFFFFC
FFFFFFFFFFFFFFFFFFFC
FFFFFFFFFFFFFFFFFFFC
7FFFFFFFFFFFFFFFFFFC
7FFFFFFFFFFFFFFFFFF8
3FFFFFFFFFFFFFFFFFF0
1FFFFFFFFFFFFFFFFFF0
0FFFFFFFFFFFFFFFFFE0
07FFFFFFFFFFFFFFFF80
01FFFFFFFFFFFFFFFE00
00000000000000000000
00000000000000000000
00000000000000000000
00000000000000000000
00000000000000000000
00000000000000000000
00000000000000000000
00000000000000000000
00000000000000000000
00000000000000000000
01FFFFFFFFFFFFFFFE00
07FFFFFFFFFFFFFFFF80
0FFFFFFFFFFFFFFFFFE0
1FFFFFFFFFFFFFFFFFF0
3FFFFFFFFFFFFFFFFFF0
7FFFFFFFFFFFFFFFFFF8
7FFFFFFFFFFFFFFFFFFC
FFFFFFFFFFFFFFFFFFFC
FFFFFFFFFFFFFFFFFFFC
FFFFFFFFFFFFFFFFFFFC
FFFFFFFFFFFFFFFFFFFC
FFFFFFFFFFFFFFFFFFFC
FFFFFFFFFFFFFFFFFFFC
FFFFFFFFFFFFFFFFFFFC
7FFFFFFFFFFFFFFFFFFC
7FFFFFFFFFFFFFFFFFF8
3FFFFFFFFFFFFFFFFFF8
1FFFFFFFFFFFFFFFFFF0
0FFFFFFFFFFFFFFFFFE0
07FFFFFFFFFFFFFFFF80
01FFFFFFFFFFFFFFFE00
ENDCHAR
STARTCHAR 003E
ENCODING 62
SWIDTH 516 0
DWIDTH 90 0
BBX 81 82 3 21
BITMAP
01FC000000000000000000
07FF000000000000000000
0FFFC00000000000000000
3FFFF00000000000000000
3FFFFC0000000000000000
7FFFFF0000000000000000
7FFFFFC000000000000000
FFFFFFF000000000000000
FFFFFFFC00000000000000
FFFFFFFF00000000000000
FFFFFFFFC0000000000000
FFFFFFFFF0000000000000
FFFFFFFFFC000000000000
FFFFFFFFFF000000000000
7FFFFFFFFFC00000000000
7FFFFFFFFFF00000000000
3FFFFFFFFFFC0000000000
1FFFFFFFFFFF0000000000
0FFFFFFFFFFFC000000000
07FFFFFFFFFFF000000000
01FFFFFFFFFFFC00000000
007FFFFFFFFFFF00000000
001FFFFFFFFFFFC0000000
0007FFFFFFFFFFF0000000
0001FFFFFFFFFFFC000000
00007FFFFFFFFFFF000000
00001FFFFFFFFFFFC00000
000007FFFFFFFFFFF00000
000001FFFFFFFFFFFC0000
0000007FFFFFFFFFFF0000
0000001FFFFFFFFFFFC000
00000007FFFFFFFFFFE000
00000001FFFFFFFFFFF800
000000007FFFFFFFFFFC00
000000001FFFFFFFFFFE00
0000000007FFFFFFFFFF00
0000000001FFFFFFFFFF00
00000000007FFFFFFFFF00
00000000001FFFFFFFFF80
000000000007FFFFFFFF80
000000000001FFFFFFFF80
000000000001FFFFFFFF80
000000000007FFFFFFFF80
00000000001FFFFFFFFF80
00000000007FFFFFFFFF00
0000000001FFFFFFFFFF00
0000000007FFFFFFFFFF00
000000001FFFFFFFFFFE00
000000007FFFFFFFFFFC00
00000001FFFFFFFFFFF800
00000007FFFFFFFFFFE000
0000001FFFFFFFFFFF8000
0000007FFFFFFFFFFE0000
000001FFFFFFFFFFFC0000
000007FFFFFFFFFFF00000
00001FFFFFFFFFFFC00000
00007FFFFFFFFFFF000000
0001FFFFFFFFFFFC000000
0007FFFFFFFFFFF0000000
001FFFFFFFFFFFC0000000
007FFFFFFFFFFF00000000
01FFFFFFFFFFFC00000000
07FFFFFFFFFFF000000000
0FFFFFFFFFFFC000000000
1FFFFFFFFFFF0000000000
3FFFFFFFFFFC0000000000
7FFFFFFFFFF00000000000
7FFFFFFFFFC00000000000
FFFFFFFFFF000000000000
FFFFFFFFFC000000000000
FFFFFFFFF0000000000000
FFFFFFFFC0000000000000
FFFFFFFF00000000000000
FFFFFFFC00000000000000
FFFFFFF000000000000000
7FFFFFC000000000000000
7FFFFF0000000000000000
3FFFFC0000000000000000
1FFFF00000000000000000
0FFFC00000000000000000
07FF000000000000000000
01FC000000000000000000
ENDCHAR
STARTCHAR 003F
ENCODING 63
SWIDTH 499 0
DWIDTH 87 0
BBX 78 130 3 -1
BITMAP
01FFFFFFFFFFF8000000
07FFFFFFFFFFFF800000
0FFFFFFFFFFFFFF00000
1FFFFFFFFFFFFFFC0000
3FFFFFFFFFFFFFFF0000
7FFFFFFFFFFFFFFF8000
7FFFFFFFFFFFFFFFC000
FFFFFFFFFFFFFFFFF000
FFFFFFFFFFFFFFFFF800
FFFFFFFFFFFFFFFFFC00
FFFFFFFFFFFFFFFFFC00
FFFFFFFFFFFFFFFFFE00
FFFFFFFFFFFFFFFFFF00
FFFFFFFFFFFFFFFFFF00
7FFFFFFFFFFFFFFFFF80
7FFFFFFFFFFFFFFFFFC0
3FFFFFFFFFFFFFFFFFC0
1FFFFFFFFFFFFFFFFFE0
0FFFFFFFFFFFFFFFFFE0
07FFFFFFFFFFFFFFFFE0
01FFFFFFFFFFFFFFFFF0
0000000000003FFFFFF0
0000000000000FFFFFF0
00000000000007FFFFF8
00000000000003FFFFF8
00000000000001FFFFF8
00000000000000FFFFF8
00000000000000FFFFF8
000000000000007FFFFC
000000000000007FFFFC
000000000000007FFFFC
000000000000007FFFFC
000000000000007FFFFC
000000000000007FFFFC
000000000000007FFFFC
000000000000007FFFFC
000000000000007FFFFC
000000000000007FFFFC
000000000000007FFFFC
000000000000007FFFFC
000000000000007FFFFC
000000000000007FFFFC
000000000000007FFFFC
000000000000007FFFFC
000000000000007FFFFC
00000000000000FFFFFC
00000000000000FFFFFC
00000000000001FFFFFC
00000000000003FFFFF8
00000000000007FFFFF8
0000000000000FFFFFF8
0000000000003FFFFFF8
000001FFFFFFFFFFFFF0
000007FFFFFFFFFFFFF0
00001FFFFFFFFFFFFFF0
00003FFFFFFFFFFFFFE0
00003FFFFFFFFFFFFFE0
00007FFFFFFFFFFFFFC0
00007FFFFFFFFFFFFF80
0000FFFFFFFFFFFFFF80
0000FFFFFFFFFFFFFF00
0000FFFFFFFFFFFFFE00
0000FFFFFFFFFFFFFC00
0000FFFFFFFFFFFFFC00
0000FFFFFFFFFFFFF800
0000FFFFFFFFFFFFF000
0000FFFFFFFFFFFFC000
0000FFFFFFFFFFFF8000
0000FFFFFFFFFFFF0000
0000FFFFFFFFFFFC0000
0000FFFFFFFFFFF00000
0000FFFFFFFFFF800000
0000FFFFFFFFF8000000
0000FFFFF80000000000
0000FFFFF80000000000
0000FFFFF80000000000
0000FFFFF80000000000
0000FFFFF80000000000
0000FFFFF80000000000
0000FFFFF80000000000
0000FFFFF80000000000
0000FFFFF80000000000
0000FFFFF80000000000
0000FFFFF80000000000
0000FFFFF80000000000
0000FFFFF80000000000
0000FFFFF80000000000
0000FFFFF80000000000
0000FFFFF80000000000
0000FFFFF80000000000
0000FFFFF80000000000
0000FFFFF80000000000
00007FFFF00000000000
00007FFFF00000000000
00003FFFE00000000000
00001FFFC00000000000
00000FFF800000000000
000007FF000000000000
000001FC000000000000
00000000000000000000
00000000000000000000
00000000000000000000
00000000000000000000
00000000000000000000
00000000000000000000
00000000000000000000
00000000000000000000
00000000000000000000
00000000000000000000
000001FC000000000000
000007FF000000000000
00000FFF800000000000
00001FFFC00000000000
00003FFFE00000000000
00007FFFF00000000000
00007FFFF00000000000
0000FFFFF80000000000
0000FFFFF80000000000
0000FFFFF80000000000
0000FFFFF80000000000
0000FFFFF80000000000
0000FFFFF80000000000
0000FFFFF80000000000
00007FFFF00000000000
00007FFFF00000000000
00003FFFE00000000000
00001FFFC00000000000
00000FFF800000000000
000007FF000000000000
000001FC000000000000
ENDCHAR
STARTCHAR 0040
ENCODING 64
SWIDTH 677 0
DWIDTH 118 0
BBX 110 120 3 5
BITMAP
0000007FFFFFFFFFFFFFF0000000
000007FFFFFFFFFFFFFFFF000000
00003FFFFFFFFFFFFFFFFFE00000
0000FFFFFFFFFFFFFFFFFFF80000
0001FFFFFFFFFFFFFFFFFFFE0000
0007FFFFFFFFFFFFFFFFFFFF8000
000FFFFFFFFFFFFFFFFFFFFFC000
001FFFFFFFFFFFFFFFFFFFFFE000
003FFFFFFFFFFFFFFFFFFFFFF000
00FFFFFFFFFFFFFFFFFFFFFFF800
00FFFFFFFFFFFFFFFFFFFFFFFC00
01FFFFFFFFFFFFFFFFFFFFFFFE00
03FFFFFFFFFFFFFFFFFFFFFFFF00
07FFFFFFFFFFFFFFFFFFFFFFFF80
07FFFFFFFFFFFFFFFFFFFFFFFF80
0FFFFFFFFFFFFFFFFFFFFFFFFFC0
1FFFFFFFFFFFFFFFFFFFFFFFFFC0
1FFFFFFFFFFFFFFFFFFFFFFFFFE0
3FFFFFFFFFFFFFFFFFFFFFFFFFE0
3FFFFFFFFFFFFFFFFFFFFFFFFFF0
3FFFFFFFFFFFFFFFFFFFFFFFFFF0
7FFFFFF00000000000003FFFFFF8
7FFFFFC00000000000000FFFFFF8
7FFFFF0000000000000007FFFFF8
7FFFFE0000000000000003FFFFF8
FFFFFE0000000000000001FFFFFC
FFFFFC0000000000000001FFFFFC
FFFFFC0000000000000000FFFFFC
FFFFF80000000000000000FFFFFC
FFFFF800000000000000007FFFFC
FFFFF800000000000000007FFFFC
FFFFF8001FFFFFFFF800007FFFFC
FFFFF8003FFFFFFFFE00007FFFFC
FFFFF8007FFFFFFFFF00007FFFFC
FFFFF800FFFFFFFFFF80007FFFFC
FFFFF800FFFFFFFFFFC0007FFFFC
FFFFF801FFFFFFFFFFE0007FFFFC
FFFFF801FFFFFFFFFFE0007FFFFC
FFFFF801FFFFFFFFFFF0007FFFFC
FFFFF801FFFFFFFFFFF0007FFFFC
FFFFF801FFFFFFFFFFF0007FFFFC
FFFFF800FFFFFFFFFFF0007FFFFC
FFFFF800FFFFFFFFFFF0007FFFFC
FFFFF8007FFFFFFFFFF0007FFFFC
FFFFF8001FFFFFFFFFF0007FFFFC
FFFFF80000000001FFF0007FFFFC
FFFFF80000000001FFF0007FFFF8
FFFFF80000000001FFF0007FFFF8
FFFFF80000000001FFF0007FFFF8
FFFFF80000000001FFF0007FFFF8
FFFFF80000000001FFF0007FFFF8
FFFFF80000000001FFF0007FFFF8
FFFFF80000000001FFF0007FFFF8
FFFFF80003FFFFFFFFF0007FFFF8
FFFFF8000FFFFFFFFFF0007FFFF8
FFFFF8001FFFFFFFFFF0007FFFF8
FFFFF8003FFFFFFFFFF000FFFFF0
FFFFF8007FFFFFFFFFF000FFFFF0
FFFFF800FFFFFFFFFFF000FFFFF0
FFFFF800FFFFFFFFFFF000FFFFF0
FFFFF800FFFFFFFFFFF000FFFFF0
FFFFF801FFFFFFFFFFF000FFFFF0
FFFFF801FFFFFFFFFFF000FFFFE0
FFFFF801FFFFFFFFFFF001FFFFE0
FFFFF801FFF00001FFF001FFFFE0
FFFFF801FFF00001FFF001FFFFE0
FFFFF801FFF00001FFF001FFFFC0
FFFFF801FFF00001FFF003FFFFC0
FFFFF801FFF00001FFF003FFFFC0
FFFFF801FFF00001FFF007FFFF80
FFFFF801FFF00001FFF007FFFF80
FFFFF801FFF00001FFF00FFFFF80
FFFFF801FFF00001FFF01FFFFF00
FFFFF801FFF00001FFF07FFFFF00
FFFFF801FFFFFFFFFFFFFFFFFE00
FFFFF801FFFFFFFFFFFFFFFFFE00
FFFFF801FFFFFFFFFFFFFFFFFC00
FFFFF801FFFFFFFFFFFFFFFFF800
FFFFF801FFFFFFFFFFFFFFFFF000
FFFFF801FFFFFFFFFFFFFFFFE000
FFFFF800FFFFFFFFFFFFFFFFC000
FFFFF800FFFFFFFFFFFFFFFF8000
FFFFF800FFFFFFFFFFFFFFFF0000
FFFFF8007FFFFFFFFFFFFFFE0000
FFFFF8003FFFFFFFFFFFFFF80000
FFFFF8001FFFFFFFFFFFFFE00000
FFFFF8000FFFFFFFFFFFFF000000
FFFFF80003FFFFFFFFFFE0000000
FFFFF80000000000000000000000
FFFFF80000000000000000000000
FFFFF80000000000000000000000
FFFFF80000000000000000000000
FFFFFC0000000000000000000000
FFFFFC0000000000000000000000
7FFFFE0000000000000000000000
7FFFFF0000000000000000000000
7FFFFF8000000000000000000000
7FFFFFC000000000000000000000
3FFFFFF000000000000000000000
3FFFFFFFFFFFFFFFFFFFFFFFFE00
3FFFFFFFFFFFFFFFFFFFFFFFFF80
1FFFFFFFFFFFFFFFFFFFFFFFFFC0
1FFFFFFFFFFFFFFFFFFFFFFFFFE0
0FFFFFFFFFFFFFFFFFFFFFFFFFF0
0FFFFFFFFFFFFFFFFFFFFFFFFFF8
07FFFFFFFFFFFFFFFFFFFFFFFFF8
07FFFFFFFFFFFFFFFFFFFFFFFFFC
03FFFFFFFFFFFFFFFFFFFFFFFFFC
01FFFFFFFFFFFFFFFFFFFFFFFFFC
00FFFFFFFFFFFFFFFFFFFFFFFFFC
007FFFFFFFFFFFFFFFFFFFFFFFFC
003FFFFFFFFFFFFFFFFFFFFFFFFC
001FFFFFFFFFFFFFFFFFFFFFFFFC
000FFFFFFFFFFFFFFFFFFFFFFFF8
0007FFFFFFFFFFFFFFFFFFFFFFF8
0001FFFFFFFFFFFFFFFFFFFFFFF0
0000FFFFFFFFFFFFFFFFFFFFFFE0
00003FFFFFFFFFFFFFFFFFFFFFC0
000007FFFFFFFFFFFFFFFFFFFF80
0000007FFFFFFFFFFFFFFFFFFE00
ENDCHAR
STARTCHAR 0041
ENCODING 65
SWIDTH 499 0
DWIDTH 87 0
BBX 78 130 3 0
BITMAP
000FFFFFFFFFFFFFC000
007FFFFFFFFFFFFFF800
01FFFFFFFFFFFFFFFE00
03FFFFFFFFFFFFFFFF00
07FFFFFFFFFFFFFFFF80
0FFFFFFFFFFFFFFFFFC0
1FFFFFFFFFFFFFFFFFE0
3FFFFFFFFFFFFFFFFFF0
3FFFFFFFFFFFFFFFFFF0
7FFFFFFFFFFFFFFFFFF8
7FFFFFFFFFFFFFFFFFF8
FFFFFFFFFFFFFFFFFFF8
FFFFFFFFFFFFFFFFFFFC
FFFFFFFFFFFFFFFFFFFC
FFFFFFFFFFFFFFFFFFFC
FFFFFFFFFFFFFFFFFFFC
FFFFFFFFFFFFFFFFFFFC
FFFFFFFFFFFFFFFFFFFC
FFFFFFFFFFFFFFFFFFFC
FFFFFFFFFFFFFFFFFFFC
FFFFFFFFFFFFFFFFFFFC
FFFFF8000000007FFFFC
FFFFF8000000007FFFFC
FFFFF8000000007FFFFC
FFFFF8000000007FFFFC
FFFFF8000000007FFFFC
FFFFF8000000007FFFFC
FFFFF8000000007FFFFC
FFFFF8000000007FFFFC
FFFFF8000000007FFFFC
FFFFF8000000007FFFFC
FFFFF8000000007FFFFC
FFFFF8000000007FFFFC
FFFFF8000000007FFFFC
FFFFF8000000007FFFFC
FFFFF8000000007FFFFC
FFFFF8000000007FFFFC
FFFFF8000000007FFFFC
FFFFF8000000007FFFFC
FFFFF8000000007FFFFC
FFFFF8000000007FFFFC
FFFFF8000000007FFFFC
FFFFF8000000007FFFFC
FFFFF8000000007FFFFC
FFFFF8000000007FFFFC
FFFFF8000000007FFFFC
FFFFF8000000007FFFFC
FFFFF8000000007FFFFC
FFFFF8000000007FFFFC
FFFFF8000000007FFFFC
FFFFF8000000007FFFFC
FFFFF8000000007FFFFC
FFFFFFFFFFFFFFFFFFFC
FFFFFFFFFFFFFFFFFFFC
FFFFFFFFFFFFFFFFFFFC
FFFFFFFFFFFFFFFFFFFC
FFFFFFFFFFFFFFFFFFFC
FFFFFFFFFFFFFFFFFFFC
FFFFFFFFFFFFFFFFFFFC
FFFFFFFFFFFFFFFFFFFC
FFFFFFFFFFFFFFFFFFFC
FFFFFFFFFFFFFFFFFFFC
FFFFFFFFFFFFFFFFFFFC
FFFFFFFFFFFFFFFFFFFC
FFFFFFFFFFFFFFFFFFFC
FFFFFFFFFFFFFFFFFFFC
FFFFFFFFFFFFFFFFFFFC
FFFFFFFFFFFFFFFFFFFC
FFFFFFFFFFFFFFFFFFFC
FFFFFFFFFFFFFFFFFFFC
FFFFFFFFFFFFFFFFFFFC
FFFFFFFFFFFFFFFFFFFC
FFFFFFFFFFFFFFFFFFFC
FFFFF8000000007FFFFC
FFFFF8000000007FFFFC
FFFFF8000000007FFFFC
FFFFF8000000007FFFFC
FFFFF8000000007FFFFC
FFFFF8000000007FFFFC
FFFFF8000000007FFFFC
FFFFF8000000007FFFFC
FFFFF8000000007FFFFC
FFFFF8000000007FFFFC
FFFFF8000000007FFFFC
FFFFF8000000007FFFFC
FFFFF8000000007FFFFC
FFFFF8000000007FFFFC
FFFFF8000000007FFFFC
FFFFF8000000007FFFFC
FFFFF8000000007FFFFC
FFFFF8000000007FFFFC
FFFFF8000000007FFFFC
FFFFF8000000007FFFFC
FFFFF8000000007FFFFC
FFFFF8000000007FFFFC
FFFFF8000000007FFFFC
FFFFF8000000007FFFFC
FFFFF8000000007FFFFC
FFFFF8000000007FFFFC
FFFFF8000000007FFFFC
FFFFF8000000007FFFFC
FFFFF8000000007FFFFC
FFFFF8000000007FFFFC
FFFFF8000000007FFFFC
FFFFF8000000007FFFFC
FFFFF8000000007FFFFC
FFFFF8000000007FFFFC
FFFFF8000000007FFFFC
FFFFF8000000007FFFFC
FFFFF8000000007FFFFC
FFFFF8000000007FFFFC
FFFFF8000000007FFFFC
FFFFF8000000007FFFFC
FFFFF8000000007FFFFC
FFFFF8000000007FFFFC
FFFFF8000000007FFFFC
FFFFF8000000007FFFFC
FFFFF8000000007FFFFC
FFFFF8000000007FFFFC
FFFFF8000000007FFFFC
FFFFF8000000007FFFFC
FFFFF8000000007FFFFC
FFFFF8000000007FFFFC
7FFFF0000000003FFFF8
7FFFF0000000003FFFF8
3FFFE0000000001FFFF0
1FFFC0000000000FFFE0
0FFF800000000007FFC0
07FF000000000003FF80
01FC000000000000FE00
ENDCHAR
STARTCHAR 0042
ENCODING 66
SWIDTH 528 0
DWIDTH 92 0
BBX 84 130 3 0
BITMAP
000FFFFFFFFFFFC0000000
007FFFFFFFFFFFFE000000
01FFFFFFFFFFFFFF800000
03FFFFFFFFFFFFFFE00000
07FFFFFFFFFFFFFFF80000
0FFFFFFFFFFFFFFFFE0000
1FFFFFFFFFFFFFFFFF0000
3FFFFFFFFFFFFFFFFF8000
3FFFFFFFFFFFFFFFFFC000
7FFFFFFFFFFFFFFFFFE000
7FFFFFFFFFFFFFFFFFF000
FFFFFFFFFFFFFFFFFFF800
FFFFFFFFFFFFFFFFFFFC00
FFFFFFFFFFFFFFFFFFFE00
FFFFFFFFFFFFFFFFFFFE00
FFFFFFFFFFFFFFFFFFFF00
FFFFFFFFFFFFFFFFFFFF00
FFFFFFFFFFFFFFFFFFFF80
FFFFFFFFFFFFFFFFFFFF80
FFFFFFFFFFFFFFFFFFFFC0
FFFFFFFFFFFFFFFFFFFFC0
FFFFF800000000FFFFFFE0
FFFFF8000000003FFFFFE0
FFFFF8000000001FFFFFE0
FFFFF8000000000FFFFFE0
FFFFF80000000007FFFFF0
FFFFF80000000003FFFFF0
FFFFF80000000003FFFFF0
FFFFF80000000001FFFFF0
FFFFF80000000001FFFFF0
FFFFF80000000001FFFFF0
FFFFF80000000001FFFFF0
FFFFF80000000001FFFFF0
FFFFF80000000001FFFFF0
FFFFF80000000001FFFFF0
FFFFF80000000001FFFFF0
FFFFF80000000001FFFFF0
FFFFF80000000001FFFFF0
FFFFF80000000001FFFFF0
FFFFF80000000001FFFFF0
FFFFF80000000001FFFFF0
FFFFF80000000001FFFFF0
FFFFF80000000001FFFFF0
FFFFF80000000001FFFFF0
FFFFF80000000001FFFFF0
FFFFF80000000003FFFFF0
FFFFF80000000003FFFFF0
FFFFF80000000007FFFFE0
FFFFF8000000000FFFFFE0
FFFFF8000000001FFFFFE0
FFFFF8000000003FFFFFE0
FFFFF800000000FFFFFFC0
FFFFFFFFFFFFFFFFFFFFC0
FFFFFFFFFFFFFFFFFFFFC0
FFFFFFFFFFFFFFFFFFFF80
FFFFFFFFFFFFFFFFFFFF80
FFFFFFFFFFFFFFFFFFFF00
FFFFFFFFFFFFFFFFFFFE00
FFFFFFFFFFFFFFFFFFFE00
FFFFFFFFFFFFFFFFFFFC00
FFFFFFFFFFFFFFFFFFF800
FFFFFFFFFFFFFFFFFFF000
FFFFFFFFFFFFFFFFFFF000
FFFFFFFFFFFFFFFFFFF000
FFFFFFFFFFFFFFFFFFF800
FFFFFFFFFFFFFFFFFFFC00
FFFFFFFFFFFFFFFFFFFE00
FFFFFFFFFFFFFFFFFFFE00
FFFFFFFFFFFFFFFFFFFF00
FFFFFFFFFFFFFFFFFFFF80
FFFFFFFFFFFFFFFFFFFF80
FFFFFFFFFFFFFFFFFFFFC0
FFFFFFFFFFFFFFFFFFFFC0
FFFFF800000007FFFFFFC0
FFFFF800000001FFFFFFE0
FFFFF8000000007FFFFFE0
FFFFF8000000003FFFFFE0
FFFFF8000000000FFFFFE0
FFFFF80000000007FFFFF0
FFFFF80000000003FFFFF0
FFFFF80000000003FFFFF0
FFFFF80000000001FFFFF0
FFFFF80000000001FFFFF0
FFFFF80000000001FFFFF0
FFFFF80000000001FFFFF0
FFFFF80000000001FFFFF0
FFFFF80000000001FFFFF0
FFFFF80000000001FFFFF0
FFFFF80000000001FFFFF0
FFFFF80000000001FFFFF0
FFFFF80000000001FFFFF0
FFFFF80000000001FFFFF0
FFFFF80000000001FFFFF0
FFFFF80000000001FFFFF0
FFFFF80000000001FFFFF0
FFFFF80000000001FFFFF0
FFFFF80000000001FFFFF0
FFFFF80000000001FFFFF0
FFFFF80000000001FFFFF0
FFFFF80000000001FFFFF0
FFFFF80000000001FFFFF0
FFFFF80000000001FFFFF0
FFFFF80000000003FFFFF0
FFFFF80000000003FFFFF0
FFFFF80000000007FFFFF0
FFFFF80000000007FFFFE0
FFFFF8000000001FFFFFE0
FFFFF8000000003FFFFFE0
FFFFF800000000FFFFFFE0
FFFFFFFFFFFFFFFFFFFFE0
FFFFFFFFFFFFFFFFFFFFC0
FFFFFFFFFFFFFFFFFFFFC0
FFFFFFFFFFFFFFFFFFFF80
FFFFFFFFFFFFFFFFFFFF80
FFFFFFFFFFFFFFFFFFFF00
FFFFFFFFFFFFFFFFFFFF00
FFFFFFFFFFFFFFFFFFFE00
FFFFFFFFFFFFFFFFFFFE00
FFFFFFFFFFFFFFFFFFFC00
7FFFFFFFFFFFFFFFFFF800
7FFFFFFFFFFFFFFFFFF000
3FFFFFFFFFFFFFFFFFE000
3FFFFFFFFFFFFFFFFFC000
1FFFFFFFFFFFFFFFFF0000
0FFFFFFFFFFFFFFFFE0000
07FFFFFFFFFFFFFFF80000
03FFFFFFFFFFFFFFE00000
01FFFFFFFFFFFFFF000000
007FFFFFFFFFFFF8000000
000FFFFFFFFFFF00000000
ENDCHAR
STARTCHAR 0043
ENCODING 67
SWIDTH 499 0
DWIDTH 87 0
BBX 78 130 3 0
BITMAP
000FFFFFFFFFFFFFFE00
007FFFFFFFFFFFFFFF80
01FFFFFFFFFFFFFFFFE0
03FFFFFFFFFFFFFFFFF0
07FFFFFFFFFFFFFFFFF0
0FFFFFFFFFFFFFFFFFF8
1FFFFFFFFFFFFFFFFFFC
3FFFFFFFFFFFFFFFFFFC
3FFFFFFFFFFFFFFFFFFC
7FFFFFFFFFFFFFFFFFFC
7FFFFFFFFFFFFFFFFFFC
FFFFFFFFFFFFFFFFFFFC
FFFFFFFFFFFFFFFFFFFC
FFFFFFFFFFFFFFFFFFFC
FFFFFFFFFFFFFFFFFFFC
FFFFFFFFFFFFFFFFFFF8
FFFFFFFFFFFFFFFFFFF0
FFFFFFFFFFFFFFFFFFF0
FFFFFFFFFFFFFFFFFFE0
FFFFFFFFFFFFFFFFFF80
FFFFFFFFFFFFFFFFFE00
FFFFF800000000000000
FFFFF800000000000000
FFFFF800000000000000
FFFFF800000000000000
FFFFF800000000000000
FFFFF800000000000000
FFFFF800000000000000
FFFFF800000000000000
FFFFF800000000000000
FFFFF800000000000000
FFFFF800000000000000
FFFFF800000000000000
FFFFF800000000000000
FFFFF800000000000000
FFFFF800000000000000
FFFFF800000000000000
FFFFF800000000000000
FFFFF800000000000000
FFFFF800000000000000
FFFFF800000000000000
FFFFF800000000000000
FFFFF800000000000000
FFFFF800000000000000
FFFFF800000000000000
FFFFF800000000000000
FFFFF800000000000000
FFFFF800000000000000
FFFFF800000000000000
FFFFF800000000000000
FFFFF800000000000000
FFFFF800000000000000
FFFFF800000000000000
FFFFF800000000000000
FFFFF800000000000000
FFFFF800000000000000
FFFFF800000000000000
FFFFF800000000000000
FFFFF800000000000000
FFFFF800000000000000
FFFFF800000000000000
FFFFF800000000000000
FFFFF800000000000000
FFFFF800000000000000
FFFFF800000000000000
FFFFF800000000000000
FFFFF800000000000000
FFFFF800000000000000
FFFFF800000000000000
FFFFF800000000000000
FFFFF800000000000000
FFFFF800000000000000
FFFFF800000000000000
FFFFF800000000000000
FFFFF800000000000000
FFFFF800000000000000
FFFFF800000000000000
FFFFF800000000000000
FFFFF800000000000000
FFFFF800000000000000
FFFFF800000000000000
FFFFF800000000000000
FFFFF800000000000000
FFFFF800000000000000
FFFFF800000000000000
FFFFF800000000000000
FFFFF800000000000000
FFFFF800000000000000
FFFFF800000000000000
FFFFF800000000000000
FFFFF800000000000000
FFFFF800000000000000
FFFFF800000000000000
FFFFF800000000000000
FFFFF800000000000000
FFFFF800000000000000
FFFFF800000000000000
FFFFF800000000000000
FFFFF800000000000000
FFFFF800000000000000
FFFFF800000000000000
FFFFF800000000000000
FFFFF800000000000000
FFFFF800000000000000
FFFFF800000000000000
FFFFF800000000000000
FFFFF800000000000000
FFFFF800000000000000
FFFFF800000000000000
FFFFFFFFFFFFFFFFFE00
FFFFFFFFFFFFFFFFFF80
FFFFFFFFFFFFFFFFFFE0
FFFFFFFFFFFFFFFFFFF0
FFFFFFFFFFFFFFFFFFF0
FFFFFFFFFFFFFFFFFFF8
FFFFFFFFFFFFFFFFFFFC
FFFFFFFFFFFFFFFFFFFC
FFFFFFFFFFFFFFFFFFFC
FFFFFFFFFFFFFFFFFFFC
7FFFFFFFFFFFFFFFFFFC
7FFFFFFFFFFFFFFFFFFC
3FFFFFFFFFFFFFFFFFFC
3FFFFFFFFFFFFFFFFFF8
1FFFFFFFFFFFFFFFFFF8
0FFFFFFFFFFFFFFFFFF0
07FFFFFFFFFFFFFFFFE0
03FFFFFFFFFFFFFFFFC0
01FFFFFFFFFFFFFFFF00
007FFFFFFFFFFFFFFE00
000FFFFFFFFFFFFFF800
ENDCHAR
STARTCHAR 0044
ENCODING 68
SWIDTH 528 0
DWIDTH 92 0
BBX 84 130 3 0
BITMAP
000FFFFFFFFFFFC0000000
007FFFFFFFFFFFFE000000
01FFFFFFFFFFFFFF800000
03FFFFFFFFFFFFFFE00000
07FFFFFFFFFFFFFFF80000
0FFFFFFFFFFFFFFFFE0000
1FFFFFFFFFFFFFFFFF0000
3FFFFFFFFFFFFFFFFF8000
3FFFFFFFFFFFFFFFFFC000
7FFFFFFFFFFFFFFFFFE000
7FFFFFFFFFFFFFFFFFF000
FFFFFFFFFFFFFFFFFFF800
FFFFFFFFFFFFFFFFFFFC00
FFFFFFFFFFFFFFFFFFFE00
FFFFFFFFFFFFFFFFFFFE00
FFFFFFFFFFFFFFFFFFFF00
FFFFFFFFFFFFFFFFFFFF00
FFFFFFFFFFFFFFFFFFFF80
FFFFFFFFFFFFFFFFFFFF80
FFFFFFFFFFFFFFFFFFFFC0
FFFFFFFFFFFFFFFFFFFFC0
FFFFF800000000FFFFFFE0
FFFFF8000000003FFFFFE0
FFFFF8000000001FFFFFE0
FFFFF8000000000FFFFFE0
FFFFF80000000007FFFFF0
FFFFF80000000003FFFFF0
FFFFF80000000003FFFFF0
FFFFF80000000001FFFFF0
FFFFF80000000001FFFFF0
FFFFF80000000001FFFFF0
FFFFF80000000001FFFFF0
FFFFF80000000001FFFFF0
FFFFF80000000001FFFFF0
FFFFF80000000001FFFFF0
FFFFF80000000001FFFFF0
FFFFF80000000001FFFFF0
FFFFF80000000001FFFFF0
FFFFF80000000001FFFFF0
FFFFF80000000001FFFFF0
FFFFF80000000001FFFFF0
FFFFF80000000001FFFFF0
FFFFF80000000001FFFFF0
FFFFF80000000001FFFFF0
FFFFF80000000001FFFFF0
FFFFF80000000001FFFFF0
FFFFF80000000001FFFFF0
FFFFF80000000001FFFFF0
FFFFF80000000001FFFFF0
FFFFF80000000001FFFFF0
FFFFF80000000001FFFFF0
FFFFF80000000001FFFFF0
FFFFF80000000001FFFFF0
FFFFF80000000001FFFFF0
FFFFF80000000001FFFFF0
FFFFF80000000001FFFFF0
FFFFF80000000001FFFFF0
FFFFF80000000001FFFFF0
FFFFF80000000001FFFFF0
FFFFF80000000001FFFFF0
FFFFF80000000001FFFFF0
FFFFF80000000001FFFFF0
FFFFF80000000001FFFFF0
FFFFF80000000001FFFFF0
FFFFF80000000001FFFFF0
FFFFF80000000001FFFFF0
FFFFF80000000001FFFFF0
FFFFF80000000001FFFFF0
FFFFF80000000001FFFFF0
FFFFF80000000001FFFFF0
FFFFF80000000001FFFFF0
FFFFF80000000001FFFFF0
FFFFF80000000001FFFFF0
FFFFF80000000001FFFFF0
FFFFF80000000001FFFFF0
FFFFF80000000001FFFFF0
FFFFF80000000001FFFFF0
FFFFF80000000001FFFFF0
FFFFF80000000001FFFFF0
FFFFF80000000001FFFFF0
FFFFF80000000001FFFFF0
FFFFF80000000001FFFFF0
FFFFF80000000001FFFFF0
FFFFF80000000001FFFFF0
FFFFF80000000001FFFFF0
FFFFF80000000001FFFFF0
FFFFF80000000001FFFFF0
FFFFF80000000001FFFFF0
FFFFF80000000001FFFFF0
FFFFF80000000001FFFFF0
FFFFF80000000001FFFFF0
FFFFF80000000001FFFFF0
FFFFF80000000001FFFFF0
FFFFF80000000001FFFFF0
FFFFF80000000001FFFFF0
FFFFF80000000001FFFFF0
FFFFF80000000001FFFFF0
FFFFF80000000001FFFFF0
FFFFF80000000001FFFFF0
FFFFF80000000001FFFFF0
FFFFF80000000001FFFFF0
FFFFF80000000001FFFFF0
FFFFF80000000003FFFFF0
FFFFF80000000003FFFFF0
FFFFF80000000007FFFFF0
FFFFF8000000000FFFFFE0
FFFFF8000000001FFFFFE0
FFFFF8000000003FFFFFE0
FFFFF800000000FFFFFFE0
FFFFFFFFFFFFFFFFFFFFC0
FFFFFFFFFFFFFFFFFFFFC0
FFFFFFFFFFFFFFFFFFFF80
FFFFFFFFFFFFFFFFFFFF80
FFFFFFFFFFFFFFFFFFFF80
FFFFFFFFFFFFFFFFFFFF00
FFFFFFFFFFFFFFFFFFFE00
FFFFFFFFFFFFFFFFFFFE00
FFFFFFFFFFFFFFFFFFFC00
FFFFFFFFFFFFFFFFFFF800
7FFFFFFFFFFFFFFFFFF000
7FFFFFFFFFFFFFFFFFE000
3FFFFFFFFFFFFFFFFFC000
3FFFFFFFFFFFFFFFFF8000
1FFFFFFFFFFFFFFFFF0000
0FFFFFFFFFFFFFFFFE0000
07FFFFFFFFFFFFFFF80000
03FFFFFFFFFFFFFFE00000
01FFFFFFFFFFFFFF800000
007FFFFFFFFFFFFE000000
000FFFFFFFFFFFC0000000
ENDCHAR
STARTCHAR 0045
ENCODING 69
SWIDTH 499 0
DWIDTH 87 0
BBX 78 130 3 0
BITMAP
000FFFFFFFFFFFFFFE00
007FFFFFFFFFFFFFFF80
01FFFFFFFFFFFFFFFFE0
03FFFFFFFFFFFFFFFFF0
07FFFFFFFFFFFFFFFFF0
0FFFFFFFFFFFFFFFFFF8
1FFFFFFFFFFFFFFFFFFC
3FFFFFFFFFFFFFFFFFFC
3FFFFFFFFFFFFFFFFFFC
7FFFFFFFFFFFFFFFFFFC
7FFFFFFFFFFFFFFFFFFC
FFFFFFFFFFFFFFFFFFFC
FFFFFFFFFFFFFFFFFFFC
FFFFFFFFFFFFFFFFFFFC
FFFFFFFFFFFFFFFFFFFC
FFFFFFFFFFFFFFFFFFF8
FFFFFFFFFFFFFFFFFFF0
FFFFFFFFFFFFFFFFFFF0
FFFFFFFFFFFFFFFFFFE0
FFFFFFFFFFFFFFFFFF80
FFFFFFFFFFFFFFFFFE00
FFFFF800000000000000
FFFFF800000000000000
FFFFF800000000000000
FFFFF800000000000000
FFFFF800000000000000
FFFFF800000000000000
FFFFF800000000000000
FFFFF800000000000000
FFFFF800000000000000
FFFFF800000000000000
FFFFF800000000000000
FFFFF800000000000000
FFFFF800000000000000
FFFFF800000000000000
FFFFF800000000000000
FFFFF800000000000000
FFFFF800000000000000
FFFFF800000000000000
FFFFF800000000000000
FFFFF800000000000000
FFFFF800000000000000
FFFFF800000000000000
FFFFF800000000000000
FFFFF800000000000000
FFFFF800000000000000
FFFFF800000000000000
FFFFF800000000000000
FFFFF800000000000000
FFFFF800000000000000
FFFFF800000000000000
FFFFF800000000000000
FFFFFFFFFFFFFFF80000
FFFFFFFFFFFFFFFE0000
FFFFFFFFFFFFFFFF0000
FFFFFFFFFFFFFFFF8000
FFFFFFFFFFFFFFFFC000
FFFFFFFFFFFFFFFFE000
FFFFFFFFFFFFFFFFE000
FFFFFFFFFFFFFFFFE000
FFFFFFFFFFFFFFFFF000
FFFFFFFFFFFFFFFFF000
FFFFFFFFFFFFFFFFF000
FFFFFFFFFFFFFFFFF000
FFFFFFFFFFFFFFFFF000
FFFFFFFFFFFFFFFFE000
FFFFFFFFFFFFFFFFE000
FFFFFFFFFFFFFFFFE000
FFFFFFFFFFFFFFFFC000
FFFFFFFFFFFFFFFF8000
FFFFFFFFFFFFFFFF0000
FFFFFFFFFFFFFFFE0000
FFFFFFFFFFFFFFF80000
FFFFF800000000000000
FFFFF800000000000000
FFFFF800000000000000
FFFFF800000000000000
FFFFF800000000000000
FFFFF800000000000000
FFFFF800000000000000
FFFFF800000000000000
FFFFF800000000000000
FFFFF800000000000000
FFFFF800000000000000
FFFFF800000000000000
FFFFF800000000000000
FFFFF800000000000000
FFFFF800000000000000
FFFFF800000000000000
FFFFF800000000000000
FFFFF800000000000000
FFFFF800000000000000
FFFFF800000000000000
FFFFF800000000000000
FFFFF800000000000000
FFFFF800000000000000
FFFFF800000000000000
FFFFF800000000000000
FFFFF800000000000000
FFFFF800000000000000
FFFFF800000000000000
FFFFF800000000000000
FFFFF800000000000000
FFFFF800000000000000
FFFFF800000000000000
FFFFF800000000000000
FFFFF800000000000000
FFFFF800000000000000
FFFFF800000000000000
FFFFFFFFFFFFFFFFFE00
FFFFFFFFFFFFFFFFFF80
FFFFFFFFFFFFFFFFFFE0
FFFFFFFFFFFFFFFFFFF0
FFFFFFFFFFFFFFFFFFF0
FFFFFFFFFFFFFFFFFFF8
FFFFFFFFFFFFFFFFFFFC
FFFFFFFFFFFFFFFFFFFC
FFFFFFFFFFFFFFFFFFFC
FFFFFFFFFFFFFFFFFFFC
7FFFFFFFFFFFFFFFFFFC
7FFFFFFFFFFFFFFFFFFC
3FFFFFFFFFFFFFFFFFFC
3FFFFFFFFFFFFFFFFFF8
1FFFFFFFFFFFFFFFFFF8
0FFFFFFFFFFFFFFFFFF0
07FFFFFFFFFFFFFFFFE0
03FFFFFFFFFFFFFFFFC0
01FFFFFFFFFFFFFFFF00
007FFFFFFFFFFFFFFE00
000FFFFFFFFFFFFFF800
ENDCHAR
STARTCHAR 0046
ENCODING 70
SWIDTH 476 0
DWIDTH 83 0
BBX 79 130 2 0
BITMAP
000FFFFFFFFFFFFFFE00
007FFFFFFFFFFFFFFFC0
01FFFFFFFFFFFFFFFFE0
03FFFFFFFFFFFFFFFFF0
07FFFFFFFFFFFFFFFFF8
0FFFFFFFFFFFFFFFFFF8
1FFFFFFFFFFFFFFFFFFC
3FFFFFFFFFFFFFFFFFFC
3FFFFFFFFFFFFFFFFFFC
7FFFFFFFFFFFFFFFFFFC
7FFFFFFFFFFFFFFFFFFE
7FFFFFFFFFFFFFFFFFFE
7FFFFFFFFFFFFFFFFFFC
FFFFFFFFFFFFFFFFFFFC
FFFFFFFFFFFFFFFFFFFC
FFFFFFFFFFFFFFFFFFF8
FFFFFFFFFFFFFFFFFFF8
FFFFFFFFFFFFFFFFFFF0
FFFFFFFFFFFFFFFFFFE0
FFFFFFFFFFFFFFFFFFC0
FFFFFFFFFFFFFFFFFE00
FFFFF800000000000000
FFFFF800000000000000
FFFFF800000000000000
FFFFF800000000000000
FFFFF800000000000000
FFFFF800000000000000
FFFFF800000000000000
FFFFF800000000000000
FFFFF800000000000000
FFFFF800000000000000
FFFFF800000000000000
FFFFF800000000000000
FFFFF800000000000000
FFFFF800000000000000
FFFFF800000000000000
FFFFF800000000000000
FFFFF800000000000000
FFFFF800000000000000
FFFFF800000000000000
FFFFF800000000000000
FFFFF800000000000000
FFFFF800000000000000
FFFFF800000000000000
FFFFF800000000000000
FFFFF800000000000000
FFFFF800000000000000
FFFFF800000000000000
FFFFF800000000000000
FFFFF800000000000000
FFFFF800000000000000
FFFFF800000000000000
FFFFFFFFFFFFFFF80000
FFFFFFFFFFFFFFFE0000
FFFFFFFFFFFFFFFF8000
FFFFFFFFFFFFFFFFC000
FFFFFFFFFFFFFFFFC000
FFFFFFFFFFFFFFFFE000
FFFFFFFFFFFFFFFFE000
FFFFFFFFFFFFFFFFF000
FFFFFFFFFFFFFFFFF000
FFFFFFFFFFFFFFFFF000
FFFFFFFFFFFFFFFFF000
FFFFFFFFFFFFFFFFF000
FFFFFFFFFFFFFFFFF000
FFFFFFFFFFFFFFFFF000
FFFFFFFFFFFFFFFFE000
FFFFFFFFFFFFFFFFE000
FFFFFFFFFFFFFFFFC000
FFFFFFFFFFFFFFFFC000
FFFFFFFFFFFFFFFF8000
FFFFFFFFFFFFFFFE0000
FFFFFFFFFFFFFFF80000
FFFFF800000000000000
FFFFF800000000000000
FFFFF800000000000000
FFFFF800000000000000
FFFFF800000000000000
FFFFF800000000000000
FFFFF800000000000000
FFFFF800000000000000
FFFFF800000000000000
FFFFF800000000000000
FFFFF800000000000000
FFFFF800000000000000
FFFFF800000000000000
FFFFF800000000000000
FFFFF800000000000000
FFFFF800000000000000
FFFFF800000000000000
FFFFF800000000000000
FFFFF800000000000000
FFFFF800000000000000
FFFFF800000000000000
FFFFF800000000000000
FFFFF800000000000000
FFFFF800000000000000
FFFFF800000000000000
FFFFF800000000000000
FFFFF800000000000000
FFFFF800000000000000
FFFFF800000000000000
FFFFF800000000000000
FFFFF800000000000000
FFFFF800000000000000
FFFFF800000000000000
FFFFF800000000000000
FFFFF800000000000000
FFFFF800000000000000
FFFFF800000000000000
FFFFF800000000000000
FFFFF800000000000000
FFFFF800000000000000
FFFFF800000000000000
FFFFF800000000000000
FFFFF800000000000000
FFFFF800000000000000
FFFFF800000000000000
FFFFF800000000000000
FFFFF800000000000000
FFFFF800000000000000
FFFFF800000000000000
7FFFF800000000000000
7FFFF800000000000000
7FFFF000000000000000
3FFFF000000000000000
1FFFE000000000000000
0FFFC000000000000000
07FF0000000000000000
01FC0000000000000000
ENDCHAR
STARTCHAR 0047
ENCODING 71
SWIDTH 499 0
DWIDTH 87 0
BBX 78 130 3 0
BITMAP
000FFFFFFFFFFFFFFE00
007FFFFFFFFFFFFFFF80
01FFFFFFFFFFFFFFFFC0
03FFFFFFFFFFFFFFFFE0
07FFFFFFFFFFFFFFFFF0
0FFFFFFFFFFFFFFFFFF8
1FFFFFFFFFFFFFFFFFF8
3FFFFFFFFFFFFFFFFFFC
3FFFFFFFFFFFFFFFFFFC
7FFFFFFFFFFFFFFFFFFC
7FFFFFFFFFFFFFFFFFFC
FFFFFFFFFFFFFFFFFFFC
FFFFFFFFFFFFFFFFFFFC
FFFFFFFFFFFFFFFFFFFC
FFFFFFFFFFFFFFFFFFF8
FFFFFFFFFFFFFFFFFFF8
FFFFFFFFFFFFFFFFFFF0
FFFFFFFFFFFFFFFFFFE0
FFFFFFFFFFFFFFFFFFC0
FFFFFFFFFFFFFFFFFF80
FFFFFFFFFFFFFFFFFE00
FFFFF800000000000000
FFFFF800000000000000
FFFFF800000000000000
FFFFF800000000000000
FFFFF800000000000000
FFFFF800000000000000
FFFFF800000000000000
FFFFF800000000000000
FFFFF800000000000000
FFFFF800000000000000
FFFFF800000000000000
FFFFF800000000000000
FFFFF800000000000000
FFFFF800000000000000
FFFFF800000000000000
FFFFF800000000000000
FFFFF800000000000000
FFFFF800000000000000
FFFFF800000000000000
FFFFF800000000000000
FFFFF800000000000000
FFFFF800000000000000
FFFFF800000000000000
FFFFF800000000000000
FFFFF800000000000000
FFFFF800000000000000
FFFFF800000000000000
FFFFF800000000000000
FFFFF800000000000000
FFFFF800000000000000
FFFFF800000000000000
FFFFF800001FFFFFFE00
FFFFF800007FFFFFFF80
FFFFF80000FFFFFFFFC0
FFFFF80001FFFFFFFFE0
FFFFF80003FFFFFFFFF0
FFFFF80007FFFFFFFFF8
FFFFF80007FFFFFFFFF8
FFFFF8000FFFFFFFFFFC
FFFFF8000FFFFFFFFFFC
FFFFF8000FFFFFFFFFFC
FFFFF8000FFFFFFFFFFC
FFFFF8000FFFFFFFFFFC
FFFFF8000FFFFFFFFFFC
FFFFF8000FFFFFFFFFFC
FFFFF80007FFFFFFFFFC
FFFFF80007FFFFFFFFFC
FFFFF80003FFFFFFFFFC
FFFFF80001FFFFFFFFFC
FFFFF80000FFFFFFFFFC
FFFFF800007FFFFFFFFC
FFFFF800001FFFFFFFFC
FFFFF8000000007FFFFC
FFFFF8000000007FFFFC
FFFFF8000000007FFFFC
FFFFF8000000007FFFFC
FFFFF8000000007FFFFC
FFFFF8000000007FFFFC
FFFFF8000000007FFFFC
FFFFF8000000007FFFFC
FFFFF8000000007FFFFC
FFFFF8000000007FFFFC
FFFFF8000000007FFFFC
FFFFF8000000007FFFFC
FFFFF8000000007FFFFC
FFFFF8000000007FFFFC
FFFFF8000000007FFFFC
FFFFF8000000007FFFFC
FFFFF8000000007FFFFC
FFFFF8000000007FFFFC
FFFFF8000000007FFFFC
FFFFF8000000007FFFFC
FFFFF8000000007FFFFC
FFFFF8000000007FFFFC
FFFFF8000000007FFFFC
FFFFF8000000007FFFFC
FFFFF8000000007FFFFC
FFFFF8000000007FFFFC
FFFFF8000000007FFFFC
FFFFF8000000007FFFFC
FFFFF8000000007FFFFC
FFFFF8000000007FFFFC
FFFFF8000000007FFFFC
FFFFF8000000007FFFFC
FFFFF8000000007FFFFC
FFFFF8000000007FFFFC
FFFFF8000000007FFFFC
FFFFF8000000007FFFFC
FFFFFFFFFFFFFFFFFFFC
FFFFFFFFFFFFFFFFFFFC
FFFFFFFFFFFFFFFFFFFC
FFFFFFFFFFFFFFFFFFFC
FFFFFFFFFFFFFFFFFFFC
FFFFFFFFFFFFFFFFFFFC
FFFFFFFFFFFFFFFFFFFC
FFFFFFFFFFFFFFFFFFFC
FFFFFFFFFFFFFFFFFFFC
FFFFFFFFFFFFFFFFFFFC
7FFFFFFFFFFFFFFFFFFC
7FFFFFFFFFFFFFFFFFFC
3FFFFFFFFFFFFFFFFFFC
3FFFFFFFFFFFFFFFFFF8
1FFFFFFFFFFFFFFFFFF8
0FFFFFFFFFFFFFFFFFF0
07FFFFFFFFFFFFFFFFE0
03FFFFFFFFFFFFFFFFC0
01FFFFFFFFFFFFFFFF00
007FFFFFFFFFFFFFFC00
001FFFFFFFFFFFFFF800
ENDCHAR
STARTCHAR 0048
ENCODING 72
SWIDTH 499 0
DWIDTH 87 0
BBX 78 130 3 0
BITMAP
01FC000000000000FE00
07FF000000000003FF80
0FFF800000000007FFC0
1FFFC0000000000FFFE0
3FFFE0000000001FFFF0
7FFFF0000000003FFFF8
7FFFF0000000003FFFF8
FFFFF8000000007FFFFC
FFFFF8000000007FFFFC
FFFFF8000000007FFFFC
FFFFF8000000007FFFFC
FFFFF8000000007FFFFC
FFFFF8000000007FFFFC
FFFFF8000000007FFFFC
FFFFF8000000007FFFFC
FFFFF8000000007FFFFC
FFFFF8000000007FFFFC
FFFFF8000000007FFFFC
FFFFF8000000007FFFFC
FFFFF8000000007FFFFC
FFFFF8000000007FFFFC
FFFFF8000000007FFFFC
FFFFF8000000007FFFFC
FFFFF8000000007FFFFC
FFFFF8000000007FFFFC
FFFFF8000000007FFFFC
FFFFF8000000007FFFFC
FFFFF8000000007FFFFC
FFFFF8000000007FFFFC
FFFFF8000000007FFFFC
FFFFF8000000007FFFFC
FFFFF8000000007FFFFC
FFFFF8000000007FFFFC
FFFFF8000000007FFFFC
FFFFF8000000007FFFFC
FFFFF8000000007FFFFC
FFFFF8000000007FFFFC
FFFFF8000000007FFFFC
FFFFF8000000007FFFFC
FFFFF8000000007FFFFC
FFFFF8000000007FFFFC
FFFFF8000000007FFFFC
FFFFF8000000007FFFFC
FFFFF8000000007FFFFC
FFFFF8000000007FFFFC
FFFFF8000000007FFFFC
FFFFF8000000007FFFFC
FFFFF8000000007FFFFC
FFFFF8000000007FFFFC
FFFFF8000000007FFFFC
FFFFF8000000007FFFFC
FFFFF8000000007FFFFC
FFFFFFFFFFFFFFFFFFFC
FFFFFFFFFFFFFFFFFFFC
FFFFFFFFFFFFFFFFFFFC
FFFFFFFFFFFFFFFFFFFC
FFFFFFFFFFFFFFFFFFFC
FFFFFFFFFFFFFFFFFFFC
FFFFFFFFFFFFFFFFFFFC
FFFFFFFFFFFFFFFFFFFC
FFFFFFFFFFFFFFFFFFFC
FFFFFFFFFFFFFFFFFFFC
FFFFFFFFFFFFFFFFFFFC
FFFFFFFFFFFFFFFFFFFC
FFFFFFFFFFFFFFFFFFFC
FFFFFFFFFFFFFFFFFFFC
FFFFFFFFFFFFFFFFFFFC
FFFFFFFFFFFFFFFFFFFC
FFFFFFFFFFFFFFFFFFFC
FFFFFFFFFFFFFFFFFFFC
FFFFFFFFFFFFFFFFFFFC
FFFFFFFFFFFFFFFFFFFC
FFFFFFFFFFFFFFFFFFFC
FFFFF8000000007FFFFC
FFFFF8000000007FFFFC
FFFFF8000000007FFFFC
FFFFF8000000007FFFFC
FFFFF8000000007FFFFC
FFFFF8000000007FFFFC
FFFFF8000000007FFFFC
FFFFF8000000007FFFFC
FFFFF8000000007FFFFC
FFFFF8000000007FFFFC
FFFFF8000000007FFFFC
FFFFF8000000007FFFFC
FFFFF8000000007FFFFC
FFFFF8000000007FFFFC
FFFFF8000000007FFFFC
FFFFF8000000007FFFFC
FFFFF8000000007FFFFC
FFFFF8000000007FFFFC
FFFFF8000000007FFFFC
FFFFF8000000007FFFFC
FFFFF8000000007FFFFC
FFFFF8000000007FFFFC
FFFFF8000000007FFFFC
FFFFF8000000007FFFFC
FFFFF8000000007FFFFC
FFFFF8000000007FFFFC
FFFFF8000000007FFFFC
FFFFF8000000007FFFFC
FFFFF8000000007FFFFC
FFFFF8000000007FFFFC
FFFFF8000000007FFFFC
FFFFF8000000007FFFFC
FFFFF8000000007FFFFC
FFFFF8000000007FFFFC
FFFFF8000000007FFFFC
FFFFF8000000007FFFFC
FFFFF8000000007FFFFC
FFFFF8000000007FFFFC
FFFFF8000000007FFFFC
FFFFF8000000007FFFFC
FFFFF8000000007FFFFC
FFFFF8000000007FFFFC
FFFFF8000000007FFFFC
FFFFF8000000007FFFFC
FFFFF8000000007FFFFC
FFFFF8000000007FFFFC
FFFFF8000000007FFFFC
FFFFF8000000007FFFFC
FFFFF8000000007FFFFC
FFFFF8000000007FFFFC
7FFFF0000000003FFFF8
7FFFF0000000003FFFF8
3FFFE0000000001FFFF0
1FFFC0000000000FFFE0
0FFF800000000007FFC0
07FF000000000003FF80
01FC000000000000FE00
ENDCHAR
STARTCHAR 0049
ENCODING 73
SWIDTH 172 0
DWIDTH 30 0
BBX 21 130 3 0
BITMAP
01FC00
07FF00
0FFF80
1FFFC0
3FFFE0
7FFFF0
7FFFF0
FFFFF8
FFFFF8
FFFFF8
FFFFF8
FFFFF8
FFFFF8
FFFFF8
FFFFF8
FFFFF8
FFFFF8
FFFFF8
FFFFF8
FFFFF8
FFFFF8
FFFFF8
FFFFF8
FFFFF8
FFFFF8
FFFFF8
FFFFF8
FFFFF8
FFFFF8
FFFFF8
FFFFF8
FFFFF8
FFFFF8
FFFFF8
FFFFF8
FFFFF8
FFFFF8
FFFFF8
FFFFF8
FFFFF8
FFFFF8
FFFFF8
FFFFF8
FFFFF8
FFFFF8
FFFFF8
FFFFF8
FFFFF8
FFFFF8
FFFFF8
FFFFF8
FFFFF8
FFFFF8
FFFFF8
FFFFF8
FFFFF8
FFFFF8
FFFFF8
FFFFF8
FFFFF8
FFFFF8
FFFFF8
FFFFF8
FFFFF8
FFFFF8
FFFFF8
FFFFF8
FFFFF8
FFFFF8
FFFFF8
FFFFF8
FFFFF8
FFFFF8
FFFFF8
FFFFF8
FFFFF8
FFFFF8
FFFFF8
FFFFF8
FFFFF8
FFFFF8
FFFFF8
FFFFF8
FFFFF8
FFFFF8
FFFFF8
FFFFF8
FFFFF8
FFFFF8
FFFFF8
FFFFF8
FFFFF8
FFFFF8
FFFFF8
FFFFF8
FFFFF8
FFFFF8
FFFFF8
FFFFF8
FFFFF8
FFFFF8
FFFFF8
FFFFF8
FFFFF8
FFFFF8
FFFFF8
FFFFF8
FFFFF8
FFFFF8
FFFFF8
FFFFF8
FFFFF8
FFFFF8
FFFFF8
FFFFF8
FFFFF8
FFFFF8
FFFFF8
FFFFF8
FFFFF8
FFFFF8
FFFFF8
FFFFF8
7FFFF0
7FFFF0
3FFFE0
1FFFC0
0FFF80
07FF00
01FC00
ENDCHAR
STARTCHAR 004A
ENCODING 74
SWIDTH 470 0
DWIDTH 82 0
BBX 73 130 3 0
BITMAP
000000000000001FC000
000000000000007FF000
00000000000000FFF800
00000000000001FFFC00
00000000000003FFFE00
00000000000007FFFF00
00000000000007FFFF00
0000000000000FFFFF80
0000000000000FFFFF80
0000000000000FFFFF80
0000000000000FFFFF80
0000000000000FFFFF80
0000000000000FFFFF80
0000000000000FFFFF80
0000000000000FFFFF80
0000000000000FFFFF80
0000000000000FFFFF80
0000000000000FFFFF80
0000000000000FFFFF80
0000000000000FFFFF80
0000000000000FFFFF80
0000000000000FFFFF80
0000000000000FFFFF80
0000000000000FFFFF80
0000000000000FFFFF80
0000000000000FFFFF80
0000000000000FFFFF80
0000000000000FFFFF80
0000000000000FFFFF80
0000000000000FFFFF80
0000000000000FFFFF80
0000000000000FFFFF80
0000000000000FFFFF80
0000000000000FFFFF80
0000000000000FFFFF80
0000000000000FFFFF80
0000000000000FFFFF80
0000000000000FFFFF80
0000000000000FFFFF80
0000000000000FFFFF80
0000000000000FFFFF80
0000000000000FFFFF80
0000000000000FFFFF80
0000000000000FFFFF80
0000000000000FFFFF80
0000000000000FFFFF80
0000000000000FFFFF80
0000000000000FFFFF80
0000000000000FFFFF80
0000000000000FFFFF80
0000000000000FFFFF80
0000000000000FFFFF80
0000000000000FFFFF80
0000000000000FFFFF80
0000000000000FFFFF80
0000000000000FFFFF80
0000000000000FFFFF80
0000000000000FFFFF80
0000000000000FFFFF80
0000000000000FFFFF80
0000000000000FFFFF80
0000000000000FFFFF80
0000000000000FFFFF80
0000000000000FFFFF80
0000000000000FFFFF80
0000000000000FFFFF80
0000000000000FFFFF80
0000000000000FFFFF80
0000000000000FFFFF80
0000000000000FFFFF80
0000000000000FFFFF80
0000000000000FFFFF80
0000000000000FFFFF80
0000000000000FFFFF80
0000000000000FFFFF80
0000000000000FFFFF80
0000000000000FFFFF80
0000000000000FFFFF80
0000000000000FFFFF80
0000000000000FFFFF80
0000000000000FFFFF80
0000000000000FFFFF80
0000000000000FFFFF80
0000000000000FFFFF80
0000000000000FFFFF80
0000000000000FFFFF80
0000000000000FFFFF80
0000000000000FFFFF80
0000000000000FFFFF80
0000000000000FFFFF80
0000000000000FFFFF80
0000000000000FFFFF80
0000000000000FFFFF80
0000000000000FFFFF80
0000000000000FFFFF80
0000000000000FFFFF80
0000000000000FFFFF80
0000000000000FFFFF80
0000000000000FFFFF80
0000000000000FFFFF80
0000000000000FFFFF80
0000000000000FFFFF80
0000000000001FFFFF80
0000000000001FFFFF80
0000000000003FFFFF80
0000000000007FFFFF00
000000000000FFFFFF00
000000000001FFFFFF00
000000000007FFFFFF00
01FFFFFFFFFFFFFFFE00
07FFFFFFFFFFFFFFFE00
0FFFFFFFFFFFFFFFFE00
1FFFFFFFFFFFFFFFFC00
3FFFFFFFFFFFFFFFFC00
7FFFFFFFFFFFFFFFF800
7FFFFFFFFFFFFFFFF000
FFFFFFFFFFFFFFFFF000
FFFFFFFFFFFFFFFFE000
FFFFFFFFFFFFFFFFC000
FFFFFFFFFFFFFFFF8000
FFFFFFFFFFFFFFFF0000
FFFFFFFFFFFFFFFE0000
FFFFFFFFFFFFFFFC0000
7FFFFFFFFFFFFFF80000
7FFFFFFFFFFFFFF00000
3FFFFFFFFFFFFFC00000
1FFFFFFFFFFFFF800000
0FFFFFFFFFFFFC000000
07FFFFFFFFFFF0000000
01FFFFFFFFFF00000000
ENDCHAR
STARTCHAR 004B
ENCODING 75
SWIDTH 499 0
DWIDTH 87 0
BBX 78 130 3 0
BITMAP
01FC000000000000FE00
07FF000000000003FF80
0FFF800000000007FFC0
1FFFC0000000000FFFE0
3FFFE0000000001FFFF0
7FFFF0000000003FFFF8
7FFFF0000000003FFFF8
FFFFF8000000007FFFFC
FFFFF8000000007FFFFC
FFFFF8000000007FFFFC
FFFFF8000000007FFFFC
FFFFF8000000007FFFFC
FFFFF8000000007FFFFC
FFFFF8000000007FFFFC
FFFFF8000000007FFFFC
FFFFF8000000007FFFFC
FFFFF8000000007FFFFC
FFFFF8000000007FFFFC
FFFFF8000000007FFFFC
FFFFF8000000007FFFFC
FFFFF8000000007FFFFC
FFFFF8000000007FFFFC
FFFFF8000000007FFFFC
FFFFF8000000007FFFFC
FFFFF8000000007FFFFC
FFFFF8000000007FFFFC
FFFFF8000000007FFFFC
FFFFF8000000007FFFFC
FFFFF8000000007FFFFC
FFFFF8000000007FFFFC
FFFFF8000000007FFFFC
FFFFF8000000007FFFFC
FFFFF8000000007FFFFC
FFFFF8000000007FFFFC
FFFFF8000000007FFFFC
FFFFF8000000007FFFFC
FFFFF8000000007FFFFC
FFFFF8000000007FFFFC
FFFFF8000000007FFFFC
FFFFF8000000007FFFFC
FFFFF8000000007FFFFC
FFFFF8000000007FFFFC
FFFFF8000000007FFFFC
FFFFF8000000007FFFFC
FFFFF8000000007FFFFC
FFFFF800000000FFFFFC
FFFFF800000000FFFFFC
FFFFF800000001FFFFFC
FFFFF800000003FFFFF8
FFFFF800000007FFFFF8
FFFFF80000000FFFFFF8
FFFFF80000003FFFFFF8
FFFFFFFFFFFFFFFFFFF0
FFFFFFFFFFFFFFFFFFF0
FFFFFFFFFFFFFFFFFFE0
FFFFFFFFFFFFFFFFFFE0
FFFFFFFFFFFFFFFFFFC0
FFFFFFFFFFFFFFFFFFC0
FFFFFFFFFFFFFFFFFF80
FFFFFFFFFFFFFFFFFF80
FFFFFFFFFFFFFFFFFF00
FFFFFFFFFFFFFFFFFE00
FFFFFFFFFFFFFFFFFC00
FFFFFFFFFFFFFFFFFC00
FFFFFFFFFFFFFFFFF800
FFFFFFFFFFFFFFFFE000
FFFFFFFFFFFFFFFFC000
FFFFFFFFFFFFFFFF8000
FFFFFFFFFFFFFFFF0000
FFFFFFFFFFFFFFFC0000
FFFFFFFFFFFFFFF00000
FFFFFFFFFFFFFF800000
FFFFFFFFFFFFFE000000
FFFFF800FFFFFE000000
FFFFF800FFFFFF000000
FFFFF8007FFFFF000000
FFFFF8007FFFFF800000
FFFFF8003FFFFF800000
FFFFF8003FFFFFC00000
FFFFF8001FFFFFC00000
FFFFF8001FFFFFE00000
FFFFF8000FFFFFE00000
FFFFF8000FFFFFF00000
FFFFF80007FFFFF80000
FFFFF80007FFFFF80000
FFFFF80003FFFFFC0000
FFFFF80003FFFFFC0000
FFFFF80001FFFFFE0000
FFFFF80001FFFFFE0000
FFFFF80000FFFFFF0000
FFFFF80000FFFFFF0000
FFFFF800007FFFFF8000
FFFFF800003FFFFF8000
FFFFF800003FFFFFC000
FFFFF800001FFFFFC000
FFFFF800001FFFFFE000
FFFFF800000FFFFFE000
FFFFF800000FFFFFF000
FFFFF8000007FFFFF000
FFFFF8000007FFFFF800
FFFFF8000003FFFFF800
FFFFF8000003FFFFFC00
FFFFF8000001FFFFFC00
FFFFF8000001FFFFFE00
FFFFF8000000FFFFFE00
FFFFF8000000FFFFFF00
FFFFF80000007FFFFF80
FFFFF80000007FFFFF80
FFFFF80000003FFFFFC0
FFFFF80000003FFFFFC0
FFFFF80000001FFFFFE0
FFFFF80000001FFFFFE0
FFFFF80000000FFFFFF0
FFFFF80000000FFFFFF0
FFFFF800000007FFFFF8
FFFFF800000003FFFFF8
FFFFF800000003FFFFF8
FFFFF800000001FFFFFC
FFFFF800000001FFFFFC
FFFFF800000000FFFFFC
FFFFF800000000FFFFFC
FFFFF8000000007FFFFC
FFFFF8000000007FFFFC
7FFFF0000000003FFFF8
7FFFF0000000003FFFF8
3FFFE0000000001FFFF0
1FFFC0000000001FFFF0
0FFF80000000000FFFE0
07FF000000000003FF80
01FC000000000000FE00
ENDCHAR
STARTCHAR 004C
ENCODING 76
SWIDTH 470 0
DWIDTH 82 0
BBX 73 130 3 0
BITMAP
01F80000000000000000
07FE0000000000000000
0FFF0000000000000000
1FFF8000000000000000
3FFF8000000000000000
7FFFC000000000000000
7FFFE000000000000000
FFFFE000000000000000
FFFFF000000000000000
FFFFF800000000000000
FFFFF800000000000000
FFFFF800000000000000
FFFFF800000000000000
FFFFF800000000000000
FFFFF800000000000000
FFFFF800000000000000
FFFFF800000000000000
FFFFF800000000000000
FFFFF800000000000000
FFFFF800000000000000
FFFFF800000000000000
FFFFF800000000000000
FFFFF800000000000000
FFFFF800000000000000
FFFFF800000000000000
FFFFF800000000000000
FFFFF800000000000000
FFFFF800000000000000
FFFFF800000000000000
FFFFF800000000000000
FFFFF800000000000000
FFFFF800000000000000
FFFFF800000000000000
FFFFF800000000000000
FFFFF800000000000000
FFFFF800000000000000
FFFFF800000000000000
FFFFF800000000000000
FFFFF800000000000000
FFFFF800000000000000
FFFFF800000000000000
FFFFF800000000000000
FFFFF800000000000000
FFFFF800000000000000
FFFFF800000000000000
FFFFF800000000000000
FFFFF800000000000000
FFFFF800000000000000
FFFFF800000000000000
FFFFF800000000000000
FFFFF800000000000000
FFFFF800000000000000
FFFFF800000000000000
FFFFF800000000000000
FFFFF800000000000000
FFFFF800000000000000
FFFFF800000000000000
FFFFF800000000000000
FFFFF800000000000000
FFFFF800000000000000
FFFFF800000000000000
FFFFF800000000000000
FFFFF800000000000000
FFFFF800000000000000
FFFFF800000000000000
FFFFF800000000000000
FFFFF800000000000000
FFFFF800000000000000
FFFFF800000000000000
FFFFF800000000000000
FFFFF800000000000000
FFFFF800000000000000
FFFFF800000000000000
FFFFF800000000000000
FFFFF800000000000000
FFFFF800000000000000
FFFFF800000000000000
FFFFF800000000000000
FFFFF800000000000000
FFFFF800000000000000
FFFFF800000000000000
FFFFF800000000000000
FFFFF800000000000000
FFFFF800000000000000
FFFFF800000000000000
FFFFF800000000000000
FFFFF800000000000000
FFFFF800000000000000
FFFFF800000000000000
FFFFF800000000000000
FFFFF800000000000000
FFFFF800000000000000
FFFFF800000000000000
FFFFF800000000000000
FFFFF800000000000000
FFFFF800000000000000
FFFFF800000000000000
FFFFF800000000000000
FFFFF800000000000000
FFFFF800000000000000
FFFFF800000000000000
FFFFF800000000000000
FFFFF800000000000000
FFFFF800000000000000
FFFFF800000000000000
FFFFF800000000000000
FFFFF800000000000000
FFFFF800000000000000
FFFFF800000000000000
FFFFFFFFFFFFFFFFC000
FFFFFFFFFFFFFFFFF000
FFFFFFFFFFFFFFFFF800
FFFFFFFFFFFFFFFFFC00
FFFFFFFFFFFFFFFFFE00
FFFFFFFFFFFFFFFFFF00
FFFFFFFFFFFFFFFFFF00
FFFFFFFFFFFFFFFFFF80
FFFFFFFFFFFFFFFFFF80
FFFFFFFFFFFFFFFFFF80
FFFFFFFFFFFFFFFFFF80
FFFFFFFFFFFFFFFFFF80
FFFFFFFFFFFFFFFFFF80
FFFFFFFFFFFFFFFFFF80
7FFFFFFFFFFFFFFFFF00
7FFFFFFFFFFFFFFFFF00
3FFFFFFFFFFFFFFFFE00
1FFFFFFFFFFFFFFFFE00
0FFFFFFFFFFFFFFFF800
07FFFFFFFFFFFFFFF000
01FFFFFFFFFFFFFFC000
ENDCHAR
STARTCHAR 004D
ENCODING 77
SWIDTH 769 0
DWIDTH 134 0
BBX 125 130 3 -1
BITMAP
000FFFFFFFFE000000007FFFFFFF8000
007FFFFFFFFFE0000007FFFFFFFFF000
01FFFFFFFFFFFC00003FFFFFFFFFFC00
03FFFFFFFFFFFF0001FFFFFFFFFFFE00
07FFFFFFFFFFFFC00FFFFFFFFFFFFF00
0FFFFFFFFFFFFFE03FFFFFFFFFFFFF80
1FFFFFFFFFFFFFF8FFFFFFFFFFFFFFC0
3FFFFFFFFFFFFFFDFFFFFFFFFFFFFFE0
3FFFFFFFFFFFFFFFFFFFFFFFFFFFFFE0
7FFFFFFFFFFFFFFFFFFFFFFFFFFFFFF0
7FFFFFFFFFFFFFFFFFFFFFFFFFFFFFF0
FFFFFFFFFFFFFFFFFFFFFFFFFFFFFFF0
FFFFFFFFFFFFFFFFFFFFFFFFFFFFFFF8
FFFFFFFFFFFFFFFFFFFFFFFFFFFFFFF8
FFFFFFFFFFFFFFFFFFFFFFFFFFFFFFF8
FFFFFFFFFFFFFFFFFFFFFFFFFFFFFFF8
FFFFFFFFFFFFFFFFFFFFFFFFFFFFFFF8
FFFFFFFFFFFFFFFFFFFFFFFFFFFFFFF8
FFFFFFFFFFFFFFFFFFFFFFFFFFFFFFF8
FFFFFFFFFFFFFFFFFFFFFFFFFFFFFFF8
FFFFFFFFFFFFFFFFFFFFFFFFFFFFFFF8
FFFFF8000007FFFFFFFF000000FFFFF8
FFFFF8000001FFFFFFFC000000FFFFF8
FFFFF8000000FFFFFFF8000000FFFFF8
FFFFF80000007FFFFFF0000000FFFFF8
FFFFF80000003FFFFFE0000000FFFFF8
FFFFF80000001FFFFFC0000000FFFFF8
FFFFF80000001FFFFFC0000000FFFFF8
FFFFF80000000FFFFF80000000FFFFF8
FFFFF80000000FFFFF80000000FFFFF8
FFFFF80000000FFFFF80000000FFFFF8
FFFFF80000000FFFFF80000000FFFFF8
FFFFF80000000FFFFF80000000FFFFF8
FFFFF80000000FFFFF80000000FFFFF8
FFFFF80000000FFFFF80000000FFFFF8
FFFFF80000000FFFFF80000000FFFFF8
FFFFF80000000FFFFF80000000FFFFF8
FFFFF80000000FFFFF80000000FFFFF8
FFFFF80000000FFFFF80000000FFFFF8
FFFFF80000000FFFFF80000000FFFFF8
FFFFF80000000FFFFF80000000FFFFF8
FFFFF80000000FFFFF80000000FFFFF8
FFFFF80000000FFFFF80000000FFFFF8
FFFFF80000000FFFFF80000000FFFFF8
FFFFF80000000FFFFF80000000FFFFF8
FFFFF80000000FFFFF80000000FFFFF8
FFFFF80000000FFFFF80000000FFFFF8
FFFFF80000000FFFFF80000000FFFFF8
FFFFF80000000FFFFF80000000FFFFF8
FFFFF80000000FFFFF80000000FFFFF8
FFFFF80000000FFFFF80000000FFFFF8
FFFFF80000000FFFFF80000000FFFFF8
FFFFF80000000FFFFF80000000FFFFF8
FFFFF80000000FFFFF80000000FFFFF8
FFFFF80000000FFFFF80000000FFFFF8
FFFFF80000000FFFFF80000000FFFFF8
FFFFF80000000FFFFF80000000FFFFF8
FFFFF80000000FFFFF80000000FFFFF8
FFFFF80000000FFFFF80000000FFFFF8
FFFFF80000000FFFFF80000000FFFFF8
FFFFF80000000FFFFF80000000FFFFF8
FFFFF80000000FFFFF80000000FFFFF8
FFFFF80000000FFFFF80000000FFFFF8
FFFFF80000000FFFFF80000000FFFFF8
FFFFF80000000FFFFF80000000FFFFF8
FFFFF80000000FFFFF80000000FFFFF8
FFFFF80000000FFFFF80000000FFFFF8
FFFFF80000000FFFFF80000000FFFFF8
FFFFF80000000FFFFF80000000FFFFF8
FFFFF80000000FFFFF80000000FFFFF8
FFFFF80000000FFFFF80000000FFFFF8
FFFFF80000000FFFFF80000000FFFFF8
FFFFF80000000FFFFF80000000FFFFF8
FFFFF80000000FFFFF80000000FFFFF8
FFFFF80000000FFFFF80000000FFFFF8
FFFFF80000000FFFFF80000000FFFFF8
FFFFF80000000FFFFF80000000FFFFF8
FFFFF80000000FFFFF80000000FFFFF8
FFFFF80000000FFFFF80000000FFFFF8
FFFFF80000000FFFFF80000000FFFFF8
FFFFF80000000FFFFF80000000FFFFF8
FFFFF80000000FFFFF80000000FFFFF8
FFFFF80000000FFFFF80000000FFFFF8
FFFFF80000000FFFFF80000000FFFFF8
FFFFF80000000FFFFF80000000FFFFF8
FFFFF80000000FFFFF80000000FFFFF8
FFFFF80000000FFFFF80000000FFFFF8
FFFFF80000000FFFFF80000000FFFFF8
FFFFF80000000FFFFF80000000FFFFF8
FFFFF80000000FFFFF80000000FFFFF8
FFFFF80000000FFFFF80000000FFFFF8
FFFFF80000000FFFFF80000000FFFFF8
FFFFF80000000FFFFF80000000FFFFF8
FFFFF80000000FFFFF80000000FFFFF8
FFFFF80000000FFFFF80000000FFFFF8
FFFFF80000000FFFFF80000000FFFFF8
FFFFF80000000FFFFF80000000FFFFF8
FFFFF80000000FFFFF80000000FFFFF8
FFFFF80000000FFFFF80000000FFFFF8
FFFFF80000000FFFFF80000000FFFFF8
FFFFF80000000FFFFF80000000FFFFF8
FFFFF80000000FFFFF80000000FFFFF8
FFFFF80000000FFFFF80000000FFFFF8
FFFFF80000000FFFFF80000000FFFFF8
FFFFF80000000FFFFF80000000FFFFF8
FFFFF80000000FFFFF80000000FFFFF8
FFFFF80000000FFFFF80000000FFFFF8
FFFFF80000000FFFFF80000000FFFFF8
FFFFF80000000FFFFF80000000FFFFF8
FFFFF80000000FFFFF80000000FFFFF8
FFFFF80000000FFFFF80000000FFFFF8
FFFFF80000000FFFFF80000000FFFFF8
FFFFF80000000FFFFF80000000FFFFF8
FFFFF80000000FFFFF80000000FFFFF8
FFFFF80000000FFFFF80000000FFFFF8
FFFFF80000000FFFFF80000000FFFFF8
FFFFF80000000FFFFF80000000FFFFF8
FFFFF80000000FFFFF80000000FFFFF8
FFFFF80000000FFFFF80000000FFFFF8
FFFFF80000000FFFFF80000000FFFFF8
FFFFF80000000FFFFF80000000FFFFF8
FFFFF80000000FFFFF80000000FFFFF8
FFFFF80000000FFFFF80000000FFFFF8
FFFFF000000007FFFF000000007FFFF0
FFFFF000000007FFFF000000007FFFF0
7FFFE000000003FFFE000000003FFFE0
7FFFE000000001FFFC000000001FFFC0
3FFFC000000000FFF8000000000FFF80
0FFF00000000007FF00000000007FF00
01FC00000000001FC00000000001FC00
ENDCHAR
STARTCHAR 004E
ENCODING 78
SWIDTH 528 0
DWIDTH 92 0
BBX 84 130 3 -1
BITMAP
000FFFFFFFFFFFC0000000
007FFFFFFFFFFFFE000000
01FFFFFFFFFFFFFF800000
03FFFFFFFFFFFFFFE00000
07FFFFFFFFFFFFFFF80000
0FFFFFFFFFFFFFFFFE0000
1FFFFFFFFFFFFFFFFF0000
3FFFFFFFFFFFFFFFFF8000
3FFFFFFFFFFFFFFFFFC000
7FFFFFFFFFFFFFFFFFE000
7FFFFFFFFFFFFFFFFFF000
FFFFFFFFFFFFFFFFFFF800
FFFFFFFFFFFFFFFFFFFC00
FFFFFFFFFFFFFFFFFFFE00
FFFFFFFFFFFFFFFFFFFE00
FFFFFFFFFFFFFFFFFFFF00
FFFFFFFFFFFFFFFFFFFF00
FFFFFFFFFFFFFFFFFFFF80
FFFFFFFFFFFFFFFFFFFF80
FFFFFFFFFFFFFFFFFFFFC0
FFFFFFFFFFFFFFFFFFFFC0
FFFFF800000000FFFFFFE0
FFFFF8000000003FFFFFE0
FFFFF8000000001FFFFFE0
FFFFF8000000000FFFFFE0
FFFFF80000000007FFFFF0
FFFFF80000000003FFFFF0
FFFFF80000000003FFFFF0
FFFFF80000000001FFFFF0
FFFFF80000000001FFFFF0
FFFFF80000000001FFFFF0
FFFFF80000000001FFFFF0
FFFFF80000000001FFFFF0
FFFFF80000000001FFFFF0
FFFFF80000000001FFFFF0
FFFFF80000000001FFFFF0
FFFFF80000000001FFFFF0
FFFFF80000000001FFFFF0
FFFFF80000000001FFFFF0
FFFFF80000000001FFFFF0
FFFFF80000000001FFFFF0
FFFFF80000000001FFFFF0
FFFFF80000000001FFFFF0
FFFFF80000000001FFFFF0
FFFFF80000000001FFFFF0
FFFFF80000000001FFFFF0
FFFFF80000000001FFFFF0
FFFFF80000000001FFFFF0
FFFFF80000000001FFFFF0
FFFFF80000000001FFFFF0
FFFFF80000000001FFFFF0
FFFFF80000000001FFFFF0
FFFFF80000000001FFFFF0
FFFFF80000000001FFFFF0
FFFFF80000000001FFFFF0
FFFFF80000000001FFFFF0
FFFFF80000000001FFFFF0
FFFFF80000000001FFFFF0
FFFFF80000000001FFFFF0
FFFFF80000000001FFFFF0
FFFFF80000000001FFFFF0
FFFFF80000000001FFFFF0
FFFFF80000000001FFFFF0
FFFFF80000000001FFFFF0
FFFFF80000000001FFFFF0
FFFFF80000000001FFFFF0
FFFFF80000000001FFFFF0
FFFFF80000000001FFFFF0
FFFFF80000000001FFFFF0
FFFFF80000000001FFFFF0
FFFFF80000000001FFFFF0
FFFFF80000000001FFFFF0
FFFFF80000000001FFFFF0
FFFFF80000000001FFFFF0
FFFFF80000000001FFFFF0
FFFFF80000000001FFFFF0
FFFFF80000000001FFFFF0
FFFFF80000000001FFFFF0
FFFFF80000000001FFFFF0
FFFFF80000000001FFFFF0
FFFFF80000000001FFFFF0
FFFFF80000000001FFFFF0
FFFFF80000000001FFFFF0
FFFFF80000000001FFFFF0
FFFFF80000000001FFFFF0
FFFFF80000000001FFFFF0
FFFFF80000000001FFFFF0
FFFFF80000000001FFFFF0
FFFFF80000000001FFFFF0
FFFFF80000000001FFFFF0
FFFFF80000000001FFFFF0
FFFFF80000000001FFFFF0
FFFFF80000000001FFFFF0
FFFFF80000000001FFFFF0
FFFFF80000000001FFFFF0
FFFFF80000000001FFFFF0
FFFFF80000000001FFFFF0
FFFFF80000000001FFFFF0
FFFFF80000000001FFFFF0
FFFFF80000000001FFFFF0
FFFFF80000000001FFFFF0
FFFFF80000000001FFFFF0
FFFFF80000000001FFFFF0
FFFFF80000000001FFFFF0
FFFFF80000000001FFFFF0
FFFFF80000000001FFFFF0
FFFFF80000000001FFFFF0
FFFFF80000000001FFFFF0
FFFFF80000000001FFFFF0
FFFFF80000000001FFFFF0
FFFFF80000000001FFFFF0
FFFFF80000000001FFFFF0
FFFFF80000000001FFFFF0
FFFFF80000000001FFFFF0
FFFFF80000000001FFFFF0
FFFFF80000000001FFFFF0
FFFFF80000000001FFFFF0
FFFFF80000000001FFFFF0
FFFFF80000000001FFFFF0
FFFFF80000000001FFFFF0
FFFFF80000000001FFFFF0
FFFFF80000000001FFFFF0
FFFFF80000000001FFFFF0
FFFFF00000000000FFFFE0
7FFFF00000000000FFFFE0
7FFFE000000000007FFFC0
3FFFE000000000003FFF80
1FFFC000000000001FFF00
0FFF0000000000000FFE00
01FC00000000000003F800
ENDCHAR
STARTCHAR 004F
ENCODING 79
SWIDTH 499 0
DWIDTH 87 0
BBX 78 130 3 0
BITMAP
000FFFFFFFFFFFFFC000
007FFFFFFFFFFFFFF800
01FFFFFFFFFFFFFFFE00
03FFFFFFFFFFFFFFFF00
07FFFFFFFFFFFFFFFF80
0FFFFFFFFFFFFFFFFFC0
1FFFFFFFFFFFFFFFFFE0
3FFFFFFFFFFFFFFFFFF0
3FFFFFFFFFFFFFFFFFF0
7FFFFFFFFFFFFFFFFFF8
7FFFFFFFFFFFFFFFFFF8
FFFFFFFFFFFFFFFFFFF8
FFFFFFFFFFFFFFFFFFFC
FFFFFFFFFFFFFFFFFFFC
FFFFFFFFFFFFFFFFFFFC
FFFFFFFFFFFFFFFFFFFC
FFFFFFFFFFFFFFFFFFFC
FFFFFFFFFFFFFFFFFFFC
FFFFFFFFFFFFFFFFFFFC
FFFFFFFFFFFFFFFFFFFC
FFFFFFFFFFFFFFFFFFFC
FFFFF8000000007FFFFC
FFFFF8000000007FFFFC
FFFFF8000000007FFFFC
FFFFF8000000007FFFFC
FFFFF8000000007FFFFC
FFFFF8000000007FFFFC
FFFFF8000000007FFFFC
FFFFF8000000007FFFFC
FFFFF8000000007FFFFC
FFFFF8000000007FFFFC
FFFFF8000000007FFFFC
FFFFF8000000007FFFFC
FFFFF8000000007FFFFC
FFFFF8000000007FFFFC
FFFFF8000000007FFFFC
FFFFF8000000007FFFFC
FFFFF8000000007FFFFC
FFFFF8000000007FFFFC
FFFFF8000000007FFFFC
FFFFF8000000007FFFFC
FFFFF8000000007FFFFC
FFFFF8000000007FFFFC
FFFFF8000000007FFFFC
FFFFF8000000007FFFFC
FFFFF8000000007FFFFC
FFFFF8000000007FFFFC
FFFFF8000000007FFFFC
FFFFF8000000007FFFFC
FFFFF8000000007FFFFC
FFFFF8000000007FFFFC
FFFFF8000000007FFFFC
FFFFF8000000007FFFFC
FFFFF8000000007FFFFC
FFFFF8000000007FFFFC
FFFFF8000000007FFFFC
FFFFF8000000007FFFFC
FFFFF8000000007FFFFC
FFFFF8000000007FFFFC
FFFFF8000000007FFFFC
FFFFF8000000007FFFFC
FFFFF8000000007FFFFC
FFFFF8000000007FFFFC
FFFFF8000000007FFFFC
FFFFF8000000007FFFFC
FFFFF8000000007FFFFC
FFFFF8000000007FFFFC
FFFFF8000000007FFFFC
FFFFF8000000007FFFFC
FFFFF8000000007FFFFC
FFFFF8000000007FFFFC
FFFFF8000000007FFFFC
FFFFF8000000007FFFFC
FFFFF8000000007FFFFC
FFFFF8000000007FFFFC
FFFFF8000000007FFFFC
FFFFF8000000007FFFFC
FFFFF8000000007FFFFC
FFFFF8000000007FFFFC
FFFFF8000000007FFFFC
FFFFF8000000007FFFFC
FFFFF8000000007FFFFC
FFFFF8000000007FFFFC
FFFFF8000000007FFFFC
FFFFF8000000007FFFFC
FFFFF8000000007FFFFC
FFFFF8000000007FFFFC
FFFFF8000000007FFFFC
FFFFF8000000007FFFFC
FFFFF8000000007FFFFC
FFFFF8000000007FFFFC
FFFFF8000000007FFFFC
FFFFF8000000007FFFFC
FFFFF8000000007FFFFC
FFFFF8000000007FFFFC
FFFFF8000000007FFFFC
FFFFF8000000007FFFFC
FFFFF8000000007FFFFC
FFFFF8000000007FFFFC
FFFFF8000000007FFFFC
FFFFF8000000007FFFFC
FFFFF8000000007FFFFC
FFFFF8000000007FFFFC
FFFFF8000000007FFFFC
FFFFF8000000007FFFFC
FFFFF8000000007FFFFC
FFFFF8000000007FFFFC
FFFFF8000000007FFFFC
FFFFF8000000007FFFFC
FFFFFFFFFFFFFFFFFFFC
FFFFFFFFFFFFFFFFFFFC
FFFFFFFFFFFFFFFFFFFC
FFFFFFFFFFFFFFFFFFFC
FFFFFFFFFFFFFFFFFFFC
FFFFFFFFFFFFFFFFFFFC
FFFFFFFFFFFFFFFFFFFC
FFFFFFFFFFFFFFFFFFFC
FFFFFFFFFFFFFFFFFFFC
FFFFFFFFFFFFFFFFFFFC
7FFFFFFFFFFFFFFFFFF8
7FFFFFFFFFFFFFFFFFF8
3FFFFFFFFFFFFFFFFFF0
3FFFFFFFFFFFFFFFFFF0
1FFFFFFFFFFFFFFFFFE0
0FFFFFFFFFFFFFFFFFC0
07FFFFFFFFFFFFFFFF80
03FFFFFFFFFFFFFFFF00
01FFFFFFFFFFFFFFFE00
007FFFFFFFFFFFFFF800
001FFFFFFFFFFFFFC000
ENDCHAR
STARTCHAR 0050
ENCODING 80
SWIDTH 499 0
DWIDTH 87 0
BBX 78 130 3 0
BITMAP
000FFFFFFFFFF8000000
007FFFFFFFFFFF800000
01FFFFFFFFFFFFE00000
03FFFFFFFFFFFFF80000
07FFFFFFFFFFFFFE0000
0FFFFFFFFFFFFFFF8000
1FFFFFFFFFFFFFFFC000
3FFFFFFFFFFFFFFFE000
3FFFFFFFFFFFFFFFF000
7FFFFFFFFFFFFFFFF800
7FFFFFFFFFFFFFFFFC00
FFFFFFFFFFFFFFFFFE00
FFFFFFFFFFFFFFFFFF00
FFFFFFFFFFFFFFFFFF80
FFFFFFFFFFFFFFFFFF80
FFFFFFFFFFFFFFFFFFC0
FFFFFFFFFFFFFFFFFFC0
FFFFFFFFFFFFFFFFFFE0
FFFFFFFFFFFFFFFFFFE0
FFFFFFFFFFFFFFFFFFF0
FFFFFFFFFFFFFFFFFFF0
FFFFF80000003FFFFFF8
FFFFF80000000FFFFFF8
FFFFF800000003FFFFF8
FFFFF800000001FFFFF8
FFFFF800000001FFFFFC
FFFFF800000000FFFFFC
FFFFF800000000FFFFFC
FFFFF8000000007FFFFC
FFFFF8000000007FFFFC
FFFFF8000000007FFFFC
FFFFF8000000007FFFFC
FFFFF8000000007FFFFC
FFFFF8000000007FFFFC
FFFFF8000000007FFFFC
FFFFF8000000007FFFFC
FFFFF8000000007FFFFC
FFFFF8000000007FFFFC
FFFFF8000000007FFFFC
FFFFF8000000007FFFFC
FFFFF8000000007FFFFC
FFFFF8000000007FFFFC
FFFFF8000000007FFFFC
FFFFF8000000007FFFFC
FFFFF8000000007FFFFC
FFFFF800000000FFFFFC
FFFFF800000000FFFFFC
FFFFF800000001FFFFFC
FFFFF800000003FFFFF8
FFFFF800000007FFFFF8
FFFFF80000000FFFFFF8
FFFFF80000003FFFFFF8
FFFFFFFFFFFFFFFFFFF0
FFFFFFFFFFFFFFFFFFF0
FFFFFFFFFFFFFFFFFFF0
FFFFFFFFFFFFFFFFFFE0
FFFFFFFFFFFFFFFFFFE0
FFFFFFFFFFFFFFFFFFC0
FFFFFFFFFFFFFFFFFF80
FFFFFFFFFFFFFFFFFF80
FFFFFFFFFFFFFFFFFF00
FFFFFFFFFFFFFFFFFE00
FFFFFFFFFFFFFFFFFC00
FFFFFFFFFFFFFFFFF800
FFFFFFFFFFFFFFFFF000
FFFFFFFFFFFFFFFFE000
FFFFFFFFFFFFFFFFC000
FFFFFFFFFFFFFFFF8000
FFFFFFFFFFFFFFFE0000
FFFFFFFFFFFFFFFC0000
FFFFFFFFFFFFFFF00000
FFFFFFFFFFFFFF800000
FFFFFFFFFFFFF8000000
FFFFF800000000000000
FFFFF800000000000000
FFFFF800000000000000
FFFFF800000000000000
FFFFF800000000000000
FFFFF800000000000000
FFFFF800000000000000
FFFFF800000000000000
FFFFF800000000000000
FFFFF800000000000000
FFFFF800000000000000
FFFFF800000000000000
FFFFF800000000000000
FFFFF800000000000000
FFFFF800000000000000
FFFFF800000000000000
FFFFF800000000000000
FFFFF800000000000000
FFFFF800000000000000
FFFFF800000000000000
FFFFF800000000000000
FFFFF800000000000000
FFFFF800000000000000
FFFFF800000000000000
FFFFF800000000000000
FFFFF800000000000000
FFFFF800000000000000
FFFFF800000000000000
FFFFF800000000000000
FFFFF800000000000000
FFFFF800000000000000
FFFFF800000000000000
FFFFF800000000000000
FFFFF800000000000000
FFFFF800000000000000
FFFFF800000000000000
FFFFF800000000000000
FFFFF800000000000000
FFFFF800000000000000
FFFFF800000000000000
FFFFF800000000000000
FFFFF800000000000000
FFFFF800000000000000
FFFFF800000000000000
FFFFF800000000000000
FFFFF800000000000000
FFFFF800000000000000
FFFFF800000000000000
FFFFF800000000000000
FFFFF800000000000000
7FFFF000000000000000
7FFFF000000000000000
3FFFE000000000000000
1FFFC000000000000000
0FFF8000000000000000
07FF0000000000000000
01FC0000000000000000
ENDCHAR
STARTCHAR 0051
ENCODING 81
SWIDTH 499 0
DWIDTH 87 0
BBX 78 156 3 -26
BITMAP
000FFFFFFFFFFFFFC000
007FFFFFFFFFFFFFF800
01FFFFFFFFFFFFFFFE00
03FFFFFFFFFFFFFFFF00
07FFFFFFFFFFFFFFFF80
0FFFFFFFFFFFFFFFFFC0
1FFFFFFFFFFFFFFFFFE0
3FFFFFFFFFFFFFFFFFF0
3FFFFFFFFFFFFFFFFFF0
7FFFFFFFFFFFFFFFFFF8
7FFFFFFFFFFFFFFFFFF8
FFFFFFFFFFFFFFFFFFF8
FFFFFFFFFFFFFFFFFFFC
FFFFFFFFFFFFFFFFFFFC
FFFFFFFFFFFFFFFFFFFC
FFFFFFFFFFFFFFFFFFFC
FFFFFFFFFFFFFFFFFFFC
FFFFFFFFFFFFFFFFFFFC
FFFFFFFFFFFFFFFFFFFC
FFFFFFFFFFFFFFFFFFFC
FFFFFFFFFFFFFFFFFFFC
FFFFF8000000007FFFFC
FFFFF8000000007FFFFC
FFFFF8000000007FFFFC
FFFFF8000000007FFFFC
FFFFF8000000007FFFFC
FFFFF8000000007FFFFC
FFFFF8000000007FFFFC
FFFFF8000000007FFFFC
FFFFF8000000007FFFFC
FFFFF8000000007FFFFC
FFFFF8000000007FFFFC
FFFFF8000000007FFFFC
FFFFF8000000007FFFFC
FFFFF8000000007FFFFC
FFFFF8000000007FFFFC
FFFFF8000000007FFFFC
FFFFF8000000007FFFFC
FFFFF8000000007FFFFC
FFFFF8000000007FFFFC
FFFFF8000000007FFFFC
FFFFF8000000007FFFFC
FFFFF8000000007FFFFC
FFFFF8000000007FFFFC
FFFFF8000000007FFFFC
FFFFF8000000007FFFFC
FFFFF8000000007FFFFC
FFFFF8000000007FFFFC
FFFFF8000000007FFFFC
FFFFF8000000007FFFFC
FFFFF8000000007FFFFC
FFFFF8000000007FFFFC
FFFFF8000000007FFFFC
FFFFF8000000007FFFFC
FFFFF8000000007FFFFC
FFFFF8000000007FFFFC
FFFFF8000000007FFFFC
FFFFF8000000007FFFFC
FFFFF8000000007FFFFC
FFFFF8000000007FFFFC
FFFFF8000000007FFFFC
FFFFF8000000007FFFFC
FFFFF8000000007FFFFC
FFFFF8000000007FFFFC
FFFFF8000000007FFFFC
FFFFF8000000007FFFFC
FFFFF8000000007FFFFC
FFFFF8000000007FFFFC
FFFFF8000000007FFFFC
FFFFF8000000007FFFFC
FFFFF8000000007FFFFC
FFFFF8000000007FFFFC
FFFFF8000000007FFFFC
FFFFF8000000007FFFFC
FFFFF8000000007FFFFC
FFFFF8000000007FFFFC
FFFFF8000000007FFFFC
FFFFF8000000007FFFFC
FFFFF8000000007FFFFC
FFFFF8000000007FFFFC
FFFFF8000000007FFFFC
FFFFF8000000007FFFFC
FFFFF8000000007FFFFC
FFFFF8000000007FFFFC
FFFFF8000000007FFFFC
FFFFF8000000007FFFFC
FFFFF8000000007FFFFC
FFFFF8000000007FFFFC
FFFFF8000000007FFFFC
FFFFF8000000007FFFFC
FFFFF8000000007FFFFC
FFFFF8000000007FFFFC
FFFFF8000000007FFFFC
FFFFF8000000007FFFFC
FFFFF8000000007FFFFC
FFFFF8000000007FFFFC
FFFFF8000000007FFFFC
FFFFF8000000007FFFFC
FFFFF8000000007FFFFC
FFFFF8000000007FFFFC
FFFFF8000000007FFFFC
FFFFF8000000007FFFFC
FFFFF8000000007FFFFC
FFFFF8000000007FFFFC
FFFFF8000000007FFFFC
FFFFF8000000007FFFFC
FFFFF8000000007FFFFC
FFFFF8000000007FFFFC
FFFFF8000000007FFFFC
FFFFFFFFFFE0007FFFFC
FFFFFFFFFFE0007FFFFC
FFFFFFFFFFF0007FFFFC
FFFFFFFFFFF0007FFFFC
FFFFFFFFFFF8007FFFFC
FFFFFFFFFFF8007FFFFC
FFFFFFFFFFFC007FFFFC
FFFFFFFFFFFC007FFFFC
FFFFFFFFFFFC007FFFFC
FFFFFFFFFFFE007FFFFC
7FFFFFFFFFFE007FFFFC
7FFFFFFFFFFF007FFFFC
3FFFFFFFFFFF007FFFFC
3FFFFFFFFFFF807FFFFC
1FFFFFFFFFFF803FFFF8
0FFFFFFFFFFFC03FFFF8
07FFFFFFFFFFC01FFFF0
03FFFFFFFFFFE01FFFF0
01FFFFFFFFFFE00FFFE0
007FFFFFFFFFF003FF80
000FFFFFFFFFF000FE00
00000007FFFFF8000000
00000003FFFFF8000000
00000003FFFFFC000000
00000001FFFFFC000000
00000001FFFFFE000000
00000000FFFFFE000000
00000000FFFFFF000000
000000007FFFFF000000
000000007FFFFF800000
000000003FFFFF800000
000000003FFFFFC00000
000000001FFFFFC00000
000000001FFFFFC00000
000000000FFFFFC00000
000000000FFFFFC00000
0000000007FFFFC00000
0000000007FFFFC00000
0000000003FFFFC00000
0000000003FFFFC00000
0000000001FFFFC00000
0000000001FFFF800000
0000000000FFFF800000
0000000000FFFF000000
00000000007FFE000000
00000000003FF8000000
000000000007E0000000
ENDCHAR
STARTCHAR 0052
ENCODING 82
SWIDTH 499 0
DWIDTH 87 0
BBX 78 130 3 0
BITMAP
01FFFFFFFFFFF8000000
07FFFFFFFFFFFF800000
0FFFFFFFFFFFFFE00000
1FFFFFFFFFFFFFFC0000
3FFFFFFFFFFFFFFE0000
7FFFFFFFFFFFFFFF8000
7FFFFFFFFFFFFFFFC000
FFFFFFFFFFFFFFFFE000
FFFFFFFFFFFFFFFFF000
FFFFFFFFFFFFFFFFF800
FFFFFFFFFFFFFFFFFC00
FFFFFFFFFFFFFFFFFE00
FFFFFFFFFFFFFFFFFF00
FFFFFFFFFFFFFFFFFF80
FFFFFFFFFFFFFFFFFF80
FFFFFFFFFFFFFFFFFFC0
FFFFFFFFFFFFFFFFFFE0
FFFFFFFFFFFFFFFFFFE0
FFFFFFFFFFFFFFFFFFE0
FFFFFFFFFFFFFFFFFFF0
FFFFFFFFFFFFFFFFFFF0
FFFFF80000003FFFFFF8
FFFFF80000000FFFFFF8
FFFFF800000003FFFFF8
FFFFF800000001FFFFF8
FFFFF800000001FFFFFC
FFFFF800000000FFFFFC
FFFFF800000000FFFFFC
FFFFF8000000007FFFFC
FFFFF8000000007FFFFC
FFFFF8000000007FFFFC
FFFFF8000000007FFFFC
FFFFF8000000007FFFFC
FFFFF8000000007FFFFC
FFFFF8000000007FFFFC
FFFFF8000000007FFFFC
FFFFF8000000007FFFFC
FFFFF8000000007FFFFC
FFFFF8000000007FFFFC
FFFFF8000000007FFFFC
FFFFF8000000007FFFFC
FFFFF8000000007FFFFC
FFFFF8000000007FFFFC
FFFFF8000000007FFFFC
FFFFF8000000007FFFFC
FFFFF800000000FFFFFC
FFFFF800000000FFFFFC
FFFFF800000001FFFFF8
FFFFF800000003FFFFF8
FFFFF800000007FFFFF8
FFFFF80000000FFFFFF8
FFFFF80000003FFFFFF8
FFFFFFFFFFFFFFFFFFF0
FFFFFFFFFFFFFFFFFFF0
FFFFFFFFFFFFFFFFFFE0
FFFFFFFFFFFFFFFFFFE0
FFFFFFFFFFFFFFFFFFC0
FFFFFFFFFFFFFFFFFFC0
FFFFFFFFFFFFFFFFFF80
FFFFFFFFFFFFFFFFFF80
FFFFFFFFFFFFFFFFFF00
FFFFFFFFFFFFFFFFFE00
FFFFFFFFFFFFFFFFFC00
FFFFFFFFFFFFFFFFF800
FFFFFFFFFFFFFFFFF000
FFFFFFFFFFFFFFFFE000
FFFFFFFFFFFFFFFFC000
FFFFFFFFFFFFFFFF8000
FFFFFFFFFFFFFFFE0000
FFFFFFFFFFFFFFF80000
FFFFFFFFFFFFFFE00000
FFFFFFFFFFFFFF000000
FFFFFFFFFFFFFE000000
FFFFF800FFFFFE000000
FFFFF800FFFFFF000000
FFFFF8007FFFFF000000
FFFFF8007FFFFF800000
FFFFF8003FFFFFC00000
FFFFF8003FFFFFC00000
FFFFF8001FFFFFE00000
FFFFF8000FFFFFE00000
FFFFF8000FFFFFF00000
FFFFF80007FFFFF00000
FFFFF80007FFFFF80000
FFFFF80003FFFFF80000
FFFFF80003FFFFFC0000
FFFFF80001FFFFFC0000
FFFFF80001FFFFFE0000
FFFFF80000FFFFFE0000
FFFFF80000FFFFFF0000
FFFFF800007FFFFF0000
FFFFF800007FFFFF8000
FFFFF800003FFFFF8000
FFFFF800003FFFFFC000
FFFFF800001FFFFFC000
FFFFF800001FFFFFE000
FFFFF800000FFFFFF000
FFFFF800000FFFFFF000
FFFFF8000007FFFFF800
FFFFF8000007FFFFF800
FFFFF8000003FFFFFC00
FFFFF8000003FFFFFC00
FFFFF8000001FFFFFE00
FFFFF8000000FFFFFE00
FFFFF8000000FFFFFF00
FFFFF80000007FFFFF00
FFFFF80000007FFFFF80
FFFFF80000003FFFFF80
FFFFF80000003FFFFFC0
FFFFF80000001FFFFFC0
FFFFF80000001FFFFFE0
FFFFF80000000FFFFFE0
FFFFF80000000FFFFFF0
FFFFF800000007FFFFF0
FFFFF800000007FFFFF8
FFFFF800000003FFFFF8
FFFFF800000003FFFFFC
FFFFF800000001FFFFFC
FFFFF800000001FFFFFC
FFFFF800000000FFFFFC
FFFFF800000000FFFFFC
FFFFF8000000007FFFFC
FFFFF8000000007FFFFC
7FFFF0000000003FFFF8
7FFFF0000000003FFFF8
3FFFE0000000001FFFF0
1FFFC0000000000FFFF0
0FFF800000000007FFE0
07FF000000000003FF80
01FC000000000000FE00
ENDCHAR
STARTCHAR 0053
ENCODING 83
SWIDTH 499 0
DWIDTH 87 0
BBX 78 130 3 0
BITMAP
0000007FFFFFFFFFFE00
000007FFFFFFFFFFFF80
00001FFFFFFFFFFFFFC0
0000FFFFFFFFFFFFFFE0
0001FFFFFFFFFFFFFFF0
0007FFFFFFFFFFFFFFF8
000FFFFFFFFFFFFFFFF8
001FFFFFFFFFFFFFFFFC
003FFFFFFFFFFFFFFFFC
007FFFFFFFFFFFFFFFFC
00FFFFFFFFFFFFFFFFFC
01FFFFFFFFFFFFFFFFFC
03FFFFFFFFFFFFFFFFFC
07FFFFFFFFFFFFFFFFFC
07FFFFFFFFFFFFFFFFF8
0FFFFFFFFFFFFFFFFFF8
1FFFFFFFFFFFFFFFFFF0
1FFFFFFFFFFFFFFFFFE0
1FFFFFFFFFFFFFFFFFC0
3FFFFFFFFFFFFFFFFF80
3FFFFFFFFFFFFFFFFE00
7FFFFFF0000000000000
7FFFFFC0000000000000
7FFFFF80000000000000
7FFFFF00000000000000
FFFFFE00000000000000
FFFFFC00000000000000
FFFFFC00000000000000
FFFFF800000000000000
FFFFF800000000000000
FFFFF800000000000000
FFFFF800000000000000
FFFFF800000000000000
FFFFF800000000000000
FFFFF800000000000000
FFFFF800000000000000
FFFFF800000000000000
FFFFF800000000000000
FFFFF800000000000000
FFFFF800000000000000
FFFFF800000000000000
FFFFF800000000000000
FFFFF800000000000000
FFFFF800000000000000
FFFFF800000000000000
FFFFFC00000000000000
FFFFFC00000000000000
FFFFFE00000000000000
7FFFFF00000000000000
7FFFFF80000000000000
7FFFFFC0000000000000
7FFFFFF0000000000000
3FFFFFFFFFFFF8000000
3FFFFFFFFFFFFF800000
3FFFFFFFFFFFFFF00000
1FFFFFFFFFFFFFFC0000
1FFFFFFFFFFFFFFE0000
0FFFFFFFFFFFFFFF8000
07FFFFFFFFFFFFFFC000
07FFFFFFFFFFFFFFE000
03FFFFFFFFFFFFFFF000
01FFFFFFFFFFFFFFF800
00FFFFFFFFFFFFFFFC00
007FFFFFFFFFFFFFFE00
007FFFFFFFFFFFFFFF00
001FFFFFFFFFFFFFFF80
000FFFFFFFFFFFFFFF80
0007FFFFFFFFFFFFFFC0
0001FFFFFFFFFFFFFFE0
0000FFFFFFFFFFFFFFE0
00003FFFFFFFFFFFFFE0
000007FFFFFFFFFFFFF0
0000007FFFFFFFFFFFF0
0000000000003FFFFFF8
0000000000000FFFFFF8
00000000000007FFFFF8
00000000000003FFFFF8
00000000000001FFFFFC
00000000000000FFFFFC
00000000000000FFFFFC
000000000000007FFFFC
000000000000007FFFFC
000000000000007FFFFC
000000000000007FFFFC
000000000000007FFFFC
000000000000007FFFFC
000000000000007FFFFC
000000000000007FFFFC
000000000000007FFFFC
000000000000007FFFFC
000000000000007FFFFC
000000000000007FFFFC
000000000000007FFFFC
000000000000007FFFFC
000000000000007FFFFC
000000000000007FFFFC
000000000000007FFFFC
000000000000007FFFFC
000000000000007FFFFC
000000000000007FFFFC
000000000000007FFFFC
000000000000007FFFFC
00000000000000FFFFFC
00000000000000FFFFFC
00000000000001FFFFFC
00000000000001FFFFF8
00000000000003FFFFF8
0000000000000FFFFFF8
0000000000003FFFFFF8
01FFFFFFFFFFFFFFFFF0
07FFFFFFFFFFFFFFFFF0
0FFFFFFFFFFFFFFFFFF0
1FFFFFFFFFFFFFFFFFE0
3FFFFFFFFFFFFFFFFFE0
7FFFFFFFFFFFFFFFFFC0
7FFFFFFFFFFFFFFFFF80
FFFFFFFFFFFFFFFFFF80
FFFFFFFFFFFFFFFFFF00
FFFFFFFFFFFFFFFFFE00
FFFFFFFFFFFFFFFFFC00
FFFFFFFFFFFFFFFFF800
FFFFFFFFFFFFFFFFF000
FFFFFFFFFFFFFFFFE000
7FFFFFFFFFFFFFFFC000
7FFFFFFFFFFFFFFF8000
3FFFFFFFFFFFFFFE0000
1FFFFFFFFFFFFFFC0000
0FFFFFFFFFFFFFF00000
07FFFFFFFFFFFF800000
01FFFFFFFFFFF8000000
ENDCHAR
STARTCHAR 0054
ENCODING 84
SWIDTH 528 0
DWIDTH 92 0
BBX 83 130 3 0
BITMAP
01FFFFFFFFFFFFFFFFF000
07FFFFFFFFFFFFFFFFFC00
0FFFFFFFFFFFFFFFFFFE00
1FFFFFFFFFFFFFFFFFFF00
3FFFFFFFFFFFFFFFFFFF80
7FFFFFFFFFFFFFFFFFFFC0
7FFFFFFFFFFFFFFFFFFFC0
FFFFFFFFFFFFFFFFFFFFE0
FFFFFFFFFFFFFFFFFFFFE0
FFFFFFFFFFFFFFFFFFFFE0
FFFFFFFFFFFFFFFFFFFFE0
FFFFFFFFFFFFFFFFFFFFE0
FFFFFFFFFFFFFFFFFFFFE0
FFFFFFFFFFFFFFFFFFFFE0
7FFFFFFFFFFFFFFFFFFFC0
7FFFFFFFFFFFFFFFFFFFC0
3FFFFFFFFFFFFFFFFFFF80
1FFFFFFFFFFFFFFFFFFF00
0FFFFFFFFFFFFFFFFFFE00
07FFFFFFFFFFFFFFFFFC00
01FFFFFFFFFFFFFFFFF000
00000001FFFFF000000000
00000001FFFFF000000000
00000001FFFFF000000000
00000001FFFFF000000000
00000001FFFFF000000000
00000001FFFFF000000000
00000001FFFFF000000000
00000001FFFFF000000000
00000001FFFFF000000000
00000001FFFFF000000000
00000001FFFFF000000000
00000001FFFFF000000000
00000001FFFFF000000000
00000001FFFFF000000000
00000001FFFFF000000000
00000001FFFFF000000000
00000001FFFFF000000000
00000001FFFFF000000000
00000001FFFFF000000000
00000001FFFFF000000000
00000001FFFFF000000000
00000001FFFFF000000000
00000001FFFFF000000000
00000001FFFFF000000000
00000001FFFFF000000000
00000001FFFFF000000000
00000001FFFFF000000000
00000001FFFFF000000000
00000001FFFFF000000000
00000001FFFFF000000000
00000001FFFFF000000000
00000001FFFFF000000000
00000001FFFFF000000000
00000001FFFFF000000000
00000001FFFFF000000000
00000001FFFFF000000000
00000001FFFFF000000000
00000001FFFFF000000000
00000001FFFFF000000000
00000001FFFFF000000000
00000001FFFFF000000000
00000001FFFFF000000000
00000001FFFFF000000000
00000001FFFFF000000000
00000001FFFFF000000000
00000001FFFFF000000000
00000001FFFFF000000000
00000001FFFFF000000000
00000001FFFFF000000000
00000001FFFFF000000000
00000001FFFFF000000000
00000001FFFFF000000000
00000001FFFFF000000000
00000001FFFFF000000000
00000001FFFFF000000000
00000001FFFFF000000000
00000001FFFFF000000000
00000001FFFFF000000000
00000001FFFFF000000000
00000001FFFFF000000000
00000001FFFFF000000000
00000001FFFFF000000000
00000001FFFFF000000000
00000001FFFFF000000000
00000001FFFFF000000000
00000001FFFFF000000000
00000001FFFFF000000000
00000001FFFFF000000000
00000001FFFFF000000000
00000001FFFFF000000000
00000001FFFFF000000000
00000001FFFFF000000000
00000001FFFFF000000000
00000001FFFFF000000000
00000001FFFFF000000000
00000001FFFFF000000000
00000001FFFFF000000000
00000001FFFFF000000000
00000001FFFFF000000000
00000001FFFFF000000000
00000001FFFFF000000000
00000001FFFFF000000000
00000001FFFFF000000000
00000001FFFFF000000000
00000001FFFFF000000000
00000001FFFFF000000000
00000001FFFFF000000000
00000001FFFFF000000000
00000001FFFFF000000000
00000001FFFFF000000000
00000001FFFFF000000000
00000001FFFFF000000000
00000001FFFFF000000000
00000001FFFFF000000000
00000001FFFFF000000000
00000001FFFFF000000000
00000001FFFFF000000000
00000001FFFFF000000000
00000001FFFFF000000000
00000001FFFFF000000000
00000001FFFFF000000000
00000001FFFFF000000000
00000000FFFFE000000000
00000000FFFFE000000000
000000007FFFC000000000
000000007FFFC000000000
000000003FFF8000000000
000000000FFE0000000000
0000000003F80000000000
ENDCHAR
STARTCHAR 0055
ENCODING 85
SWIDTH 528 0
DWIDTH 92 0
BBX 84 130 3 0
BITMAP
01FC00000000000003F800
07FF0000000000000FFE00
0FFF8000000000001FFF00
1FFFC000000000003FFF80
3FFFE000000000007FFFC0
7FFFF00000000000FFFFE0
7FFFF00000000000FFFFE0
FFFFF80000000001FFFFF0
FFFFF80000000001FFFFF0
FFFFF80000000001FFFFF0
FFFFF80000000001FFFFF0
FFFFF80000000001FFFFF0
FFFFF80000000001FFFFF0
FFFFF80000000001FFFFF0
FFFFF80000000001FFFFF0
FFFFF80000000001FFFFF0
FFFFF80000000001FFFFF0
FFFFF80000000001FFFFF0
FFFFF80000000001FFFFF0
FFFFF80000000001FFFFF0
FFFFF80000000001FFFFF0
FFFFF80000000001FFFFF0
FFFFF80000000001FFFFF0
FFFFF80000000001FFFFF0
FFFFF80000000001FFFFF0
FFFFF80000000001FFFFF0
FFFFF80000000001FFFFF0
FFFFF80000000001FFFFF0
FFFFF80000000001FFFFF0
FFFFF80000000001FFFFF0
FFFFF80000000001FFFFF0
FFFFF80000000001FFFFF0
FFFFF80000000001FFFFF0
FFFFF80000000001FFFFF0
FFFFF80000000001FFFFF0
FFFFF80000000001FFFFF0
FFFFF80000000001FFFFF0
FFFFF80000000001FFFFF0
FFFFF80000000001FFFFF0
FFFFF80000000001FFFFF0
FFFFF80000000001FFFFF0
FFFFF80000000001FFFFF0
FFFFF80000000001FFFFF0
FFFFF80000000001FFFFF0
FFFFF80000000001FFFFF0
FFFFF80000000001FFFFF0
FFFFF80000000001FFFFF0
FFFFF80000000001FFFFF0
FFFFF80000000001FFFFF0
FFFFF80000000001FFFFF0
FFFFF80000000001FFFFF0
FFFFF80000000001FFFFF0
FFFFF80000000001FFFFF0
FFFFF80000000001FFFFF0
FFFFF80000000001FFFFF0
FFFFF80000000001FFFFF0
FFFFF80000000001FFFFF0
FFFFF80000000001FFFFF0
FFFFF80000000001FFFFF0
FFFFF80000000001FFFFF0
FFFFF80000000001FFFFF0
FFFFF80000000001FFFFF0
FFFFF80000000001FFFFF0
FFFFF80000000001FFFFF0
FFFFF80000000001FFFFF0
FFFFF80000000001FFFFF0
FFFFF80000000001FFFFF0
FFFFF80000000001FFFFF0
FFFFF80000000001FFFFF0
FFFFF80000000001FFFFF0
FFFFF80000000001FFFFF0
FFFFF80000000001FFFFF0
FFFFF80000000001FFFFF0
FFFFF80000000001FFFFF0
FFFFF80000000001FFFFF0
FFFFF80000000001FFFFF0
FFFFF80000000001FFFFF0
FFFFF80000000001FFFFF0
FFFFF80000000001FFFFF0
FFFFF80000000001FFFFF0
FFFFF80000000001FFFFF0
FFFFF80000000001FFFFF0
FFFFF80000000001FFFFF0
FFFFF80000000001FFFFF0
FFFFF80000000001FFFFF0
FFFFF80000000001FFFFF0
FFFFF80000000001FFFFF0
FFFFF80000000001FFFFF0
FFFFF80000000001FFFFF0
FFFFF80000000001FFFFF0
FFFFF80000000001FFFFF0
FFFFF80000000001FFFFF0
FFFFF80000000001FFFFF0
FFFFF80000000001FFFFF0
FFFFF80000000001FFFFF0
FFFFF80000000001FFFFF0
FFFFF80000000001FFFFF0
FFFFF80000000001FFFFF0
FFFFF80000000001FFFFF0
FFFFF80000000001FFFFF0
FFFFF80000000001FFFFF0
FFFFF80000000001FFFFF0
FFFFFC0000000003FFFFF0
FFFFFC0000000003FFFFF0
FFFFFE0000000007FFFFF0
7FFFFF000000000FFFFFE0
7FFFFF800000001FFFFFE0
7FFFFFC00000003FFFFFE0
7FFFFFF0000000FFFFFFE0
3FFFFFFFFFFFFFFFFFFFE0
3FFFFFFFFFFFFFFFFFFFC0
3FFFFFFFFFFFFFFFFFFFC0
1FFFFFFFFFFFFFFFFFFF80
1FFFFFFFFFFFFFFFFFFF80
0FFFFFFFFFFFFFFFFFFF80
07FFFFFFFFFFFFFFFFFF00
07FFFFFFFFFFFFFFFFFE00
03FFFFFFFFFFFFFFFFFE00
01FFFFFFFFFFFFFFFFFC00
00FFFFFFFFFFFFFFFFF800
007FFFFFFFFFFFFFFFF000
003FFFFFFFFFFFFFFFE000
001FFFFFFFFFFFFFFFC000
000FFFFFFFFFFFFFFF0000
0007FFFFFFFFFFFFFE0000
0001FFFFFFFFFFFFF80000
00007FFFFFFFFFFFE00000
00001FFFFFFFFFFF800000
000007FFFFFFFFFC000000
0000003FFFFFFFC0000000
ENDCHAR
STARTCHAR 0056
ENCODING 86
SWIDTH 556 0
DWIDTH 97 0
BBX 89 130 3 0
BITMAP
01FC000000000000003F8000
07FF80000000000000FFF000
0FFFC0000000000001FFF800
1FFFE0000000000003FFFC00
3FFFE0000000000007FFFE00
7FFFF000000000000FFFFE00
7FFFF000000000000FFFFF00
FFFFF800000000000FFFFF00
FFFFF800000000001FFFFF00
FFFFF800000000001FFFFF00
FFFFFC00000000001FFFFF80
FFFFFC00000000001FFFFF00
FFFFFC00000000003FFFFF00
7FFFFE00000000003FFFFF00
7FFFFE00000000003FFFFF00
7FFFFE00000000007FFFFE00
3FFFFE00000000007FFFFE00
3FFFFF00000000007FFFFE00
3FFFFF0000000000FFFFFC00
3FFFFF0000000000FFFFFC00
1FFFFF8000000000FFFFFC00
1FFFFF8000000001FFFFF800
1FFFFF8000000001FFFFF800
0FFFFFC000000001FFFFF800
0FFFFFC000000001FFFFF800
0FFFFFC000000003FFFFF000
07FFFFE000000003FFFFF000
07FFFFE000000003FFFFF000
07FFFFE000000007FFFFE000
03FFFFE000000007FFFFE000
03FFFFF000000007FFFFE000
03FFFFF00000000FFFFFC000
03FFFFF00000000FFFFFC000
01FFFFF80000000FFFFFC000
01FFFFF80000001FFFFF8000
01FFFFF80000001FFFFF8000
00FFFFFC0000001FFFFF8000
00FFFFFC0000001FFFFF8000
00FFFFFC0000003FFFFF0000
007FFFFE0000003FFFFF0000
007FFFFE0000003FFFFF0000
007FFFFE0000007FFFFE0000
003FFFFE0000007FFFFE0000
003FFFFF0000007FFFFE0000
003FFFFF000000FFFFFC0000
003FFFFF000000FFFFFC0000
001FFFFF800000FFFFFC0000
001FFFFF800001FFFFF80000
001FFFFF800001FFFFF80000
000FFFFFC00001FFFFF80000
000FFFFFC00001FFFFF80000
000FFFFFC00003FFFFF00000
0007FFFFE00003FFFFF00000
0007FFFFE00003FFFFF00000
0007FFFFE00007FFFFE00000
0003FFFFE00007FFFFE00000
0003FFFFF00007FFFFE00000
0003FFFFF0000FFFFFC00000
0003FFFFF0000FFFFFC00000
0001FFFFF8000FFFFFC00000
0001FFFFF8001FFFFF800000
0001FFFFF8001FFFFF800000
0000FFFFFC001FFFFF800000
0000FFFFFC003FFFFF800000
0000FFFFFC003FFFFF000000
00007FFFFE003FFFFF000000
00007FFFFE003FFFFF000000
00007FFFFE007FFFFE000000
00003FFFFE007FFFFE000000
00003FFFFF007FFFFE000000
00003FFFFF00FFFFFC000000
00003FFFFF00FFFFFC000000
00001FFFFF80FFFFFC000000
00001FFFFF81FFFFF8000000
00001FFFFF81FFFFF8000000
00000FFFFFC1FFFFF8000000
00000FFFFFC3FFFFF0000000
00000FFFFFC3FFFFF0000000
000007FFFFE3FFFFF0000000
000007FFFFE3FFFFF0000000
000007FFFFE7FFFFE0000000
000003FFFFE7FFFFE0000000
000003FFFFF7FFFFE0000000
000003FFFFFFFFFFC0000000
000003FFFFFFFFFFC0000000
000001FFFFFFFFFFC0000000
000001FFFFFFFFFF80000000
000001FFFFFFFFFF80000000
000000FFFFFFFFFF80000000
000000FFFFFFFFFF00000000
000000FFFFFFFFFF00000000
0000007FFFFFFFFF00000000
0000007FFFFFFFFF00000000
0000007FFFFFFFFE00000000
0000003FFFFFFFFE00000000
0000003FFFFFFFFE00000000
0000003FFFFFFFFC00000000
0000003FFFFFFFFC00000000
0000001FFFFFFFFC00000000
0000001FFFFFFFF800000000
0000001FFFFFFFF800000000
0000000FFFFFFFF800000000
0000000FFFFFFFF000000000
0000000FFFFFFFF000000000
00000007FFFFFFF000000000
00000007FFFFFFF000000000
00000007FFFFFFE000000000
00000003FFFFFFE000000000
00000003FFFFFFE000000000
00000003FFFFFFC000000000
00000003FFFFFFC000000000
00000001FFFFFFC000000000
00000001FFFFFF8000000000
00000001FFFFFF8000000000
00000000FFFFFF8000000000
00000000FFFFFF0000000000
00000000FFFFFF0000000000
000000007FFFFF0000000000
000000007FFFFF0000000000
000000007FFFFE0000000000
000000003FFFFE0000000000
000000003FFFFE0000000000
000000003FFFFC0000000000
000000003FFFFC0000000000
000000001FFFF80000000000
000000001FFFF80000000000
000000000FFFF00000000000
0000000007FFE00000000000
0000000003FFC00000000000
00000000007F000000000000
ENDCHAR
STARTCHAR 0057
ENCODING 87
SWIDTH 769 0
DWIDTH 134 0
BBX 125 130 3 0
BITMAP
01FC000000000007C00000000001FC00
07FF00000000000FF00000000007FF00
0FFF80000000003FF8000000001FFF80
1FFFC000000000FFFC000000003FFFC0
3FFFE000000001FFFE000000003FFFE0
7FFFF000000003FFFF000000007FFFF0
7FFFF000000007FFFF000000007FFFF0
FFFFF800000007FFFF80000000FFFFF8
FFFFF80000000FFFFF80000000FFFFF8
FFFFF80000000FFFFF80000000FFFFF8
FFFFF80000000FFFFF80000000FFFFF8
FFFFF80000000FFFFF80000000FFFFF8
FFFFF80000000FFFFF80000000FFFFF8
FFFFF80000000FFFFF80000000FFFFF8
FFFFF80000000FFFFF80000000FFFFF8
FFFFF80000000FFFFF80000000FFFFF8
FFFFF80000000FFFFF80000000FFFFF8
FFFFF80000000FFFFF80000000FFFFF8
FFFFF80000000FFFFF80000000FFFFF8
FFFFF80000000FFFFF80000000FFFFF8
FFFFF80000000FFFFF80000000FFFFF8
FFFFF80000000FFFFF80000000FFFFF8
FFFFF80000000FFFFF80000000FFFFF8
FFFFF80000000FFFFF80000000FFFFF8
FFFFF80000000FFFFF80000000FFFFF8
FFFFF80000000FFFFF80000000FFFFF8
FFFFF80000000FFFFF80000000FFFFF8
FFFFF80000000FFFFF80000000FFFFF8
FFFFF80000000FFFFF80000000FFFFF8
FFFFF80000000FFFFF80000000FFFFF8
FFFFF80000000FFFFF80000000FFFFF8
FFFFF80000000FFFFF80000000FFFFF8
FFFFF80000000FFFFF80000000FFFFF8
FFFFF80000000FFFFF80000000FFFFF8
FFFFF80000000FFFFF80000000FFFFF8
FFFFF80000000FFFFF80000000FFFFF8
FFFFF80000000FFFFF80000000FFFFF8
FFFFF80000000FFFFF80000000FFFFF8
FFFFF80000000FFFFF80000000FFFFF8
FFFFF80000000FFFFF80000000FFFFF8
FFFFF80000000FFFFF80000000FFFFF8
FFFFF80000000FFFFF80000000FFFFF8
FFFFF80000000FFFFF80000000FFFFF8
FFFFF80000000FFFFF80000000FFFFF8
FFFFF80000000FFFFF80000000FFFFF8
FFFFF80000000FFFFF80000000FFFFF8
FFFFF80000000FFFFF80000000FFFFF8
FFFFF80000000FFFFF80000000FFFFF8
FFFFF80000000FFFFF80000000FFFFF8
FFFFF80000000FFFFF80000000FFFFF8
FFFFF80000000FFFFF80000000FFFFF8
FFFFF80000000FFFFF80000000FFFFF8
FFFFF80000000FFFFF80000000FFFFF8
FFFFF80000000FFFFF80000000FFFFF8
FFFFF80000000FFFFF80000000FFFFF8
FFFFF80000000FFFFF80000000FFFFF8
FFFFF80000000FFFFF80000000FFFFF8
FFFFF80000000FFFFF80000000FFFFF8
FFFFF80000000FFFFF80000000FFFFF8
FFFFF80000000FFFFF80000000FFFFF8
FFFFF80000000FFFFF80000000FFFFF8
FFFFF80000000FFFFF80000000FFFFF8
FFFFF80000000FFFFF80000000FFFFF8
FFFFF80000000FFFFF80000000FFFFF8
FFFFF80000000FFFFF80000000FFFFF8
FFFFF80000000FFFFF80000000FFFFF8
FFFFF80000000FFFFF80000000FFFFF8
FFFFF80000000FFFFF80000000FFFFF8
FFFFF80000000FFFFF80000000FFFFF8
FFFFF80000000FFFFF80000000FFFFF8
FFFFF80000000FFFFF80000000FFFFF8
FFFFF80000000FFFFF80000000FFFFF8
FFFFF80000000FFFFF80000000FFFFF8
FFFFF80000000FFFFF80000000FFFFF8
FFFFF80000000FFFFF80000000FFFFF8
FFFFF80000000FFFFF80000000FFFFF8
FFFFF80000000FFFFF80000000FFFFF8
FFFFF80000000FFFFF80000000FFFFF8
FFFFF80000000FFFFF80000000FFFFF8
FFFFF80000000FFFFF80000000FFFFF8
FFFFF80000000FFFFF80000000FFFFF8
FFFFF80000000FFFFF80000000FFFFF8
FFFFF80000000FFFFF80000000FFFFF8
FFFFF80000000FFFFF80000000FFFFF8
FFFFF80000000FFFFF80000000FFFFF8
FFFFF80000000FFFFF80000000FFFFF8
FFFFF80000000FFFFF80000000FFFFF8
FFFFF80000000FFFFF80000000FFFFF8
FFFFF80000000FFFFF80000000FFFFF8
FFFFF80000000FFFFF80000000FFFFF8
FFFFF80000000FFFFF80000000FFFFF8
FFFFF80000000FFFFF80000000FFFFF8
FFFFF80000000FFFFF80000000FFFFF8
FFFFF80000000FFFFF80000000FFFFF8
FFFFF80000000FFFFF80000000FFFFF8
FFFFF80000000FFFFF80000000FFFFF8
FFFFF80000000FFFFF80000000FFFFF8
FFFFF80000000FFFFF80000000FFFFF8
FFFFF80000000FFFFF80000000FFFFF8
FFFFF80000000FFFFF80000000FFFFF8
FFFFF80000000FFFFF80000000FFFFF8
FFFFF80000000FFFFF80000000FFFFF8
FFFFF80000001FFFFFC0000000FFFFF8
FFFFF80000001FFFFFC0000000FFFFF8
FFFFF80000003FFFFFE0000000FFFFF8
FFFFF80000007FFFFFF0000000FFFFF8
FFFFF8000000FFFFFFF8000000FFFFF8
FFFFF8000001FFFFFFFC000000FFFFF8
FFFFF8000007FFFFFFFF000000FFFFF8
FFFFFFFFFFFFFFFFFFFFFFFFFFFFFFF8
FFFFFFFFFFFFFFFFFFFFFFFFFFFFFFF8
FFFFFFFFFFFFFFFFFFFFFFFFFFFFFFF8
FFFFFFFFFFFFFFFFFFFFFFFFFFFFFFF8
FFFFFFFFFFFFFFFFFFFFFFFFFFFFFFF8
FFFFFFFFFFFFFFFFFFFFFFFFFFFFFFF8
FFFFFFFFFFFFFFFFFFFFFFFFFFFFFFF8
FFFFFFFFFFFFFFFFFFFFFFFFFFFFFFF8
FFFFFFFFFFFFFFFFFFFFFFFFFFFFFFF8
FFFFFFFFFFFFFFFFFFFFFFFFFFFFFFF8
7FFFFFFFFFFFFFFFFFFFFFFFFFFFFFF0
7FFFFFFFFFFFFFFFFFFFFFFFFFFFFFF0
3FFFFFFFFFFFFFFFFFFFFFFFFFFFFFE0
3FFFFFFFFFFFFFFDFFFFFFFFFFFFFFE0
1FFFFFFFFFFFFFF8FFFFFFFFFFFFFFC0
0FFFFFFFFFFFFFE03FFFFFFFFFFFFF80
07FFFFFFFFFFFF801FFFFFFFFFFFFF00
03FFFFFFFFFFFC0007FFFFFFFFFFFE00
01FFFFFFFFFFE00001FFFFFFFFFFFC00
007FFFFFFFFF0000007FFFFFFFFFF000
000FFFFFFFF000000003FFFFFFFF8000
ENDCHAR
STARTCHAR 0058
ENCODING 88
SWIDTH 533 0
DWIDTH 93 0
BBX 84 130 3 0
BITMAP
01FC00000000000003F800
07FF0000000000001FFE00
1FFF8000000000003FFF00
3FFFC000000000007FFF80
3FFFE00000000000FFFFC0
7FFFF00000000000FFFFE0
7FFFF00000000001FFFFE0
FFFFF80000000001FFFFF0
FFFFF80000000003FFFFF0
FFFFF80000000007FFFFF0
FFFFF80000000007FFFFF0
FFFFF8000000000FFFFFF0
FFFFF8000000000FFFFFF0
FFFFF8000000001FFFFFE0
FFFFF8000000001FFFFFE0
FFFFF8000000003FFFFFC0
FFFFF8000000007FFFFFC0
FFFFF8000000007FFFFF80
FFFFF800000000FFFFFF00
FFFFF800000000FFFFFF00
FFFFF800000001FFFFFE00
FFFFF800000001FFFFFE00
FFFFF800000003FFFFFC00
FFFFF800000007FFFFFC00
FFFFF800000007FFFFF800
FFFFF80000000FFFFFF000
FFFFF80000000FFFFFF000
FFFFF80000001FFFFFE000
FFFFF80000001FFFFFE000
FFFFF80000003FFFFFC000
FFFFF80000007FFFFFC000
FFFFF80000007FFFFF8000
FFFFF8000000FFFFFF0000
FFFFF8000000FFFFFF0000
FFFFF8000001FFFFFE0000
FFFFF8000001FFFFFE0000
FFFFF8000003FFFFFC0000
FFFFF8000007FFFFFC0000
FFFFF8000007FFFFF80000
FFFFF800000FFFFFF00000
FFFFF800000FFFFFF00000
FFFFF800001FFFFFE00000
FFFFF800001FFFFFE00000
FFFFF800003FFFFFC00000
FFFFF800007FFFFFC00000
FFFFFC00007FFFFF800000
FFFFFC0000FFFFFF000000
7FFFFE0000FFFFFF000000
7FFFFF0001FFFFFE000000
7FFFFF8001FFFFFE000000
7FFFFFC003FFFFFC000000
3FFFFFF807FFFFFC000000
3FFFFFFFFFFFFFF8000000
3FFFFFFFFFFFFFFC000000
1FFFFFFFFFFFFFFF800000
1FFFFFFFFFFFFFFFE00000
0FFFFFFFFFFFFFFFF80000
0FFFFFFFFFFFFFFFFE0000
07FFFFFFFFFFFFFFFF0000
03FFFFFFFFFFFFFFFF8000
03FFFFFFFFFFFFFFFFC000
01FFFFFFFFFFFFFFFFE000
00FFFFFFFFFFFFFFFFF000
007FFFFFFFFFFFFFFFF800
003FFFFFFFFFFFFFFFFC00
001FFFFFFFFFFFFFFFFE00
0007FFFFFFFFFFFFFFFE00
0003FFFFFFFFFFFFFFFF00
0000FFFFFFFFFFFFFFFF00
00003FFFFFFFFFFFFFFF80
00000FFFFFFFFFFFFFFF80
000001FFFFFFFFFFFFFFC0
0000007FFFFFFFFFFFFFC0
0000007FFFFF807FFFFFE0
000000FFFFFF001FFFFFE0
000000FFFFFF000FFFFFE0
000001FFFFFE0007FFFFE0
000001FFFFFE0007FFFFF0
000003FFFFFC0003FFFFF0
000007FFFFFC0003FFFFF0
000007FFFFF80001FFFFF0
00000FFFFFF00001FFFFF0
00000FFFFFF00001FFFFF0
00001FFFFFE00001FFFFF0
00001FFFFFE00001FFFFF0
00003FFFFFC00001FFFFF0
00007FFFFFC00001FFFFF0
00007FFFFF800001FFFFF0
0000FFFFFF000001FFFFF0
0000FFFFFF000001FFFFF0
0001FFFFFE000001FFFFF0
0001FFFFFE000001FFFFF0
0003FFFFFC000001FFFFF0
0007FFFFFC000001FFFFF0
0007FFFFF8000001FFFFF0
000FFFFFF0000001FFFFF0
000FFFFFF0000001FFFFF0
001FFFFFE0000001FFFFF0
001FFFFFE0000001FFFFF0
003FFFFFC0000001FFFFF0
007FFFFFC0000001FFFFF0
007FFFFF80000001FFFFF0
00FFFFFF00000001FFFFF0
00FFFFFF00000001FFFFF0
01FFFFFE00000001FFFFF0
01FFFFFE00000001FFFFF0
03FFFFFC00000001FFFFF0
07FFFFFC00000001FFFFF0
07FFFFF800000001FFFFF0
0FFFFFF000000001FFFFF0
0FFFFFF000000001FFFFF0
1FFFFFE000000001FFFFF0
1FFFFFE000000001FFFFF0
3FFFFFC000000001FFFFF0
7FFFFFC000000001FFFFF0
7FFFFF8000000001FFFFF0
FFFFFF0000000001FFFFF0
FFFFFF0000000001FFFFF0
FFFFFE0000000001FFFFF0
FFFFFE0000000001FFFFF0
FFFFFC0000000001FFFFF0
FFFFFC0000000001FFFFF0
FFFFF80000000001FFFFF0
7FFFF00000000000FFFFE0
7FFFF00000000000FFFFE0
3FFFE000000000007FFFC0
1FFFC000000000003FFF80
0FFF8000000000001FFF00
07FF0000000000000FFE00
01FC00000000000003F800
ENDCHAR
STARTCHAR 0059
ENCODING 89
SWIDTH 528 0
DWIDTH 92 0
BBX 84 130 3 0
BITMAP
01FC00000000000003F800
07FF0000000000000FFE00
0FFF8000000000001FFF00
1FFFC000000000003FFF80
3FFFE000000000007FFFC0
7FFFF00000000000FFFFE0
7FFFF00000000000FFFFE0
FFFFF80000000001FFFFF0
FFFFF80000000001FFFFF0
FFFFF80000000001FFFFF0
FFFFF80000000001FFFFF0
FFFFF80000000001FFFFF0
FFFFF80000000001FFFFF0
FFFFF80000000001FFFFF0
FFFFF80000000001FFFFF0
FFFFF80000000001FFFFF0
FFFFF80000000001FFFFF0
FFFFF80000000001FFFFF0
FFFFF80000000001FFFFF0
FFFFF80000000001FFFFF0
FFFFF80000000001FFFFF0
FFFFF80000000001FFFFF0
FFFFF80000000001FFFFF0
FFFFF80000000001FFFFF0
FFFFF80000000001FFFFF0
FFFFF80000000001FFFFF0
FFFFF80000000001FFFFF0
FFFFF80000000001FFFFF0
FFFFF80000000001FFFFF0
FFFFF80000000001FFFFF0
FFFFF80000000001FFFFF0
FFFFF80000000001FFFFF0
FFFFF80000000001FFFFF0
FFFFF80000000001FFFFF0
FFFFF80000000001FFFFF0
FFFFF80000000001FFFFF0
FFFFF80000000001FFFFF0
FFFFF80000000001FFFFF0
FFFFF80000000001FFFFF0
FFFFF80000000001FFFFF0
FFFFF80000000001FFFFF0
FFFFF80000000001FFFFF0
FFFFF80000000001FFFFF0
FFFFF80000000001FFFFF0
FFFFF80000000001FFFFF0
FFFFFC0000000003FFFFF0
FFFFFC0000000003FFFFF0
FFFFFE0000000007FFFFF0
7FFFFF000000000FFFFFE0
7FFFFF800000001FFFFFE0
7FFFFFE00000003FFFFFE0
7FFFFFF8000001FFFFFFE0
3FFFFFFFFFFFFFFFFFFFC0
3FFFFFFFFFFFFFFFFFFFC0
1FFFFFFFFFFFFFFFFFFF80
1FFFFFFFFFFFFFFFFFFF80
1FFFFFFFFFFFFFFFFFFF00
0FFFFFFFFFFFFFFFFFFF00
07FFFFFFFFFFFFFFFFFE00
07FFFFFFFFFFFFFFFFFC00
03FFFFFFFFFFFFFFFFFC00
01FFFFFFFFFFFFFFFFF800
00FFFFFFFFFFFFFFFFF000
007FFFFFFFFFFFFFFFE000
003FFFFFFFFFFFFFFFC000
001FFFFFFFFFFFFFFF8000
000FFFFFFFFFFFFFFF0000
0007FFFFFFFFFFFFFC0000
0001FFFFFFFFFFFFF80000
00007FFFFFFFFFFFE00000
00001FFFFFFFFFFF800000
000003FFFFFFFFFC000000
0000001FFFFFFF00000000
00000001FFFFF000000000
00000001FFFFF000000000
00000001FFFFF000000000
00000001FFFFF000000000
00000001FFFFF000000000
00000001FFFFF000000000
00000001FFFFF000000000
00000001FFFFF000000000
00000001FFFFF000000000
00000001FFFFF000000000
00000001FFFFF000000000
00000001FFFFF000000000
00000001FFFFF000000000
00000001FFFFF000000000
00000001FFFFF000000000
00000001FFFFF000000000
00000001FFFFF000000000
00000001FFFFF000000000
00000001FFFFF000000000
00000001FFFFF000000000
00000001FFFFF000000000
00000001FFFFF000000000
00000001FFFFF000000000
00000001FFFFF000000000
00000001FFFFF000000000
00000001FFFFF000000000
00000001FFFFF000000000
00000001FFFFF000000000
00000001FFFFF000000000
00000001FFFFF000000000
00000001FFFFF000000000
00000001FFFFF000000000
00000001FFFFF000000000
00000001FFFFF000000000
00000001FFFFF000000000
00000001FFFFF000000000
00000001FFFFF000000000
00000001FFFFF000000000
00000001FFFFF000000000
00000001FFFFF000000000
00000001FFFFF000000000
00000001FFFFF000000000
00000001FFFFF000000000
00000001FFFFF000000000
00000001FFFFF000000000
00000001FFFFF000000000
00000001FFFFF000000000
00000001FFFFF000000000
00000001FFFFF000000000
00000001FFFFF000000000
00000000FFFFE000000000
00000000FFFFE000000000
000000007FFFC000000000
000000003FFF8000000000
000000001FFF0000000000
000000000FFE0000000000
0000000003F80000000000
ENDCHAR
STARTCHAR 005A
ENCODING 90
SWIDTH 533 0
DWIDTH 93 0
BBX 84 130 3 0
BITMAP
01FFFFFFFFFFFFFFFFF800
07FFFFFFFFFFFFFFFFFE00
0FFFFFFFFFFFFFFFFFFF00
1FFFFFFFFFFFFFFFFFFF80
3FFFFFFFFFFFFFFFFFFFC0
7FFFFFFFFFFFFFFFFFFFE0
7FFFFFFFFFFFFFFFFFFFE0
7FFFFFFFFFFFFFFFFFFFF0
FFFFFFFFFFFFFFFFFFFFF0
FFFFFFFFFFFFFFFFFFFFF0
FFFFFFFFFFFFFFFFFFFFF0
FFFFFFFFFFFFFFFFFFFFF0
FFFFFFFFFFFFFFFFFFFFF0
7FFFFFFFFFFFFFFFFFFFE0
7FFFFFFFFFFFFFFFFFFFE0
7FFFFFFFFFFFFFFFFFFFE0
3FFFFFFFFFFFFFFFFFFFC0
1FFFFFFFFFFFFFFFFFFFC0
0FFFFFFFFFFFFFFFFFFF80
07FFFFFFFFFFFFFFFFFF00
01FFFFFFFFFFFFFFFFFF00
00000000000001FFFFFE00
00000000000003FFFFFE00
00000000000003FFFFFC00
00000000000007FFFFFC00
00000000000007FFFFF800
0000000000000FFFFFF000
0000000000000FFFFFF000
0000000000001FFFFFE000
0000000000003FFFFFE000
0000000000003FFFFFC000
0000000000007FFFFFC000
0000000000007FFFFF8000
000000000000FFFFFF0000
000000000000FFFFFF0000
000000000001FFFFFE0000
000000000003FFFFFE0000
000000000003FFFFFC0000
000000000007FFFFF80000
000000000007FFFFF80000
00000000000FFFFFF00000
00000000001FFFFFF00000
00000000001FFFFFE00000
00000000003FFFFFE00000
00000000003FFFFFC00000
00000000007FFFFF800000
00000000007FFFFF800000
0000000000FFFFFF000000
0000000001FFFFFF000000
0000000001FFFFFE000000
0000000003FFFFFE000000
0000000003FFFFFC000000
0000000007FFFFF8000000
0000000007FFFFF8000000
000000000FFFFFF0000000
000000001FFFFFF0000000
000000001FFFFFE0000000
000000003FFFFFE0000000
000000003FFFFFC0000000
000000007FFFFF80000000
000000007FFFFF80000000
00000000FFFFFF00000000
00000001FFFFFF00000000
00000001FFFFFE00000000
00000003FFFFFC00000000
00000003FFFFFC00000000
00000007FFFFF800000000
0000000FFFFFF800000000
0000000FFFFFF000000000
0000001FFFFFF000000000
0000001FFFFFE000000000
0000003FFFFFC000000000
0000003FFFFFC000000000
0000007FFFFF8000000000
000000FFFFFF8000000000
000000FFFFFF0000000000
000001FFFFFF0000000000
000001FFFFFE0000000000
000003FFFFFC0000000000
000003FFFFFC0000000000
000007FFFFF80000000000
00000FFFFFF80000000000
00000FFFFFF00000000000
00001FFFFFF00000000000
00001FFFFFE00000000000
00003FFFFFC00000000000
00003FFFFFC00000000000
00007FFFFF800000000000
0000FFFFFF800000000000
0000FFFFFF000000000000
0001FFFFFE000000000000
0001FFFFFE000000000000
0003FFFFFC000000000000
0003FFFFFC000000000000
0007FFFFF8000000000000
000FFFFFF8000000000000
000FFFFFF0000000000000
001FFFFFE0000000000000
001FFFFFE0000000000000
003FFFFFC0000000000000
007FFFFFC0000000000000
007FFFFF80000000000000
00FFFFFF80000000000000
00FFFFFF00000000000000
01FFFFFE00000000000000
01FFFFFE00000000000000
03FFFFFC00000000000000
07FFFFFC00000000000000
07FFFFF800000000000000
0FFFFFFFFFFFFFFFFFF000
0FFFFFFFFFFFFFFFFFFE00
1FFFFFFFFFFFFFFFFFFF00
1FFFFFFFFFFFFFFFFFFF80
3FFFFFFFFFFFFFFFFFFFC0
7FFFFFFFFFFFFFFFFFFFC0
7FFFFFFFFFFFFFFFFFFFE0
FFFFFFFFFFFFFFFFFFFFE0
FFFFFFFFFFFFFFFFFFFFE0
FFFFFFFFFFFFFFFFFFFFF0
FFFFFFFFFFFFFFFFFFFFF0
FFFFFFFFFFFFFFFFFFFFF0
FFFFFFFFFFFFFFFFFFFFF0
FFFFFFFFFFFFFFFFFFFFE0
7FFFFFFFFFFFFFFFFFFFE0
7FFFFFFFFFFFFFFFFFFFE0
3FFFFFFFFFFFFFFFFFFFC0
3FFFFFFFFFFFFFFFFFFF80
1FFFFFFFFFFFFFFFFFFF00
07FFFFFFFFFFFFFFFFFE00
01FFFFFFFFFFFFFFFFF800
ENDCHAR
STARTCHAR 005B
ENCODING 91
SWIDTH 292 0
DWIDTH 51 0
BBX 42 167 3 -16
BITMAP
01FFFFFFE000
07FFFFFFF800
0FFFFFFFFC00
1FFFFFFFFE00
3FFFFFFFFF00
7FFFFFFFFF80
7FFFFFFFFF80
FFFFFFFFFFC0
FFFFFFFFFFC0
FFFFFFFFFFC0
FFFFFFFFFFC0
FFFFFFFFFFC0
FFFFFFFFFFC0
FFFFFFFFFFC0
FFFFFFFFFF80
FFFFFFFFFF80
FFFFFFFFFF00
FFFFFFFFFE00
FFFFFFFFFC00
FFFFFFFFF800
FFFFFFFFE000
FFFFF8000000
FFFFF8000000
FFFFF8000000
FFFFF8000000
FFFFF8000000
FFFFF8000000
FFFFF8000000
FFFFF8000000
FFFFF8000000
FFFFF8000000
FFFFF8000000
FFFFF8000000
FFFFF8000000
FFFFF8000000
FFFFF8000000
FFFFF8000000
FFFFF8000000
FFFFF8000000
FFFFF8000000
FFFFF8000000
FFFFF8000000
FFFFF8000000
FFFFF8000000
FFFFF8000000
FFFFF8000000
FFFFF8000000
FFFFF8000000
FFFFF8000000
FFFFF8000000
FFFFF8000000
FFFFF8000000
FFFFF8000000
FFFFF8000000
FFFFF8000000
FFFFF8000000
FFFFF8000000
FFFFF8000000
FFFFF8000000
FFFFF8000000
FFFFF8000000
FFFFF8000000
FFFFF8000000
FFFFF8000000
FFFFF8000000
FFFFF8000000
FFFFF8000000
FFFFF8000000
FFFFF8000000
FFFFF8000000
FFFFF8000000
FFFFF8000000
FFFFF8000000
FFFFF8000000
FFFFF8000000
FFFFF8000000
FFFFF8000000
FFFFF8000000
FFFFF8000000
FFFFF8000000
FFFFF8000000
FFFFF8000000
FFFFF8000000
FFFFF8000000
FFFFF8000000
FFFFF8000000
FFFFF8000000
FFFFF8000000
FFFFF8000000
FFFFF8000000
FFFFF8000000
FFFFF8000000
FFFFF8000000
FFFFF8000000
FFFFF8000000
FFFFF8000000
FFFFF8000000
FFFFF8000000
FFFFF8000000
FFFFF8000000
FFFFF8000000
FFFFF8000000
FFFFF8000000
FFFFF8000000
FFFFF8000000
FFFFF8000000
FFFFF8000000
FFFFF8000000
FFFFF8000000
FFFFF8000000
FFFFF8000000
FFFFF8000000
FFFFF8000000
FFFFF8000000
FFFFF8000000
FFFFF8000000
FFFFF8000000
FFFFF8000000
FFFFF8000000
FFFFF8000000
FFFFF8000000
FFFFF8000000
FFFFF8000000
FFFFF8000000
FFFFF8000000
FFFFF8000000
FFFFF8000000
FFFFF8000000
FFFFF8000000
FFFFF8000000
FFFFF8000000
FFFFF8000000
FFFFF8000000
FFFFF8000000
FFFFF8000000
FFFFF8000000
FFFFF8000000
FFFFF8000000
FFFFF8000000
FFFFF8000000
FFFFF8000000
FFFFF8000000
FFFFF8000000
FFFFF8000000
FFFFF8000000
FFFFF8000000
FFFFFFFFE000
FFFFFFFFF800
FFFFFFFFFC00
FFFFFFFFFE00
FFFFFFFFFF00
FFFFFFFFFF80
FFFFFFFFFF80
FFFFFFFFFFC0
FFFFFFFFFFC0
FFFFFFFFFFC0
FFFFFFFFFFC0
FFFFFFFFFFC0
FFFFFFFFFFC0
FFFFFFFFFFC0
7FFFFFFFFF80
7FFFFFFFFF80
3FFFFFFFFF00
1FFFFFFFFE00
0FFFFFFFFC00
07FFFFFFF800
01FFFFFFE000
ENDCHAR
STARTCHAR 005C
ENCODING 92
SWIDTH 533 0
DWIDTH 93 0
BBX 84 130 3 -1
BITMAP
01FC000000000000000000
07FF800000000000000000
0FFFC00000000000000000
1FFFE00000000000000000
3FFFF00000000000000000
7FFFF00000000000000000
7FFFF80000000000000000
FFFFF80000000000000000
FFFFFC0000000000000000
FFFFFE0000000000000000
FFFFFE0000000000000000
FFFFFF0000000000000000
FFFFFF0000000000000000
7FFFFF8000000000000000
7FFFFF8000000000000000
3FFFFFC000000000000000
3FFFFFE000000000000000
1FFFFFE000000000000000
1FFFFFF000000000000000
0FFFFFF000000000000000
07FFFFF800000000000000
07FFFFF800000000000000
03FFFFFC00000000000000
03FFFFFC00000000000000
01FFFFFE00000000000000
01FFFFFF00000000000000
00FFFFFF00000000000000
007FFFFF80000000000000
007FFFFF80000000000000
003FFFFFC0000000000000
003FFFFFC0000000000000
001FFFFFE0000000000000
001FFFFFF0000000000000
000FFFFFF0000000000000
0007FFFFF8000000000000
0007FFFFF8000000000000
0003FFFFFC000000000000
0003FFFFFC000000000000
0001FFFFFE000000000000
0001FFFFFF000000000000
0000FFFFFF000000000000
00007FFFFF800000000000
00007FFFFF800000000000
00003FFFFFC00000000000
00003FFFFFC00000000000
00001FFFFFE00000000000
00001FFFFFF00000000000
00000FFFFFF00000000000
000007FFFFF80000000000
000007FFFFF80000000000
000003FFFFFC0000000000
000003FFFFFC0000000000
000001FFFFFE0000000000
000001FFFFFF0000000000
000000FFFFFF0000000000
0000007FFFFF8000000000
0000007FFFFF8000000000
0000003FFFFFC000000000
0000003FFFFFC000000000
0000001FFFFFE000000000
0000001FFFFFF000000000
0000000FFFFFF000000000
00000007FFFFF800000000
00000007FFFFF800000000
00000003FFFFFC00000000
00000003FFFFFC00000000
00000001FFFFFE00000000
00000001FFFFFF00000000
00000000FFFFFF00000000
000000007FFFFF80000000
000000007FFFFF80000000
000000003FFFFFC0000000
000000003FFFFFC0000000
000000001FFFFFE0000000
000000001FFFFFF0000000
000000000FFFFFF0000000
0000000007FFFFF8000000
0000000007FFFFF8000000
0000000003FFFFFC000000
0000000003FFFFFC000000
0000000001FFFFFE000000
0000000001FFFFFF000000
0000000000FFFFFF000000
00000000007FFFFF800000
00000000007FFFFF800000
00000000003FFFFFC00000
00000000003FFFFFC00000
00000000001FFFFFE00000
00000000001FFFFFF00000
00000000000FFFFFF00000
000000000007FFFFF80000
000000000007FFFFF80000
000000000003FFFFFC0000
000000000003FFFFFC0000
000000000001FFFFFE0000
000000000001FFFFFF0000
000000000000FFFFFF0000
0000000000007FFFFF8000
0000000000007FFFFF8000
0000000000003FFFFFC000
0000000000003FFFFFC000
0000000000001FFFFFE000
0000000000001FFFFFF000
0000000000000FFFFFF000
00000000000007FFFFF800
00000000000007FFFFF800
00000000000003FFFFFC00
00000000000003FFFFFC00
00000000000001FFFFFE00
00000000000001FFFFFF00
00000000000000FFFFFF00
000000000000007FFFFF80
000000000000007FFFFF80
000000000000003FFFFFC0
000000000000003FFFFFC0
000000000000001FFFFFE0
000000000000001FFFFFE0
000000000000000FFFFFF0
000000000000000FFFFFF0
0000000000000007FFFFF0
0000000000000003FFFFF0
0000000000000003FFFFF0
0000000000000001FFFFE0
0000000000000001FFFFE0
0000000000000000FFFFE0
00000000000000007FFFC0
00000000000000007FFF80
00000000000000003FFF00
00000000000000000FFE00
000000000000000003F800
ENDCHAR
STARTCHAR 005D
ENCODING 93
SWIDTH 292 0
DWIDTH 51 0
BBX 42 167 3 -16
BITMAP
01FFFFFFE000
07FFFFFFF800
0FFFFFFFFC00
1FFFFFFFFE00
3FFFFFFFFF00
7FFFFFFFFF80
7FFFFFFFFF80
FFFFFFFFFFC0
FFFFFFFFFFC0
FFFFFFFFFFC0
FFFFFFFFFFC0
FFFFFFFFFFC0
FFFFFFFFFFC0
FFFFFFFFFFC0
7FFFFFFFFFC0
7FFFFFFFFFC0
3FFFFFFFFFC0
1FFFFFFFFFC0
0FFFFFFFFFC0
07FFFFFFFFC0
01FFFFFFFFC0
000007FFFFC0
000007FFFFC0
000007FFFFC0
000007FFFFC0
000007FFFFC0
000007FFFFC0
000007FFFFC0
000007FFFFC0
000007FFFFC0
000007FFFFC0
000007FFFFC0
000007FFFFC0
000007FFFFC0
000007FFFFC0
000007FFFFC0
000007FFFFC0
000007FFFFC0
000007FFFFC0
000007FFFFC0
000007FFFFC0
000007FFFFC0
000007FFFFC0
000007FFFFC0
000007FFFFC0
000007FFFFC0
000007FFFFC0
000007FFFFC0
000007FFFFC0
000007FFFFC0
000007FFFFC0
000007FFFFC0
000007FFFFC0
000007FFFFC0
000007FFFFC0
000007FFFFC0
000007FFFFC0
000007FFFFC0
000007FFFFC0
000007FFFFC0
000007FFFFC0
000007FFFFC0
000007FFFFC0
000007FFFFC0
000007FFFFC0
000007FFFFC0
000007FFFFC0
000007FFFFC0
000007FFFFC0
000007FFFFC0
000007FFFFC0
000007FFFFC0
000007FFFFC0
000007FFFFC0
000007FFFFC0
000007FFFFC0
000007FFFFC0
000007FFFFC0
000007FFFFC0
000007FFFFC0
000007FFFFC0
000007FFFFC0
000007FFFFC0
000007FFFFC0
000007FFFFC0
000007FFFFC0
000007FFFFC0
000007FFFFC0
000007FFFFC0
000007FFFFC0
000007FFFFC0
000007FFFFC0
000007FFFFC0
000007FFFFC0
000007FFFFC0
000007FFFFC0
000007FFFFC0
000007FFFFC0
000007FFFFC0
000007FFFFC0
000007FFFFC0
000007FFFFC0
000007FFFFC0
000007FFFFC0
000007FFFFC0
000007FFFFC0
000007FFFFC0
000007FFFFC0
000007FFFFC0
000007FFFFC0
000007FFFFC0
000007FFFFC0
000007FFFFC0
000007FFFFC0
000007FFFFC0
000007FFFFC0
000007FFFFC0
000007FFFFC0
000007FFFFC0
000007FFFFC0
000007FFFFC0
000007FFFFC0
000007FFFFC0
000007FFFFC0
000007FFFFC0
000007FFFFC0
000007FFFFC0
000007FFFFC0
000007FFFFC0
000007FFFFC0
000007FFFFC0
000007FFFFC0
000007FFFFC0
000007FFFFC0
000007FFFFC0
000007FFFFC0
000007FFFFC0
000007FFFFC0
000007FFFFC0
000007FFFFC0
000007FFFFC0
000007FFFFC0
000007FFFFC0
000007FFFFC0
000007FFFFC0
000007FFFFC0
01FFFFFFFFC0
07FFFFFFFFC0
0FFFFFFFFFC0
1FFFFFFFFFC0
3FFFFFFFFFC0
7FFFFFFFFFC0
7FFFFFFFFFC0
FFFFFFFFFFC0
FFFFFFFFFFC0
FFFFFFFFFFC0
FFFFFFFFFFC0
FFFFFFFFFFC0
FFFFFFFFFFC0
FFFFFFFFFFC0
7FFFFFFFFF80
7FFFFFFFFF80
3FFFFFFFFF00
1FFFFFFFFE00
0FFFFFFFFC00
07FFFFFFF800
01FFFFFFE000
ENDCHAR
STARTCHAR 005E
ENCODING 94
SWIDTH 528 0
DWIDTH 92 0
BBX 83 63 3 68
BITMAP
0000000007F80000000000
000000001FFE0000000000
000000003FFF8000000000
000000007FFFC000000000
00000000FFFFC000000000
00000000FFFFE000000000
00000001FFFFF000000000
00000001FFFFF000000000
00000003FFFFF800000000
00000007FFFFFC00000000
0000000FFFFFFE00000000
0000000FFFFFFE00000000
0000001FFFFFFF00000000
0000003FFFFFFF80000000
0000007FFFFFFF80000000
0000007FFFFFFFC0000000
000000FFFFFFFFE0000000
000001FFFFFFFFF0000000
000001FFFFFFFFF0000000
000003FFFFFFFFF8000000
000007FFFFFFFFFC000000
00000FFFFFFFFFFC000000
00000FFFFFFFFFFE000000
00001FFFFFFFFFFF000000
00003FFFFFFFFFFF800000
00007FFFFFFFFFFF800000
00007FFFFFFFFFFFC00000
0000FFFFFFFFFFFFE00000
0001FFFFFFFFFFFFE00000
0001FFFFFFBFFFFFF00000
0003FFFFFF1FFFFFF80000
0007FFFFFE0FFFFFFC0000
000FFFFFFC0FFFFFFC0000
000FFFFFFC07FFFFFE0000
001FFFFFF803FFFFFF0000
003FFFFFF003FFFFFF0000
003FFFFFE001FFFFFF8000
007FFFFFE000FFFFFFC000
00FFFFFFC0007FFFFFE000
01FFFFFF80007FFFFFE000
01FFFFFF80003FFFFFF000
03FFFFFF00001FFFFFF800
07FFFFFE00000FFFFFF800
0FFFFFFC00000FFFFFFC00
0FFFFFFC000007FFFFFE00
1FFFFFF8000003FFFFFF00
3FFFFFF0000003FFFFFF00
3FFFFFF0000001FFFFFF80
7FFFFFE0000000FFFFFFC0
7FFFFFC00000007FFFFFC0
FFFFFF800000007FFFFFE0
FFFFFF800000003FFFFFE0
FFFFFF000000001FFFFFE0
FFFFFE000000001FFFFFE0
FFFFFC000000000FFFFFE0
FFFFFC0000000007FFFFC0
7FFFF80000000003FFFFC0
7FFFF00000000003FFFF80
3FFFF00000000001FFFF80
1FFFE00000000000FFFF00
0FFFC000000000007FFE00
07FF8000000000003FF800
01FC0000000000000FE000
ENDCHAR
STARTCHAR 0060
ENCODING 96
SWIDTH 235 0
DWIDTH 41 0
BBX 32 42 3 87
BITMAP
0F800000
3FE00000
7FF00000
7FF00000
FFF80000
FFF80000
FFFC0000
FFFE0000
FFFE0000
7FFF0000
7FFF8000
3FFF8000
3FFFC000
1FFFE000
0FFFE000
0FFFF000
07FFF800
03FFF800
03FFFC00
01FFFE00
00FFFE00
00FFFF00
007FFF80
003FFF80
003FFFC0
001FFFE0
000FFFE0
000FFFF0
0007FFF8
0003FFF8
0003FFFC
0001FFFE
0000FFFE
0000FFFE
00007FFF
00003FFF
00003FFE
00001FFE
00000FFE
00000FFC
000007F8
000001F0
ENDCHAR
STARTCHAR 0061
ENCODING 97
SWIDTH 470 0
DWIDTH 82 0
BBX 73 84 3 0
BITMAP
01FFFFFFFFFFFFF80000
07FFFFFFFFFFFFFF0000
0FFFFFFFFFFFFFFFC000
1FFFFFFFFFFFFFFFE000
3FFFFFFFFFFFFFFFF000
7FFFFFFFFFFFFFFFF800
7FFFFFFFFFFFFFFFFC00
FFFFFFFFFFFFFFFFFE00
FFFFFFFFFFFFFFFFFE00
FFFFFFFFFFFFFFFFFF00
FFFFFFFFFFFFFFFFFF00
FFFFFFFFFFFFFFFFFF00
FFFFFFFFFFFFFFFFFF80
FFFFFFFFFFFFFFFFFF80
7FFFFFFFFFFFFFFFFF80
7FFFFFFFFFFFFFFFFF80
3FFFFFFFFFFFFFFFFF80
1FFFFFFFFFFFFFFFFF80
0FFFFFFFFFFFFFFFFF80
07FFFFFFFFFFFFFFFF80
01FFFFFFFFFFFFFFFF80
0000000000000FFFFF80
0000000000000FFFFF80
0000000000000FFFFF80
0000000000000FFFFF80
0000000000000FFFFF80
0000000000000FFFFF80
0000000000000FFFFF80
0000000000000FFFFF80
0000000000000FFFFF80
0000000000000FFFFF80
0000000000000FFFFF80
000FFFFFFFFFFFFFFF80
007FFFFFFFFFFFFFFF80
01FFFFFFFFFFFFFFFF80
03FFFFFFFFFFFFFFFF80
07FFFFFFFFFFFFFFFF80
0FFFFFFFFFFFFFFFFF80
1FFFFFFFFFFFFFFFFF80
3FFFFFFFFFFFFFFFFF80
3FFFFFFFFFFFFFFFFF80
7FFFFFFFFFFFFFFFFF80
7FFFFFFFFFFFFFFFFF80
7FFFFFFFFFFFFFFFFF80
FFFFFFFFFFFFFFFFFF80
FFFFFFFFFFFFFFFFFF80
FFFFFFFFFFFFFFFFFF80
FFFFFFFFFFFFFFFFFF80
FFFFF80000000FFFFF80
FFFFF80000000FFFFF80
FFFFF80000000FFFFF80
FFFFF80000000FFFFF80
FFFFF80000000FFFFF80
FFFFF80000000FFFFF80
FFFFF80000000FFFFF80
FFFFF80000000FFFFF80
FFFFF80000000FFFFF80
FFFFF80000000FFFFF80
FFFFF80000000FFFFF80
FFFFF80000000FFFFF80
FFFFF80000000FFFFF80
FFFFF80000000FFFFF80
FFFFF80000000FFFFF80
FFFFFFFFFFFFFFFFFF80
FFFFFFFFFFFFFFFFFF80
FFFFFFFFFFFFFFFFFF80
FFFFFFFFFFFFFFFFFF80
FFFFFFFFFFFFFFFFFF80
FFFFFFFFFFFFFFFFFF80
FFFFFFFFFFFFFFFFFF80
FFFFFFFFFFFFFFFFFF80
FFFFFFFFFFFFFFFFFF80
FFFFFFFFFFFFFFFFFF00
7FFFFFFFFFFFFFFFFF00
7FFFFFFFFFFFFFFFFF00
3FFFFFFFFFFFFFFFFE00
3FFFFFFFFFFFFFFFFE00
1FFFFFFFFFFFFFFFFC00
0FFFFFFFFFFFFFFFF800
07FFFFFFFFFFFFFFF000
03FFFFFFFFFFFFFFE000
01FFFFFFFFFFFFFFC000
007FFFFFFFFFFFFF0000
000FFFFFFFFFFFF80000
ENDCHAR
STARTCHAR 0062
ENCODING 98
SWIDTH 470 0
DWIDTH 82 0
BBX 73 130 3 0
BITMAP
01FC0000000000000000
07FF0000000000000000
0FFF8000000000000000
1FFFC000000000000000
3FFFE000000000000000
7FFFF000000000000000
7FFFF000000000000000
FFFFF800000000000000
FFFFF800000000000000
FFFFF800000000000000
FFFFF800000000000000
FFFFF800000000000000
FFFFF800000000000000
FFFFF800000000000000
FFFFF800000000000000
FFFFF800000000000000
FFFFF800000000000000
FFFFF800000000000000
FFFFF800000000000000
FFFFF800000000000000
FFFFF800000000000000
FFFFF800000000000000
FFFFF800000000000000
FFFFF800000000000000
FFFFF800000000000000
FFFFF800000000000000
FFFFF800000000000000
FFFFF800000000000000
FFFFF800000000000000
FFFFF800000000000000
FFFFF800000000000000
FFFFF800000000000000
FFFFF800000000000000
FFFFF800000000000000
FFFFF800000000000000
FFFFF800000000000000
FFFFF800000000000000
FFFFF800000000000000
FFFFF800000000000000
FFFFF800000000000000
FFFFF800000000000000
FFFFF800000000000000
FFFFF800000000000000
FFFFF800000000000000
FFFFF800000000000000
FFFFF800000000000000
FFFFFFFFFFFFFFF80000
FFFFFFFFFFFFFFFF0000
FFFFFFFFFFFFFFFFC000
FFFFFFFFFFFFFFFFE000
FFFFFFFFFFFFFFFFF000
FFFFFFFFFFFFFFFFF800
FFFFFFFFFFFFFFFFFC00
FFFFFFFFFFFFFFFFFE00
FFFFFFFFFFFFFFFFFE00
FFFFFFFFFFFFFFFFFF00
FFFFFFFFFFFFFFFFFF00
FFFFFFFFFFFFFFFFFF00
FFFFFFFFFFFFFFFFFF80
FFFFFFFFFFFFFFFFFF80
FFFFFFFFFFFFFFFFFF80
FFFFFFFFFFFFFFFFFF80
FFFFFFFFFFFFFFFFFF80
FFFFFFFFFFFFFFFFFF80
FFFFFFFFFFFFFFFFFF80
FFFFFFFFFFFFFFFFFF80
FFFFFFFFFFFFFFFFFF80
FFFFF80000000FFFFF80
FFFFF80000000FFFFF80
FFFFF80000000FFFFF80
FFFFF80000000FFFFF80
FFFFF80000000FFFFF80
FFFFF80000000FFFFF80
FFFFF80000000FFFFF80
FFFFF80000000FFFFF80
FFFFF80000000FFFFF80
FFFFF80000000FFFFF80
FFFFF80000000FFFFF80
FFFFF80000000FFFFF80
FFFFF80000000FFFFF80
FFFFF80000000FFFFF80
FFFFF80000000FFFFF80
FFFFF80000000FFFFF80
FFFFF80000000FFFFF80
FFFFF80000000FFFFF80
FFFFF80000000FFFFF80
FFFFF80000000FFFFF80
FFFFF80000000FFFFF80
FFFFF80000000FFFFF80
FFFFF80000000FFFFF80
FFFFF80000000FFFFF80
FFFFF80000000FFFFF80
FFFFF80000000FFFFF80
FFFFF80000000FFFFF80
FFFFF80000000FFFFF80
FFFFF80000000FFFFF80
FFFFF80000000FFFFF80
FFFFF80000000FFFFF80
FFFFF80000000FFFFF80
FFFFF80000000FFFFF80
FFFFF80000000FFFFF80
FFFFF80000000FFFFF80
FFFFF80000000FFFFF80
FFFFF80000000FFFFF80
FFFFF80000000FFFFF80
FFFFF80000000FFFFF80
FFFFF80000000FFFFF80
FFFFF80000000FFFFF80
FFFFF80000000FFFFF80
FFFFFFFFFFFFFFFFFF80
FFFFFFFFFFFFFFFFFF80
FFFFFFFFFFFFFFFFFF80
FFFFFFFFFFFFFFFFFF80
FFFFFFFFFFFFFFFFFF80
FFFFFFFFFFFFFFFFFF80
FFFFFFFFFFFFFFFFFF80
FFFFFFFFFFFFFFFFFF80
FFFFFFFFFFFFFFFFFF80
FFFFFFFFFFFFFFFFFF00
7FFFFFFFFFFFFFFFFF00
7FFFFFFFFFFFFFFFFF00
3FFFFFFFFFFFFFFFFE00
3FFFFFFFFFFFFFFFFE00
1FFFFFFFFFFFFFFFFC00
0FFFFFFFFFFFFFFFF800
07FFFFFFFFFFFFFFF000
03FFFFFFFFFFFFFFE000
01FFFFFFFFFFFFFFC000
007FFFFFFFFFFFFF0000
000FFFFFFFFFFFF80000
ENDCHAR
STARTCHAR 0063
ENCODING 99
SWIDTH 470 0
DWIDTH 82 0
BBX 73 84 3 0
BITMAP
000FFFFFFFFFFFFFC000
007FFFFFFFFFFFFFF000
01FFFFFFFFFFFFFFF800
03FFFFFFFFFFFFFFFC00
07FFFFFFFFFFFFFFFE00
0FFFFFFFFFFFFFFFFF00
1FFFFFFFFFFFFFFFFF00
3FFFFFFFFFFFFFFFFF80
3FFFFFFFFFFFFFFFFF80
7FFFFFFFFFFFFFFFFF80
7FFFFFFFFFFFFFFFFF80
FFFFFFFFFFFFFFFFFF80
FFFFFFFFFFFFFFFFFF80
FFFFFFFFFFFFFFFFFF80
FFFFFFFFFFFFFFFFFF00
FFFFFFFFFFFFFFFFFF00
FFFFFFFFFFFFFFFFFE00
FFFFFFFFFFFFFFFFFC00
FFFFFFFFFFFFFFFFF800
FFFFFFFFFFFFFFFFF000
FFFFFFFFFFFFFFFFC000
FFFFF800000000000000
FFFFF800000000000000
FFFFF800000000000000
FFFFF800000000000000
FFFFF800000000000000
FFFFF800000000000000
FFFFF800000000000000
FFFFF800000000000000
FFFFF800000000000000
FFFFF800000000000000
FFFFF800000000000000
FFFFF800000000000000
FFFFF800000000000000
FFFFF800000000000000
FFFFF800000000000000
FFFFF800000000000000
FFFFF800000000000000
FFFFF800000000000000
FFFFF800000000000000
FFFFF800000000000000
FFFFF800000000000000
FFFFF800000000000000
FFFFF800000000000000
FFFFF800000000000000
FFFFF800000000000000
FFFFF800000000000000
FFFFF800000000000000
FFFFF800000000000000
FFFFF800000000000000
FFFFF800000000000000
FFFFF800000000000000
FFFFF800000000000000
FFFFF800000000000000
FFFFF800000000000000
FFFFF800000000000000
FFFFF800000000000000
FFFFF800000000000000
FFFFF800000000000000
FFFFF800000000000000
FFFFF800000000000000
FFFFF800000000000000
FFFFF800000000000000
FFFFFFFFFFFFFFFFC000
FFFFFFFFFFFFFFFFF000
FFFFFFFFFFFFFFFFF800
FFFFFFFFFFFFFFFFFC00
FFFFFFFFFFFFFFFFFE00
FFFFFFFFFFFFFFFFFF00
FFFFFFFFFFFFFFFFFF00
FFFFFFFFFFFFFFFFFF80
FFFFFFFFFFFFFFFFFF80
FFFFFFFFFFFFFFFFFF80
7FFFFFFFFFFFFFFFFF80
7FFFFFFFFFFFFFFFFF80
3FFFFFFFFFFFFFFFFF80
3FFFFFFFFFFFFFFFFF80
1FFFFFFFFFFFFFFFFF00
0FFFFFFFFFFFFFFFFF00
07FFFFFFFFFFFFFFFE00
03FFFFFFFFFFFFFFFE00
01FFFFFFFFFFFFFFF800
007FFFFFFFFFFFFFF000
000FFFFFFFFFFFFFC000
ENDCHAR
STARTCHAR 0064
ENCODING 100
SWIDTH 470 0
DWIDTH 82 0
BBX 73 130 3 0
BITMAP
000000000000001FC000
000000000000007FF000
00000000000000FFF800
00000000000003FFFC00
00000000000003FFFE00
00000000000007FFFF00
00000000000007FFFF00
0000000000000FFFFF80
0000000000000FFFFF80
0000000000000FFFFF80
0000000000000FFFFF80
0000000000000FFFFF80
0000000000000FFFFF80
0000000000000FFFFF80
0000000000000FFFFF80
0000000000000FFFFF80
0000000000000FFFFF80
0000000000000FFFFF80
0000000000000FFFFF80
0000000000000FFFFF80
0000000000000FFFFF80
0000000000000FFFFF80
0000000000000FFFFF80
0000000000000FFFFF80
0000000000000FFFFF80
0000000000000FFFFF80
0000000000000FFFFF80
0000000000000FFFFF80
0000000000000FFFFF80
0000000000000FFFFF80
0000000000000FFFFF80
0000000000000FFFFF80
0000000000000FFFFF80
0000000000000FFFFF80
0000000000000FFFFF80
0000000000000FFFFF80
0000000000000FFFFF80
0000000000000FFFFF80
0000000000000FFFFF80
0000000000000FFFFF80
0000000000000FFFFF80
0000000000000FFFFF80
0000000000000FFFFF80
0000000000000FFFFF80
0000000000000FFFFF80
0000000000000FFFFF80
000FFFFFFFFFFFFFFF80
007FFFFFFFFFFFFFFF80
01FFFFFFFFFFFFFFFF80
03FFFFFFFFFFFFFFFF80
07FFFFFFFFFFFFFFFF80
0FFFFFFFFFFFFFFFFF80
1FFFFFFFFFFFFFFFFF80
3FFFFFFFFFFFFFFFFF80
3FFFFFFFFFFFFFFFFF80
7FFFFFFFFFFFFFFFFF80
7FFFFFFFFFFFFFFFFF80
FFFFFFFFFFFFFFFFFF80
FFFFFFFFFFFFFFFFFF80
FFFFFFFFFFFFFFFFFF80
FFFFFFFFFFFFFFFFFF80
FFFFFFFFFFFFFFFFFF80
FFFFFFFFFFFFFFFFFF80
FFFFFFFFFFFFFFFFFF80
FFFFFFFFFFFFFFFFFF80
FFFFFFFFFFFFFFFFFF80
FFFFFFFFFFFFFFFFFF80
FFFFF80000000FFFFF80
FFFFF80000000FFFFF80
FFFFF80000000FFFFF80
FFFFF80000000FFFFF80
FFFFF80000000FFFFF80
FFFFF80000000FFFFF80
FFFFF80000000FFFFF80
FFFFF80000000FFFFF80
FFFFF80000000FFFFF80
FFFFF80000000FFFFF80
FFFFF80000000FFFFF80
FFFFF80000000FFFFF80
FFFFF80000000FFFFF80
FFFFF80000000FFFFF80
FFFFF80000000FFFFF80
FFFFF80000000FFFFF80
FFFFF80000000FFFFF80
FFFFF80000000FFFFF80
FFFFF80000000FFFFF80
FFFFF80000000FFFFF80
FFFFF80000000FFFFF80
FFFFF80000000FFFFF80
FFFFF80000000FFFFF80
FFFFF80000000FFFFF80
FFFFF80000000FFFFF80
FFFFF80000000FFFFF80
FFFFF80000000FFFFF80
FFFFF80000000FFFFF80
FFFFF80000000FFFFF80
FFFFF80000000FFFFF80
FFFFF80000000FFFFF80
FFFFF80000000FFFFF80
FFFFF80000000FFFFF80
FFFFF80000000FFFFF80
FFFFF80000000FFFFF80
FFFFF80000000FFFFF80
FFFFF80000000FFFFF80
FFFFF80000000FFFFF80
FFFFF80000000FFFFF80
FFFFF80000000FFFFF80
FFFFF80000000FFFFF80
FFFFF80000000FFFFF80
FFFFFFFFFFFFFFFFFF80
FFFFFFFFFFFFFFFFFF80
FFFFFFFFFFFFFFFFFF80
FFFFFFFFFFFFFFFFFF80
FFFFFFFFFFFFFFFFFF80
FFFFFFFFFFFFFFFFFF80
FFFFFFFFFFFFFFFFFF80
FFFFFFFFFFFFFFFFFF80
FFFFFFFFFFFFFFFFFF80
FFFFFFFFFFFFFFFFFF80
7FFFFFFFFFFFFFFFFF00
7FFFFFFFFFFFFFFFFF00
3FFFFFFFFFFFFFFFFE00
3FFFFFFFFFFFFFFFFE00
1FFFFFFFFFFFFFFFFC00
0FFFFFFFFFFFFFFFF800
07FFFFFFFFFFFFFFF000
03FFFFFFFFFFFFFFE000
01FFFFFFFFFFFFFFC000
007FFFFFFFFFFFFF0000
000FFFFFFFFFFFF80000
ENDCHAR
STARTCHAR 0065
ENCODING 101
SWIDTH 470 0
DWIDTH 82 0
BBX 73 84 3 0
BITMAP
000FFFFFFFFFFFF80000
007FFFFFFFFFFFFF0000
01FFFFFFFFFFFFFFC000
03FFFFFFFFFFFFFFE000
07FFFFFFFFFFFFFFF000
0FFFFFFFFFFFFFFFF800
1FFFFFFFFFFFFFFFFC00
3FFFFFFFFFFFFFFFFE00
3FFFFFFFFFFFFFFFFE00
7FFFFFFFFFFFFFFFFF00
7FFFFFFFFFFFFFFFFF00
FFFFFFFFFFFFFFFFFF00
FFFFFFFFFFFFFFFFFF80
FFFFFFFFFFFFFFFFFF80
FFFFFFFFFFFFFFFFFF80
FFFFFFFFFFFFFFFFFF80
FFFFFFFFFFFFFFFFFF80
FFFFFFFFFFFFFFFFFF80
FFFFFFFFFFFFFFFFFF80
FFFFFFFFFFFFFFFFFF80
FFFFFFFFFFFFFFFFFF80
FFFFF80000000FFFFF80
FFFFF80000000FFFFF80
FFFFF80000000FFFFF80
FFFFF80000000FFFFF80
FFFFF80000000FFFFF80
FFFFF80000000FFFFF80
FFFFF80000000FFFFF80
FFFFF80000000FFFFF80
FFFFF80000000FFFFF80
FFFFF80000000FFFFF80
FFFFF80000000FFFFF80
FFFFFFFFFFFFFFFFFF80
FFFFFFFFFFFFFFFFFF80
FFFFFFFFFFFFFFFFFF80
FFFFFFFFFFFFFFFFFF80
FFFFFFFFFFFFFFFFFF00
FFFFFFFFFFFFFFFFFF00
FFFFFFFFFFFFFFFFFF00
FFFFFFFFFFFFFFFFFE00
FFFFFFFFFFFFFFFFFE00
FFFFFFFFFFFFFFFFFC00
FFFFFFFFFFFFFFFFF800
FFFFFFFFFFFFFFFFF000
FFFFFFFFFFFFFFFFE000
FFFFFFFFFFFFFFFFC000
FFFFFFFFFFFFFFFF0000
FFFFFFFFFFFFFFF80000
FFFFF800000000000000
FFFFF800000000000000
FFFFF800000000000000
FFFFF800000000000000
FFFFF800000000000000
FFFFF800000000000000
FFFFF800000000000000
FFFFF800000000000000
FFFFF800000000000000
FFFFF800000000000000
FFFFF800000000000000
FFFFF800000000000000
FFFFF800000000000000
FFFFF800000000000000
FFFFF800000000000000
FFFFFFFFFFFFFFFFC000
FFFFFFFFFFFFFFFFF000
FFFFFFFFFFFFFFFFF800
FFFFFFFFFFFFFFFFFC00
FFFFFFFFFFFFFFFFFE00
FFFFFFFFFFFFFFFFFF00
FFFFFFFFFFFFFFFFFF00
FFFFFFFFFFFFFFFFFF80
FFFFFFFFFFFFFFFFFF80
FFFFFFFFFFFFFFFFFF80
7FFFFFFFFFFFFFFFFF80
7FFFFFFFFFFFFFFFFF80
3FFFFFFFFFFFFFFFFF80
3FFFFFFFFFFFFFFFFF80
1FFFFFFFFFFFFFFFFF00
0FFFFFFFFFFFFFFFFF00
07FFFFFFFFFFFFFFFE00
03FFFFFFFFFFFFFFFC00
01FFFFFFFFFFFFFFF800
007FFFFFFFFFFFFFF000
000FFFFFFFFFFFFFC000
ENDCHAR
STARTCHAR 0066
ENCODING 102
SWIDTH 447 0
DWIDTH 78 0
BBX 73 130 2 0
BITMAP
000FFFFFFFFFFFFFC000
007FFFFFFFFFFFFFF000
01FFFFFFFFFFFFFFFC00
03FFFFFFFFFFFFFFFE00
07FFFFFFFFFFFFFFFF00
0FFFFFFFFFFFFFFFFF00
1FFFFFFFFFFFFFFFFF80
3FFFFFFFFFFFFFFFFF80
3FFFFFFFFFFFFFFFFF80
7FFFFFFFFFFFFFFFFF80
7FFFFFFFFFFFFFFFFF80
7FFFFFFFFFFFFFFFFF80
7FFFFFFFFFFFFFFFFF80
FFFFFFFFFFFFFFFFFF80
FFFFFFFFFFFFFFFFFF80
FFFFFFFFFFFFFFFFFF00
FFFFFFFFFFFFFFFFFF00
FFFFFFFFFFFFFFFFFE00
FFFFFFFFFFFFFFFFFC00
FFFFFFFFFFFFFFFFF000
FFFFFFFFFFFFFFFFC000
FFFFF800000000000000
FFFFF800000000000000
FFFFF800000000000000
FFFFF800000000000000
FFFFF800000000000000
FFFFF800000000000000
FFFFF800000000000000
FFFFF800000000000000
FFFFF800000000000000
FFFFF800000000000000
FFFFF800000000000000
FFFFF800000000000000
FFFFF800000000000000
FFFFF800000000000000
FFFFF800000000000000
FFFFF800000000000000
FFFFF800000000000000
FFFFF800000000000000
FFFFF800000000000000
FFFFF800000000000000
FFFFF800000000000000
FFFFF800000000000000
FFFFF800000000000000
FFFFF800000000000000
FFFFF800000000000000
FFFFFFFFFFFFFFF80000
FFFFFFFFFFFFFFFE0000
FFFFFFFFFFFFFFFF8000
FFFFFFFFFFFFFFFFC000
FFFFFFFFFFFFFFFFC000
FFFFFFFFFFFFFFFFE000
FFFFFFFFFFFFFFFFE000
FFFFFFFFFFFFFFFFF000
FFFFFFFFFFFFFFFFF000
FFFFFFFFFFFFFFFFF000
FFFFFFFFFFFFFFFFF000
FFFFFFFFFFFFFFFFF000
FFFFFFFFFFFFFFFFF000
FFFFFFFFFFFFFFFFF000
FFFFFFFFFFFFFFFFE000
FFFFFFFFFFFFFFFFE000
FFFFFFFFFFFFFFFFC000
FFFFFFFFFFFFFFFFC000
FFFFFFFFFFFFFFFF8000
FFFFFFFFFFFFFFFE0000
FFFFFFFFFFFFFFF80000
FFFFF800000000000000
FFFFF800000000000000
FFFFF800000000000000
FFFFF800000000000000
FFFFF800000000000000
FFFFF800000000000000
FFFFF800000000000000
FFFFF800000000000000
FFFFF800000000000000
FFFFF800000000000000
FFFFF800000000000000
FFFFF800000000000000
FFFFF800000000000000
FFFFF800000000000000
FFFFF800000000000000
FFFFF800000000000000
FFFFF800000000000000
FFFFF800000000000000
FFFFF800000000000000
FFFFF800000000000000
FFFFF800000000000000
FFFFF800000000000000
FFFFF800000000000000
FFFFF800000000000000
FFFFF800000000000000
FFFFF800000000000000
FFFFF800000000000000
FFFFF800000000000000
FFFFF800000000000000
FFFFF800000000000000
FFFFF800000000000000
FFFFF800000000000000
FFFFF800000000000000
FFFFF800000000000000
FFFFF800000000000000
FFFFF800000000000000
FFFFF800000000000000
FFFFF800000000000000
FFFFF800000000000000
FFFFF800000000000000
FFFFF800000000000000
FFFFF800000000000000
FFFFF800000000000000
FFFFF800000000000000
FFFFF800000000000000
FFFFF800000000000000
FFFFF800000000000000
FFFFF800000000000000
FFFFF800000000000000
FFFFF800000000000000
FFFFF800000000000000
FFFFF800000000000000
FFFFF800000000000000
FFFFF800000000000000
FFFFF800000000000000
7FFFF800000000000000
7FFFF800000000000000
7FFFF000000000000000
3FFFF000000000000000
1FFFE000000000000000
0FFFC000000000000000
07FF0000000000000000
01FC0000000000000000
ENDCHAR
STARTCHAR 0067
ENCODING 103
SWIDTH 470 0
DWIDTH 82 0
BBX 73 131 3 -47
BITMAP
000FFFFFFFFFFFF80000
007FFFFFFFFFFFFF0000
01FFFFFFFFFFFFFFC000
03FFFFFFFFFFFFFFE000
07FFFFFFFFFFFFFFF000
0FFFFFFFFFFFFFFFF800
1FFFFFFFFFFFFFFFFC00
3FFFFFFFFFFFFFFFFE00
3FFFFFFFFFFFFFFFFE00
7FFFFFFFFFFFFFFFFF00
7FFFFFFFFFFFFFFFFF00
FFFFFFFFFFFFFFFFFF00
FFFFFFFFFFFFFFFFFF80
FFFFFFFFFFFFFFFFFF80
FFFFFFFFFFFFFFFFFF80
FFFFFFFFFFFFFFFFFF80
FFFFFFFFFFFFFFFFFF80
FFFFFFFFFFFFFFFFFF80
FFFFFFFFFFFFFFFFFF80
FFFFFFFFFFFFFFFFFF80
FFFFFFFFFFFFFFFFFF80
FFFFF80000000FFFFF80
FFFFF80000000FFFFF80
FFFFF80000000FFFFF80
FFFFF80000000FFFFF80
FFFFF80000000FFFFF80
FFFFF80000000FFFFF80
FFFFF80000000FFFFF80
FFFFF80000000FFFFF80
FFFFF80000000FFFFF80
FFFFF80000000FFFFF80
FFFFF80000000FFFFF80
FFFFF80000000FFFFF80
FFFFF80000000FFFFF80
FFFFF80000000FFFFF80
FFFFF80000000FFFFF80
FFFFF80000000FFFFF80
FFFFF80000000FFFFF80
FFFFF80000000FFFFF80
FFFFF80000000FFFFF80
FFFFF80000000FFFFF80
FFFFF80000000FFFFF80
FFFFF80000000FFFFF80
FFFFF80000000FFFFF80
FFFFF80000000FFFFF80
FFFFF80000000FFFFF80
FFFFF80000000FFFFF80
FFFFF80000000FFFFF80
FFFFF80000000FFFFF80
FFFFF80000000FFFFF80
FFFFF80000000FFFFF80
FFFFF80000000FFFFF80
FFFFF80000000FFFFF80
FFFFF80000000FFFFF80
FFFFF80000000FFFFF80
FFFFF80000000FFFFF80
FFFFF80000000FFFFF80
FFFFF80000000FFFFF80
FFFFF80000000FFFFF80
FFFFF80000000FFFFF80
FFFFF80000000FFFFF80
FFFFF80000000FFFFF80
FFFFF80000000FFFFF80
FFFFFFFFFFFFFFFFFF80
FFFFFFFFFFFFFFFFFF80
FFFFFFFFFFFFFFFFFF80
FFFFFFFFFFFFFFFFFF80
FFFFFFFFFFFFFFFFFF80
FFFFFFFFFFFFFFFFFF80
FFFFFFFFFFFFFFFFFF80
FFFFFFFFFFFFFFFFFF80
FFFFFFFFFFFFFFFFFF80
FFFFFFFFFFFFFFFFFF80
7FFFFFFFFFFFFFFFFF80
7FFFFFFFFFFFFFFFFF80
3FFFFFFFFFFFFFFFFF80
3FFFFFFFFFFFFFFFFF80
1FFFFFFFFFFFFFFFFF80
0FFFFFFFFFFFFFFFFF80
07FFFFFFFFFFFFFFFF80
03FFFFFFFFFFFFFFFF80
01FFFFFFFFFFFFFFFF80
007FFFFFFFFFFFFFFF80
001FFFFFFFFFFFFFFF80
0000000000000FFFFF80
0000000000000FFFFF80
0000000000000FFFFF80
0000000000000FFFFF80
0000000000000FFFFF80
0000000000000FFFFF80
0000000000000FFFFF80
0000000000000FFFFF80
0000000000000FFFFF80
0000000000000FFFFF80
0000000000000FFFFF80
0000000000000FFFFF80
0000000000000FFFFF80
0000000000000FFFFF80
0000000000000FFFFF80
0000000000000FFFFF80
0000000000000FFFFF80
0000000000000FFFFF80
0000000000000FFFFF80
0000000000000FFFFF80
0000000000000FFFFF80
0000000000000FFFFF80
0000000000000FFFFF80
0000000000000FFFFF80
0000000000000FFFFF80
0000000000000FFFFF80
01FFFFFFFFFFFFFFFF80
07FFFFFFFFFFFFFFFF80
0FFFFFFFFFFFFFFFFF80
1FFFFFFFFFFFFFFFFF80
3FFFFFFFFFFFFFFFFF80
7FFFFFFFFFFFFFFFFF80
7FFFFFFFFFFFFFFFFF80
FFFFFFFFFFFFFFFFFF80
FFFFFFFFFFFFFFFFFF80
FFFFFFFFFFFFFFFFFF00
FFFFFFFFFFFFFFFFFF00
FFFFFFFFFFFFFFFFFF00
FFFFFFFFFFFFFFFFFE00
FFFFFFFFFFFFFFFFFE00
7FFFFFFFFFFFFFFFFC00
7FFFFFFFFFFFFFFFF800
3FFFFFFFFFFFFFFFF000
1FFFFFFFFFFFFFFFE000
0FFFFFFFFFFFFFFFC000
07FFFFFFFFFFFFFF0000
01FFFFFFFFFFFFF80000
ENDCHAR
STARTCHAR 0068
ENCODING 104
SWIDTH 470 0
DWIDTH 82 0
BBX 73 130 3 0
BITMAP
01FC0000000000000000
07FF0000000000000000
0FFF8000000000000000
1FFFC000000000000000
3FFFE000000000000000
7FFFF000000000000000
7FFFF000000000000000
FFFFF800000000000000
FFFFF800000000000000
FFFFF800000000000000
FFFFF800000000000000
FFFFF800000000000000
FFFFF800000000000000
FFFFF800000000000000
FFFFF800000000000000
FFFFF800000000000000
FFFFF800000000000000
FFFFF800000000000000
FFFFF800000000000000
FFFFF800000000000000
FFFFF800000000000000
FFFFF800000000000000
FFFFF800000000000000
FFFFF800000000000000
FFFFF800000000000000
FFFFF800000000000000
FFFFF800000000000000
FFFFF800000000000000
FFFFF800000000000000
FFFFF800000000000000
FFFFF800000000000000
FFFFF800000000000000
FFFFF800000000000000
FFFFF800000000000000
FFFFF800000000000000
FFFFF800000000000000
FFFFF800000000000000
FFFFF800000000000000
FFFFF800000000000000
FFFFF800000000000000
FFFFF800000000000000
FFFFF800000000000000
FFFFF800000000000000
FFFFF800000000000000
FFFFF800000000000000
FFFFF800000000000000
FFFFFFFFFFFFFFF80000
FFFFFFFFFFFFFFFF0000
FFFFFFFFFFFFFFFFC000
FFFFFFFFFFFFFFFFE000
FFFFFFFFFFFFFFFFF000
FFFFFFFFFFFFFFFFF800
FFFFFFFFFFFFFFFFFC00
FFFFFFFFFFFFFFFFFE00
FFFFFFFFFFFFFFFFFE00
FFFFFFFFFFFFFFFFFF00
FFFFFFFFFFFFFFFFFF00
FFFFFFFFFFFFFFFFFF00
FFFFFFFFFFFFFFFFFF80
FFFFFFFFFFFFFFFFFF80
FFFFFFFFFFFFFFFFFF80
FFFFFFFFFFFFFFFFFF80
FFFFFFFFFFFFFFFFFF80
FFFFFFFFFFFFFFFFFF80
FFFFFFFFFFFFFFFFFF80
FFFFFFFFFFFFFFFFFF80
FFFFFFFFFFFFFFFFFF80
FFFFF80000000FFFFF80
FFFFF80000000FFFFF80
FFFFF80000000FFFFF80
FFFFF80000000FFFFF80
FFFFF80000000FFFFF80
FFFFF80000000FFFFF80
FFFFF80000000FFFFF80
FFFFF80000000FFFFF80
FFFFF80000000FFFFF80
FFFFF80000000FFFFF80
FFFFF80000000FFFFF80
FFFFF80000000FFFFF80
FFFFF80000000FFFFF80
FFFFF80000000FFFFF80
FFFFF80000000FFFFF80
FFFFF80000000FFFFF80
FFFFF80000000FFFFF80
FFFFF80000000FFFFF80
FFFFF80000000FFFFF80
FFFFF80000000FFFFF80
FFFFF80000000FFFFF80
FFFFF80000000FFFFF80
FFFFF80000000FFFFF80
FFFFF80000000FFFFF80
FFFFF80000000FFFFF80
FFFFF80000000FFFFF80
FFFFF80000000FFFFF80
FFFFF80000000FFFFF80
FFFFF80000000FFFFF80
FFFFF80000000FFFFF80
FFFFF80000000FFFFF80
FFFFF80000000FFFFF80
FFFFF80000000FFFFF80
FFFFF80000000FFFFF80
FFFFF80000000FFFFF80
FFFFF80000000FFFFF80
FFFFF80000000FFFFF80
FFFFF80000000FFFFF80
FFFFF80000000FFFFF80
FFFFF80000000FFFFF80
FFFFF80000000FFFFF80
FFFFF80000000FFFFF80
FFFFF80000000FFFFF80
FFFFF80000000FFFFF80
FFFFF80000000FFFFF80
FFFFF80000000FFFFF80
FFFFF80000000FFFFF80
FFFFF80000000FFFFF80
FFFFF80000000FFFFF80
FFFFF80000000FFFFF80
FFFFF80000000FFFFF80
FFFFF80000000FFFFF80
FFFFF80000000FFFFF80
FFFFF80000000FFFFF80
FFFFF80000000FFFFF80
FFFFF80000000FFFFF80
7FFFF000000007FFFF00
7FFFF000000007FFFF00
3FFFE000000003FFFE00
1FFFC000000001FFFC00
0FFF8000000000FFF800
07FF00000000007FF000
01FC00000000001FC000
ENDCHAR
STARTCHAR 0069
ENCODING 105
SWIDTH 172 0
DWIDTH 30 0
BBX 21 115 3 0
BITMAP
01FC00
07FF00
0FFF80
1FFFC0
3FFFE0
7FFFF0
7FFFF0
FFFFF8
FFFFF8
FFFFF8
FFFFF8
FFFFF8
FFFFF8
FFFFF8
7FFFF0
7FFFF0
3FFFE0
1FFFC0
0FFF80
07FF00
01FC00
000000
000000
000000
000000
000000
000000
000000
000000
000000
000000
01FC00
07FF00
0FFF80
1FFFC0
3FFFE0
7FFFF0
7FFFF0
FFFFF8
FFFFF8
FFFFF8
FFFFF8
FFFFF8
FFFFF8
FFFFF8
FFFFF8
FFFFF8
FFFFF8
FFFFF8
FFFFF8
FFFFF8
FFFFF8
FFFFF8
FFFFF8
FFFFF8
FFFFF8
FFFFF8
FFFFF8
FFFFF8
FFFFF8
FFFFF8
FFFFF8
FFFFF8
FFFFF8
FFFFF8
FFFFF8
FFFFF8
FFFFF8
FFFFF8
FFFFF8
FFFFF8
FFFFF8
FFFFF8
FFFFF8
FFFFF8
FFFFF8
FFFFF8
FFFFF8
FFFFF8
FFFFF8
FFFFF8
FFFFF8
FFFFF8
FFFFF8
FFFFF8
FFFFF8
FFFFF8
FFFFF8
FFFFF8
FFFFF8
FFFFF8
FFFFF8
FFFFF8
FFFFF8
FFFFF8
FFFFF8
FFFFF8
FFFFF8
FFFFF8
FFFFF8
FFFFF8
FFFFF8
FFFFF8
FFFFF8
FFFFF8
FFFFF8
FFFFF8
FFFFF8
7FFFF0
7FFFF0
3FFFE0
1FFFC0
0FFF80
07FF00
01FC00
ENDCHAR
STARTCHAR 006A
ENCODING 106
SWIDTH 172 0
DWIDTH 30 0
BBX 52 162 -28 -47
BITMAP
0000000003F800
000000000FFE00
000000001FFF00
000000003FFF80
000000007FFFC0
00000000FFFFE0
00000000FFFFE0
00000001FFFFF0
00000001FFFFF0
00000001FFFFF0
00000001FFFFF0
00000001FFFFF0
00000001FFFFF0
00000001FFFFF0
00000000FFFFE0
00000000FFFFE0
000000007FFFC0
000000003FFF80
000000001FFF00
000000000FFE00
0000000003F800
00000000000000
00000000000000
00000000000000
00000000000000
00000000000000
00000000000000
00000000000000
00000000000000
00000000000000
00000000000000
0000000003F800
000000000FFE00
000000001FFF00
000000003FFF80
000000007FFFC0
00000000FFFFE0
00000000FFFFE0
00000001FFFFF0
00000001FFFFF0
00000001FFFFF0
00000001FFFFF0
00000001FFFFF0
00000001FFFFF0
00000001FFFFF0
00000001FFFFF0
00000001FFFFF0
00000001FFFFF0
00000001FFFFF0
00000001FFFFF0
00000001FFFFF0
00000001FFFFF0
00000001FFFFF0
00000001FFFFF0
00000001FFFFF0
00000001FFFFF0
00000001FFFFF0
00000001FFFFF0
00000001FFFFF0
00000001FFFFF0
00000001FFFFF0
00000001FFFFF0
00000001FFFFF0
00000001FFFFF0
00000001FFFFF0
00000001FFFFF0
00000001FFFFF0
00000001FFFFF0
00000001FFFFF0
00000001FFFFF0
00000001FFFFF0
00000001FFFFF0
00000001FFFFF0
00000001FFFFF0
00000001FFFFF0
00000001FFFFF0
00000001FFFFF0
00000001FFFFF0
00000001FFFFF0
00000001FFFFF0
00000001FFFFF0
00000001FFFFF0
00000001FFFFF0
00000001FFFFF0
00000001FFFFF0
00000001FFFFF0
00000001FFFFF0
00000001FFFFF0
00000001FFFFF0
00000001FFFFF0
00000001FFFFF0
00000001FFFFF0
00000001FFFFF0
00000001FFFFF0
00000001FFFFF0
00000001FFFFF0
00000001FFFFF0
00000001FFFFF0
00000001FFFFF0
00000001FFFFF0
00000001FFFFF0
00000001FFFFF0
00000001FFFFF0
00000001FFFFF0
00000001FFFFF0
00000001FFFFF0
00000001FFFFF0
00000001FFFFF0
00000001FFFFF0
00000001FFFFF0
00000001FFFFF0
00000001FFFFF0
00000001FFFFF0
00000001FFFFF0
00000001FFFFF0
00000001FFFFF0
00000001FFFFF0
00000001FFFFF0
00000001FFFFF0
00000001FFFFF0
00000001FFFFF0
00000001FFFFF0
00000001FFFFF0
00000001FFFFF0
00000001FFFFF0
00000001FFFFF0
00000001FFFFF0
00000001FFFFF0
00000001FFFFF0
00000001FFFFF0
00000001FFFFF0
00000001FFFFF0
00000001FFFFF0
00000001FFFFF0
00000001FFFFF0
00000001FFFFF0
00000001FFFFF0
00000001FFFFF0
00000001FFFFF0
00000001FFFFF0
00000001FFFFF0
01FFFFFFFFFFF0
07FFFFFFFFFFF0
0FFFFFFFFFFFF0
1FFFFFFFFFFFF0
3FFFFFFFFFFFF0
7FFFFFFFFFFFF0
7FFFFFFFFFFFF0
FFFFFFFFFFFFF0
FFFFFFFFFFFFF0
FFFFFFFFFFFFE0
FFFFFFFFFFFFE0
FFFFFFFFFFFFE0
FFFFFFFFFFFFC0
FFFFFFFFFFFFC0
7FFFFFFFFFFF80
7FFFFFFFFFFF00
3FFFFFFFFFFE00
1FFFFFFFFFFC00
0FFFFFFFFFF800
07FFFFFFFFE000
01FFFFFFFF0000
ENDCHAR
STARTCHAR 006B
ENCODING 107
SWIDTH 470 0
DWIDTH 82 0
BBX 73 130 3 0
BITMAP
01FC0000000000000000
07FF0000000000000000
0FFF8000000000000000
1FFFC000000000000000
3FFFE000000000000000
7FFFF000000000000000
7FFFF000000000000000
FFFFF800000000000000
FFFFF800000000000000
FFFFF800000000000000
FFFFF800000000000000
FFFFF800000000000000
FFFFF800000000000000
FFFFF800000000000000
FFFFF800000000000000
FFFFF800000000000000
FFFFF800000000000000
FFFFF800000000000000
FFFFF800000000000000
FFFFF800000000000000
FFFFF800000000000000
FFFFF800000000000000
FFFFF800000000000000
FFFFF800000000000000
FFFFF800000000000000
FFFFF800000000000000
FFFFF800000000000000
FFFFF800000000000000
FFFFF800000000000000
FFFFF800000000000000
FFFFF800000000000000
FFFFF800000000000000
FFFFF800000000000000
FFFFF800000000000000
FFFFF800000000000000
FFFFF800000000000000
FFFFF800000000000000
FFFFF800000000000000
FFFFF800000000000000
FFFFF800000000000000
FFFFF800000000000000
FFFFF800000000000000
FFFFF800000000000000
FFFFF800000000000000
FFFFF800000000000000
FFFFF800000000000000
FFFFF8000000001FC000
FFFFF8000000007FF000
FFFFF800000000FFF800
FFFFF800000001FFFC00
FFFFF800000003FFFE00
FFFFF800000007FFFF00
FFFFF800000007FFFF00
FFFFF80000000FFFFF80
FFFFF80000000FFFFF80
FFFFF80000000FFFFF80
FFFFF80000000FFFFF80
FFFFF80000000FFFFF80
FFFFF80000000FFFFF80
FFFFF80000000FFFFF80
FFFFF80000000FFFFF80
FFFFF80000000FFFFF80
FFFFF80000000FFFFF80
FFFFF80000000FFFFF80
FFFFF80000000FFFFF80
FFFFF80000000FFFFF80
FFFFF80000000FFFFF80
FFFFF80000000FFFFF80
FFFFF80000000FFFFF80
FFFFF80000000FFFFF80
FFFFF80000000FFFFF80
FFFFF80000000FFFFF80
FFFFFFFFFFFFFFFFFF80
FFFFFFFFFFFFFFFFFF80
FFFFFFFFFFFFFFFFFF80
FFFFFFFFFFFFFFFFFF80
FFFFFFFFFFFFFFFFFF80
FFFFFFFFFFFFFFFFFF80
FFFFFFFFFFFFFFFFFF80
FFFFFFFFFFFFFFFFFF80
FFFFFFFFFFFFFFFFFF80
FFFFFFFFFFFFFFFFFF00
FFFFFFFFFFFFFFFFFF00
FFFFFFFFFFFFFFFFFF00
FFFFFFFFFFFFFFFFFE00
FFFFFFFFFFFFFFFFFE00
FFFFFFFFFFFFFFFFFC00
FFFFFFFFFFFFFFFFF800
FFFFFFFFFFFFFFFFF000
FFFFFFFFFFFFFFFFE000
FFFFFFFFFFFFFFFFC000
FFFFFFFFFFFFFFFF0000
FFFFFFFFFFFFFFF80000
FFFFF801FFFFFF000000
FFFFF800FFFFFF800000
FFFFF800FFFFFFC00000
FFFFF8007FFFFFC00000
FFFFF8003FFFFFE00000
FFFFF8003FFFFFF00000
FFFFF8001FFFFFF00000
FFFFF8000FFFFFF80000
FFFFF8000FFFFFFC0000
FFFFF80007FFFFFC0000
FFFFF80003FFFFFE0000
FFFFF80003FFFFFF0000
FFFFF80001FFFFFF0000
FFFFF80000FFFFFF8000
FFFFF800007FFFFFC000
FFFFF800007FFFFFC000
FFFFF800003FFFFFE000
FFFFF800001FFFFFF000
FFFFF800001FFFFFF000
FFFFF800000FFFFFF800
FFFFF8000007FFFFFC00
FFFFF8000007FFFFFC00
FFFFF8000003FFFFFE00
FFFFF8000001FFFFFE00
FFFFF8000001FFFFFF00
FFFFF8000000FFFFFF00
FFFFF80000007FFFFF00
FFFFF80000007FFFFF00
FFFFF80000003FFFFF00
FFFFF80000001FFFFE00
7FFFF00000001FFFFE00
7FFFF00000000FFFFE00
3FFFE000000007FFFC00
1FFFC000000007FFF800
0FFF8000000003FFF000
07FF0000000000FFE000
01FC00000000003F8000
ENDCHAR
STARTCHAR 006C
ENCODING 108
SWIDTH 172 0
DWIDTH 30 0
BBX 21 130 3 0
BITMAP
01F800
07FE00
0FFF00
1FFF80
3FFF80
7FFFC0
7FFFE0
FFFFE0
FFFFF0
FFFFF8
FFFFF8
FFFFF8
FFFFF8
FFFFF8
FFFFF8
FFFFF8
FFFFF8
FFFFF8
FFFFF8
FFFFF8
FFFFF8
FFFFF8
FFFFF8
FFFFF8
FFFFF8
FFFFF8
FFFFF8
FFFFF8
FFFFF8
FFFFF8
FFFFF8
FFFFF8
FFFFF8
FFFFF8
FFFFF8
FFFFF8
FFFFF8
FFFFF8
FFFFF8
FFFFF8
FFFFF8
FFFFF8
FFFFF8
FFFFF8
FFFFF8
FFFFF8
FFFFF8
FFFFF8
FFFFF8
FFFFF8
FFFFF8
FFFFF8
FFFFF8
FFFFF8
FFFFF8
FFFFF8
FFFFF8
FFFFF8
FFFFF8
FFFFF8
FFFFF8
FFFFF8
FFFFF8
FFFFF8
FFFFF8
FFFFF8
FFFFF8
FFFFF8
FFFFF8
FFFFF8
FFFFF8
FFFFF8
FFFFF8
FFFFF8
FFFFF8
FFFFF8
FFFFF8
FFFFF8
FFFFF8
FFFFF8
FFFFF8
FFFFF8
FFFFF8
FFFFF8
FFFFF8
FFFFF8
FFFFF8
FFFFF8
FFFFF8
FFFFF8
FFFFF8
FFFFF8
FFFFF8
FFFFF8
FFFFF8
FFFFF8
FFFFF8
FFFFF8
FFFFF8
FFFFF8
FFFFF8
FFFFF8
FFFFF8
FFFFF8
FFFFF8
FFFFF8
FFFFF8
FFFFF8
FFFFF8
FFFFF8
FFFFF8
FFFFF8
FFFFF8
FFFFF8
FFFFF8
FFFFF8
FFFFF8
FFFFF8
FFFFF8
FFFFF8
FFFFF8
FFFFF8
FFFFF8
7FFFF0
7FFFF0
3FFFE0
1FFFC0
0FFF80
07FF00
01FC00
ENDCHAR
STARTCHAR 006D
ENCODING 109
SWIDTH 711 0
DWIDTH 124 0
BBX 115 84 3 0
BITMAP
000FFFFFFFFFFE0FFFFFFFFFFE0000
007FFFFFFFFFFFFFFFFFFFFFFFC000
01FFFFFFFFFFFFFFFFFFFFFFFFF000
03FFFFFFFFFFFFFFFFFFFFFFFFF800
07FFFFFFFFFFFFFFFFFFFFFFFFFC00
0FFFFFFFFFFFFFFFFFFFFFFFFFFE00
1FFFFFFFFFFFFFFFFFFFFFFFFFFF00
3FFFFFFFFFFFFFFFFFFFFFFFFFFF80
3FFFFFFFFFFFFFFFFFFFFFFFFFFF80
7FFFFFFFFFFFFFFFFFFFFFFFFFFFC0
7FFFFFFFFFFFFFFFFFFFFFFFFFFFC0
FFFFFFFFFFFFFFFFFFFFFFFFFFFFC0
FFFFFFFFFFFFFFFFFFFFFFFFFFFFE0
FFFFFFFFFFFFFFFFFFFFFFFFFFFFE0
FFFFFFFFFFFFFFFFFFFFFFFFFFFFE0
FFFFFFFFFFFFFFFFFFFFFFFFFFFFE0
FFFFFFFFFFFFFFFFFFFFFFFFFFFFE0
FFFFFFFFFFFFFFFFFFFFFFFFFFFFE0
FFFFFFFFFFFFFFFFFFFFFFFFFFFFE0
FFFFFFFFFFFFFFFFFFFFFFFFFFFFE0
FFFFFFFFFFFFFFFFFFFFFFFFFFFFE0
FFFFF8000001FFFFF0000003FFFFE0
FFFFF8000001FFFFF0000003FFFFE0
FFFFF8000001FFFFF0000003FFFFE0
FFFFF8000001FFFFF0000003FFFFE0
FFFFF8000001FFFFF0000003FFFFE0
FFFFF8000001FFFFF0000003FFFFE0
FFFFF8000001FFFFF0000003FFFFE0
FFFFF8000001FFFFF0000003FFFFE0
FFFFF8000001FFFFF0000003FFFFE0
FFFFF8000001FFFFF0000003FFFFE0
FFFFF8000001FFFFF0000003FFFFE0
FFFFF8000001FFFFF0000003FFFFE0
FFFFF8000001FFFFF0000003FFFFE0
FFFFF8000001FFFFF0000003FFFFE0
FFFFF8000001FFFFF0000003FFFFE0
FFFFF8000001FFFFF0000003FFFFE0
FFFFF8000001FFFFF0000003FFFFE0
FFFFF8000001FFFFF0000003FFFFE0
FFFFF8000001FFFFF0000003FFFFE0
FFFFF8000001FFFFF0000003FFFFE0
FFFFF8000001FFFFF0000003FFFFE0
FFFFF8000001FFFFF0000003FFFFE0
FFFFF8000001FFFFF0000003FFFFE0
FFFFF8000001FFFFF0000003FFFFE0
FFFFF8000001FFFFF0000003FFFFE0
FFFFF8000001FFFFF0000003FFFFE0
FFFFF8000001FFFFF0000003FFFFE0
FFFFF8000001FFFFF0000003FFFFE0
FFFFF8000001FFFFF0000003FFFFE0
FFFFF8000001FFFFF0000003FFFFE0
FFFFF8000001FFFFF0000003FFFFE0
FFFFF8000001FFFFF0000003FFFFE0
FFFFF8000001FFFFF0000003FFFFE0
FFFFF8000001FFFFF0000003FFFFE0
FFFFF8000001FFFFF0000003FFFFE0
FFFFF8000001FFFFF0000003FFFFE0
FFFFF8000001FFFFF0000003FFFFE0
FFFFF8000001FFFFF0000003FFFFE0
FFFFF8000001FFFFF0000003FFFFE0
FFFFF8000001FFFFF0000003FFFFE0
FFFFF8000001FFFFF0000003FFFFE0
FFFFF8000001FFFFF0000003FFFFE0
FFFFF8000001FFFFF0000003FFFFE0
FFFFF8000001FFFFF0000003FFFFE0
FFFFF8000001FFFFF0000003FFFFE0
FFFFF8000001FFFFF0000003FFFFE0
FFFFF8000001FFFFF0000003FFFFE0
FFFFF8000001FFFFF0000003FFFFE0
FFFFF8000001FFFFF0000003FFFFE0
FFFFF8000001FFFFF0000003FFFFE0
FFFFF8000001FFFFF0000003FFFFE0
FFFFF8000001FFFFF0000003FFFFE0
FFFFF8000001FFFFF0000003FFFFE0
FFFFF8000001FFFFF0000003FFFFE0
FFFFF8000001FFFFF0000003FFFFE0
FFFFF8000001FFFFE0000003FFFFE0
7FFFF0000000FFFFE0000001FFFFC0
7FFFF0000000FFFFC0000001FFFFC0
3FFFE00000007FFF80000000FFFF80
1FFFC00000003FFE000000007FFF00
0FFF800000001FFC000000003FFE00
07FF000000000FF0000000001FFC00
01FC0000000003C00000000007F000
ENDCHAR
STARTCHAR 006E
ENCODING 110
SWIDTH 470 0
DWIDTH 82 0
BBX 73 84 3 0
BITMAP
000FFFFFFFFFFFF80000
007FFFFFFFFFFFFF0000
01FFFFFFFFFFFFFFC000
03FFFFFFFFFFFFFFE000
07FFFFFFFFFFFFFFF000
0FFFFFFFFFFFFFFFF800
1FFFFFFFFFFFFFFFFC00
3FFFFFFFFFFFFFFFFE00
3FFFFFFFFFFFFFFFFE00
7FFFFFFFFFFFFFFFFF00
7FFFFFFFFFFFFFFFFF00
FFFFFFFFFFFFFFFFFF00
FFFFFFFFFFFFFFFFFF80
FFFFFFFFFFFFFFFFFF80
FFFFFFFFFFFFFFFFFF80
FFFFFFFFFFFFFFFFFF80
FFFFFFFFFFFFFFFFFF80
FFFFFFFFFFFFFFFFFF80
FFFFFFFFFFFFFFFFFF80
FFFFFFFFFFFFFFFFFF80
FFFFFFFFFFFFFFFFFF80
FFFFF80000000FFFFF80
FFFFF80000000FFFFF80
FFFFF80000000FFFFF80
FFFFF80000000FFFFF80
FFFFF80000000FFFFF80
FFFFF80000000FFFFF80
FFFFF80000000FFFFF80
FFFFF80000000FFFFF80
FFFFF80000000FFFFF80
FFFFF80000000FFFFF80
FFFFF80000000FFFFF80
FFFFF80000000FFFFF80
FFFFF80000000FFFFF80
FFFFF80000000FFFFF80
FFFFF80000000FFFFF80
FFFFF80000000FFFFF80
FFFFF80000000FFFFF80
FFFFF80000000FFFFF80
FFFFF80000000FFFFF80
FFFFF80000000FFFFF80
FFFFF80000000FFFFF80
FFFFF80000000FFFFF80
FFFFF80000000FFFFF80
FFFFF80000000FFFFF80
FFFFF80000000FFFFF80
FFFFF80000000FFFFF80
FFFFF80000000FFFFF80
FFFFF80000000FFFFF80
FFFFF80000000FFFFF80
FFFFF80000000FFFFF80
FFFFF80000000FFFFF80
FFFFF80000000FFFFF80
FFFFF80000000FFFFF80
FFFFF80000000FFFFF80
FFFFF80000000FFFFF80
FFFFF80000000FFFFF80
FFFFF80000000FFFFF80
FFFFF80000000FFFFF80
FFFFF80000000FFFFF80
FFFFF80000000FFFFF80
FFFFF80000000FFFFF80
FFFFF80000000FFFFF80
FFFFF80000000FFFFF80
FFFFF80000000FFFFF80
FFFFF80000000FFFFF80
FFFFF80000000FFFFF80
FFFFF80000000FFFFF80
FFFFF80000000FFFFF80
FFFFF80000000FFFFF80
FFFFF80000000FFFFF80
FFFFF80000000FFFFF80
FFFFF80000000FFFFF80
FFFFF80000000FFFFF80
FFFFF80000000FFFFF80
FFFFF80000000FFFFF80
FFFFF80000000FFFFF80
7FFFF000000007FFFF00
7FFFF000000007FFFF00
3FFFE000000003FFFE00
1FFFC000000001FFFC00
0FFF8000000000FFF800
07FF00000000007FF000
01FC00000000001FC000
ENDCHAR
STARTCHAR 006F
ENCODING 111
SWIDTH 470 0
DWIDTH 82 0
BBX 73 84 3 0
BITMAP
000FFFFFFFFFFFF80000
007FFFFFFFFFFFFF0000
01FFFFFFFFFFFFFFC000
03FFFFFFFFFFFFFFE000
07FFFFFFFFFFFFFFF000
0FFFFFFFFFFFFFFFF800
1FFFFFFFFFFFFFFFFC00
3FFFFFFFFFFFFFFFFE00
3FFFFFFFFFFFFFFFFE00
7FFFFFFFFFFFFFFFFF00
7FFFFFFFFFFFFFFFFF00
FFFFFFFFFFFFFFFFFF00
FFFFFFFFFFFFFFFFFF80
FFFFFFFFFFFFFFFFFF80
FFFFFFFFFFFFFFFFFF80
FFFFFFFFFFFFFFFFFF80
FFFFFFFFFFFFFFFFFF80
FFFFFFFFFFFFFFFFFF80
FFFFFFFFFFFFFFFFFF80
FFFFFFFFFFFFFFFFFF80
FFFFFFFFFFFFFFFFFF80
FFFFF80000000FFFFF80
FFFFF80000000FFFFF80
FFFFF80000000FFFFF80
FFFFF80000000FFFFF80
FFFFF80000000FFFFF80
FFFFF80000000FFFFF80
FFFFF80000000FFFFF80
FFFFF80000000FFFFF80
FFFFF80000000FFFFF80
FFFFF80000000FFFFF80
FFFFF80000000FFFFF80
FFFFF80000000FFFFF80
FFFFF80000000FFFFF80
FFFFF80000000FFFFF80
FFFFF80000000FFFFF80
FFFFF80000000FFFFF80
FFFFF80000000FFFFF80
FFFFF80000000FFFFF80
FFFFF80000000FFFFF80
FFFFF80000000FFFFF80
FFFFF80000000FFFFF80
FFFFF80000000FFFFF80
FFFFF80000000FFFFF80
FFFFF80000000FFFFF80
FFFFF80000000FFFFF80
FFFFF80000000FFFFF80
FFFFF80000000FFFFF80
FFFFF80000000FFFFF80
FFFFF80000000FFFFF80
FFFFF80000000FFFFF80
FFFFF80000000FFFFF80
FFFFF80000000FFFFF80
FFFFF80000000FFFFF80
FFFFF80000000FFFFF80
FFFFF80000000FFFFF80
FFFFF80000000FFFFF80
FFFFF80000000FFFFF80
FFFFF80000000FFFFF80
FFFFF80000000FFFFF80
FFFFF80000000FFFFF80
FFFFF80000000FFFFF80
FFFFF80000000FFFFF80
FFFFFFFFFFFFFFFFFF80
FFFFFFFFFFFFFFFFFF80
FFFFFFFFFFFFFFFFFF80
FFFFFFFFFFFFFFFFFF80
FFFFFFFFFFFFFFFFFF80
FFFFFFFFFFFFFFFFFF80
FFFFFFFFFFFFFFFFFF80
FFFFFFFFFFFFFFFFFF80
FFFFFFFFFFFFFFFFFF80
FFFFFFFFFFFFFFFFFF00
7FFFFFFFFFFFFFFFFF00
7FFFFFFFFFFFFFFFFF00
3FFFFFFFFFFFFFFFFE00
3FFFFFFFFFFFFFFFFE00
1FFFFFFFFFFFFFFFFC00
0FFFFFFFFFFFFFFFF800
07FFFFFFFFFFFFFFF000
03FFFFFFFFFFFFFFE000
01FFFFFFFFFFFFFFC000
007FFFFFFFFFFFFF0000
000FFFFFFFFFFFF80000
ENDCHAR
STARTCHAR 0070
ENCODING 112
SWIDTH 470 0
DWIDTH 82 0
BBX 73 131 3 -47
BITMAP
000FFFFFFFFFFFF80000
007FFFFFFFFFFFFF0000
01FFFFFFFFFFFFFFC000
03FFFFFFFFFFFFFFE000
07FFFFFFFFFFFFFFF000
0FFFFFFFFFFFFFFFF800
1FFFFFFFFFFFFFFFFC00
3FFFFFFFFFFFFFFFFE00
3FFFFFFFFFFFFFFFFE00
7FFFFFFFFFFFFFFFFF00
7FFFFFFFFFFFFFFFFF00
FFFFFFFFFFFFFFFFFF00
FFFFFFFFFFFFFFFFFF80
FFFFFFFFFFFFFFFFFF80
FFFFFFFFFFFFFFFFFF80
FFFFFFFFFFFFFFFFFF80
FFFFFFFFFFFFFFFFFF80
FFFFFFFFFFFFFFFFFF80
FFFFFFFFFFFFFFFFFF80
FFFFFFFFFFFFFFFFFF80
FFFFFFFFFFFFFFFFFF80
FFFFF80000000FFFFF80
FFFFF80000000FFFFF80
FFFFF80000000FFFFF80
FFFFF80000000FFFFF80
FFFFF80000000FFFFF80
FFFFF80000000FFFFF80
FFFFF80000000FFFFF80
FFFFF80000000FFFFF80
FFFFF80000000FFFFF80
FFFFF80000000FFFFF80
FFFFF80000000FFFFF80
FFFFF80000000FFFFF80
FFFFF80000000FFFFF80
FFFFF80000000FFFFF80
FFFFF80000000FFFFF80
FFFFF80000000FFFFF80
FFFFF80000000FFFFF80
FFFFF80000000FFFFF80
FFFFF80000000FFFFF80
FFFFF80000000FFFFF80
FFFFF80000000FFFFF80
FFFFF80000000FFFFF80
FFFFF80000000FFFFF80
FFFFF80000000FFFFF80
FFFFF80000000FFFFF80
FFFFF80000000FFFFF80
FFFFF80000000FFFFF80
FFFFF80000000FFFFF80
FFFFF80000000FFFFF80
FFFFF80000000FFFFF80
FFFFF80000000FFFFF80
FFFFF80000000FFFFF80
FFFFF80000000FFFFF80
FFFFF80000000FFFFF80
FFFFF80000000FFFFF80
FFFFF80000000FFFFF80
FFFFF80000000FFFFF80
FFFFF80000000FFFFF80
FFFFF80000000FFFFF80
FFFFF80000000FFFFF80
FFFFF80000000FFFFF80
FFFFF80000000FFFFF80
FFFFFFFFFFFFFFFFFF80
FFFFFFFFFFFFFFFFFF80
FFFFFFFFFFFFFFFFFF80
FFFFFFFFFFFFFFFFFF80
FFFFFFFFFFFFFFFFFF80
FFFFFFFFFFFFFFFFFF80
FFFFFFFFFFFFFFFFFF80
FFFFFFFFFFFFFFFFFF80
FFFFFFFFFFFFFFFFFF80
FFFFFFFFFFFFFFFFFF00
FFFFFFFFFFFFFFFFFF00
FFFFFFFFFFFFFFFFFF00
FFFFFFFFFFFFFFFFFE00
FFFFFFFFFFFFFFFFFE00
FFFFFFFFFFFFFFFFFC00
FFFFFFFFFFFFFFFFF800
FFFFFFFFFFFFFFFFF000
FFFFFFFFFFFFFFFFE000
FFFFFFFFFFFFFFFFC000
FFFFFFFFFFFFFFFF0000
FFFFFFFFFFFFFFF80000
FFFFF800000000000000
FFFFF800000000000000
FFFFF800000000000000
FFFFF800000000000000
FFFFF800000000000000
FFFFF800000000000000
FFFFF800000000000000
FFFFF800000000000000
FFFFF800000000000000
FFFFF800000000000000
FFFFF800000000000000
FFFFF800000000000000
FFFFF800000000000000
FFFFF800000000000000
FFFFF800000000000000
FFFFF800000000000000
FFFFF800000000000000
FFFFF800000000000000
FFFFF800000000000000
FFFFF800000000000000
FFFFF800000000000000
FFFFF800000000000000
FFFFF800000000000000
FFFFF800000000000000
FFFFF800000000000000
FFFFF800000000000000
FFFFF800000000000000
FFFFF800000000000000
FFFFF800000000000000
FFFFF800000000000000
FFFFF800000000000000
FFFFF800000000000000
FFFFF800000000000000
FFFFF800000000000000
FFFFF800000000000000
FFFFF800000000000000
FFFFF800000000000000
FFFFF800000000000000
FFFFF800000000000000
FFFFF800000000000000
7FFFF000000000000000
7FFFF000000000000000
3FFFE000000000000000
1FFFC000000000000000
0FFF8000000000000000
07FF0000000000000000
01FC0000000000000000
ENDCHAR
STARTCHAR 0071
ENCODING 113
SWIDTH 470 0
DWIDTH 82 0
BBX 73 131 3 -47
BITMAP
000FFFFFFFFFFFF80000
007FFFFFFFFFFFFF0000
01FFFFFFFFFFFFFFC000
03FFFFFFFFFFFFFFE000
07FFFFFFFFFFFFFFF000
0FFFFFFFFFFFFFFFF800
1FFFFFFFFFFFFFFFFC00
3FFFFFFFFFFFFFFFFE00
3FFFFFFFFFFFFFFFFE00
7FFFFFFFFFFFFFFFFF00
7FFFFFFFFFFFFFFFFF00
FFFFFFFFFFFFFFFFFF00
FFFFFFFFFFFFFFFFFF80
FFFFFFFFFFFFFFFFFF80
FFFFFFFFFFFFFFFFFF80
FFFFFFFFFFFFFFFFFF80
FFFFFFFFFFFFFFFFFF80
FFFFFFFFFFFFFFFFFF80
FFFFFFFFFFFFFFFFFF80
FFFFFFFFFFFFFFFFFF80
FFFFFFFFFFFFFFFFFF80
FFFFF80000000FFFFF80
FFFFF80000000FFFFF80
FFFFF80000000FFFFF80
FFFFF80000000FFFFF80
FFFFF80000000FFFFF80
FFFFF80000000FFFFF80
FFFFF80000000FFFFF80
FFFFF80000000FFFFF80
FFFFF80000000FFFFF80
FFFFF80000000FFFFF80
FFFFF80000000FFFFF80
FFFFF80000000FFFFF80
FFFFF80000000FFFFF80
FFFFF80000000FFFFF80
FFFFF80000000FFFFF80
FFFFF80000000FFFFF80
FFFFF80000000FFFFF80
FFFFF80000000FFFFF80
FFFFF80000000FFFFF80
FFFFF80000000FFFFF80
FFFFF80000000FFFFF80
FFFFF80000000FFFFF80
FFFFF80000000FFFFF80
FFFFF80000000FFFFF80
FFFFF80000000FFFFF80
FFFFF80000000FFFFF80
FFFFF80000000FFFFF80
FFFFF80000000FFFFF80
FFFFF80000000FFFFF80
FFFFF80000000FFFFF80
FFFFF80000000FFFFF80
FFFFF80000000FFFFF80
FFFFF80000000FFFFF80
FFFFF80000000FFFFF80
FFFFF80000000FFFFF80
FFFFF80000000FFFFF80
FFFFF80000000FFFFF80
FFFFF80000000FFFFF80
FFFFF80000000FFFFF80
FFFFF80000000FFFFF80
FFFFF80000000FFFFF80
FFFFF80000000FFFFF80
FFFFFFFFFFFFFFFFFF80
FFFFFFFFFFFFFFFFFF80
FFFFFFFFFFFFFFFFFF80
FFFFFFFFFFFFFFFFFF80
FFFFFFFFFFFFFFFFFF80
FFFFFFFFFFFFFFFFFF80
FFFFFFFFFFFFFFFFFF80
FFFFFFFFFFFFFFFFFF80
FFFFFFFFFFFFFFFFFF80
FFFFFFFFFFFFFFFFFF80
7FFFFFFFFFFFFFFFFF80
7FFFFFFFFFFFFFFFFF80
3FFFFFFFFFFFFFFFFF80
3FFFFFFFFFFFFFFFFF80
1FFFFFFFFFFFFFFFFF80
0FFFFFFFFFFFFFFFFF80
07FFFFFFFFFFFFFFFF80
03FFFFFFFFFFFFFFFF80
01FFFFFFFFFFFFFFFF80
007FFFFFFFFFFFFFFF80
001FFFFFFFFFFFFFFF80
0000000000000FFFFF80
0000000000000FFFFF80
0000000000000FFFFF80
0000000000000FFFFF80
0000000000000FFFFF80
0000000000000FFFFF80
0000000000000FFFFF80
0000000000000FFFFF80
0000000000000FFFFF80
0000000000000FFFFF80
0000000000000FFFFF80
0000000000000FFFFF80
0000000000000FFFFF80
0000000000000FFFFF80
0000000000000FFFFF80
0000000000000FFFFF80
0000000000000FFFFF80
0000000000000FFFFF80
0000000000000FFFFF80
0000000000000FFFFF80
0000000000000FFFFF80
0000000000000FFFFF80
0000000000000FFFFF80
0000000000000FFFFF80
0000000000000FFFFF80
0000000000000FFFFF80
0000000000000FFFFF80
0000000000000FFFFF80
0000000000000FFFFF80
0000000000000FFFFF80
0000000000000FFFFF80
0000000000000FFFFF80
0000000000000FFFFF80
0000000000000FFFFF80
0000000000000FFFFF80
0000000000000FFFFF80
0000000000000FFFFF80
0000000000000FFFFF80
0000000000000FFFFF80
0000000000000FFFFF80
00000000000007FFFF00
00000000000007FFFF00
00000000000003FFFE00
00000000000001FFFC00
00000000000000FFF800
000000000000007FF000
000000000000001FC000
ENDCHAR
STARTCHAR 0072
ENCODING 114
SWIDTH 441 0
DWIDTH 77 0
BBX 68 84 3 0
BITMAP
000FFFFFFFFFFFF800
007FFFFFFFFFFFFE00
01FFFFFFFFFFFFFF00
03FFFFFFFFFFFFFF80
07FFFFFFFFFFFFFFC0
0FFFFFFFFFFFFFFFE0
1FFFFFFFFFFFFFFFE0
3FFFFFFFFFFFFFFFE0
3FFFFFFFFFFFFFFFF0
7FFFFFFFFFFFFFFFF0
7FFFFFFFFFFFFFFFF0
FFFFFFFFFFFFFFFFF0
FFFFFFFFFFFFFFFFF0
FFFFFFFFFFFFFFFFE0
FFFFFFFFFFFFFFFFE0
FFFFFFFFFFFFFFFFE0
FFFFFFFFFFFFFFFFC0
FFFFFFFFFFFFFFFF80
FFFFFFFFFFFFFFFF00
FFFFFFFFFFFFFFFE00
FFFFFFFFFFFFFFF800
FFFFF8000000000000
FFFFF8000000000000
FFFFF8000000000000
FFFFF8000000000000
FFFFF8000000000000
FFFFF8000000000000
FFFFF8000000000000
FFFFF8000000000000
FFFFF8000000000000
FFFFF8000000000000
FFFFF8000000000000
FFFFF8000000000000
FFFFF8000000000000
FFFFF8000000000000
FFFFF8000000000000
FFFFF8000000000000
FFFFF8000000000000
FFFFF8000000000000
FFFFF8000000000000
FFFFF8000000000000
FFFFF8000000000000
FFFFF8000000000000
FFFFF8000000000000
FFFFF8000000000000
FFFFF8000000000000
FFFFF8000000000000
FFFFF8000000000000
FFFFF8000000000000
FFFFF8000000000000
FFFFF8000000000000
FFFFF8000000000000
FFFFF8000000000000
FFFFF8000000000000
FFFFF8000000000000
FFFFF8000000000000
FFFFF8000000000000
FFFFF8000000000000
FFFFF8000000000000
FFFFF8000000000000
FFFFF8000000000000
FFFFF8000000000000
FFFFF8000000000000
FFFFF8000000000000
FFFFF8000000000000
FFFFF8000000000000
FFFFF8000000000000
FFFFF8000000000000
FFFFF8000000000000
FFFFF8000000000000
FFFFF8000000000000
FFFFF8000000000000
FFFFF8000000000000
FFFFF8000000000000
FFFFF8000000000000
FFFFF8000000000000
FFFFF8000000000000
7FFFF0000000000000
7FFFF0000000000000
3FFFE0000000000000
1FFFC0000000000000
0FFF80000000000000
07FF00000000000000
01FC00000000000000
ENDCHAR
ENDFONT
